<?xml version="1.0" encoding="UTF-8" standalone="no"?>
<!-- Created with Inkscape (http://www.inkscape.org/) -->
<svg xmlns:inkscape="http://www.inkscape.org/namespaces/inkscape" xmlns:rdf="http://www.w3.org/1999/02/22-rdf-syntax-ns#" xmlns="http://www.w3.org/2000/svg" xmlns:xlink="http://www.w3.org/1999/xlink" xmlns:ns1="http://sozi.baierouge.fr" xmlns:cc="http://creativecommons.org/ns#" xmlns:sodipodi="http://sodipodi.sourceforge.net/DTD/sodipodi-0.dtd" xmlns:dc="http://purl.org/dc/elements/1.1/" id="svg2" xml:space="preserve" viewBox="0 0 68.603 62.769" version="1.1" inkscape:version="0.91 r13725">
  <g id="g10" transform="matrix(1.25 0 0 -1.25 0 62.769)">
    <g id="g12">
      <path id="path14" style="fill-rule:evenodd;fill:#414428" d="m52.121 33.438c0.133-0.184 0.184-0.36 0.156-0.52-0.558-0.078-1.398-0.133-2.515-0.16 0.023-0.051 0.039-0.094 0.039-0.117-2.348 0.797-3.348 1.519-3 2.16 0.961-0.695 2.172-1.148 3.64-1.363l1.438-0.117 0.242 0.117zm-8.922-6.399c-0.238-0.105-0.48-0.214-0.719-0.32-0.265-0.078-0.546-0.16-0.839-0.238-1.149-0.242-1.696 0.066-1.641 0.918-0.398-0.532-1.039-0.895-1.922-1.078-0.105-0.028-0.199-0.043-0.277-0.043-0.293-0.024-0.492 0.027-0.602 0.16-0.105 0.187-0.066 0.496 0.121 0.922-0.398-0.188-0.906-0.282-1.519-0.282-0.696 0-1.16 0.122-1.403 0.36 0.082 0.32 0.27 0.562 0.563 0.722-0.481-0.136-1.082-0.148-1.801-0.043-0.668 0.11-1.238 0.297-1.719 0.563-0.054 0-0.093-0.016-0.121-0.039-0.132 0.027-0.265 0.051-0.398 0.078l0.078 0.121-0.438-0.039c-0.136 0.078-0.253 0.172-0.363 0.277l-0.039 0.039c-0.051 0.055-0.094 0.11-0.121 0.161l-0.238-0.118c-0.16 0.239-0.254 0.586-0.281 1.04 0.027 0.507 0.042 0.851 0.042 1.039 0.161-0.774 0.719-1.305 1.68-1.598 0.824-0.27 1.68-0.309 2.559-0.121l0.441 0.16c0.184 0.078 0.332 0.105 0.438 0.078 0.132-0.051 0.199-0.133 0.199-0.238 0-0.082-0.024-0.215-0.078-0.403 1.148-0.449 1.906-0.437 2.281 0.043l-0.32-0.921c0.215-0.215 0.586-0.348 1.117-0.399 0.43-0.027 0.828 0.012 1.203 0.117 0.184 0.055 0.387 0.149 0.598 0.282 0.187 0.187 0.336 0.32 0.441 0.402-0.105-0.59 0.469-0.789 1.719-0.602 0.426 0.055 0.652 0.172 0.683 0.36 0.079 0.375 0.145 0.586 0.2 0.64 0.105 0 0.691-0.039 1.757-0.121 0.961 0.028 1.375 0.227 1.243 0.602-0.028 0.133-0.161 0.215-0.403 0.238-0.293-0.027-0.48-0.027-0.558 0-0.719 0.055-1.215 0.309-1.481 0.762 0.453-0.133 0.934-0.242 1.442-0.32 0.718-0.083 1.183-0.016 1.398 0.199 0.055 0.054 0.082 0.347 0.082 0.879 0.024 0.453 0.117 0.668 0.277 0.64 0.055-0.105 0.067-0.359 0.043-0.758-0.027-0.32 0.051-0.519 0.239-0.601 0.347-0.188 0.629-0.172 0.84 0.039 0.187 0.16 0.308 0.387 0.359 0.68-0.051-0.266 0.016-0.477 0.203-0.637 0.266-0.215 0.746-0.363 1.438-0.441 0.586-0.083 1.109-0.083 1.562 0v0.878c0.316-0.054 0.863-0.054 1.637 0h0.16c0.613-0.054 0.977-0.293 1.082-0.718v-0.121h0.238c0.082-0.133 0.215-0.239 0.403-0.321l0.199-0.117c-0.293-0.109-0.828-0.254-1.602-0.441l-1.121-0.039-0.039 0.039c-0.535 0.105-0.961-0.028-1.281-0.403l-0.281-0.039-0.039-0.48c-0.399-0.078-0.934-0.106-1.598-0.078-0.695 0.027-1.203 0.093-1.524 0.199-0.238-0.426-0.597-0.586-1.078-0.481-0.453-0.32-1-0.398-1.64-0.238l-0.559-0.121c-0.269-0.266-0.574-0.492-0.922-0.68zm-4.719 14.879c0.133-0.265 0.2-0.625 0.2-1.078l-0.039-0.32c-0.082-0.133-0.133-0.215-0.161-0.242l-0.281-0.118h-0.238c-0.293 0.024-0.707 0.184-1.242 0.481l-0.36 0.16c0-0.48-0.132-1.016-0.398-1.601l-0.082-0.2-0.238-0.242c-0.161-0.051-0.282-0.066-0.36-0.039-0.16 0.027-0.426 0.227-0.801 0.602 0.321 0.16 0.52 0.359 0.598 0.597 0.11 0.266 0.027 0.52-0.238 0.762l-0.121 0.078 0.121 0.043c0.16 0 0.465-0.016 0.918-0.043 0.43 0 0.75 0.055 0.961 0.16l0.082 0.082c0.183 0.078 0.277 0.227 0.277 0.438 0.027 0.453-0.48 0.679-1.519 0.679 0.828 0.055 1.293 0.094 1.402 0.122 0.613 0.105 0.879 0.347 0.801 0.718 0 0.082-0.043 0.188-0.121 0.321l1.757-0.2c0.055-0.32-0.039-0.586-0.277-0.8-0.133-0.106-0.293-0.184-0.48-0.239h-0.161v-0.039l-0.441-0.082h0.441zm-26.921-9.078v0.039h0.043l0.437-0.121c-0.184-0.773-0.387-1.254-0.598-1.437-0.136-0.137-0.347-0.188-0.64-0.161-0.321 0-0.469 0.106-0.442 0.321-0.48-0.535-1.039-0.883-1.679-1.043 0 0.101 0.015 0.187 0.039 0.262l0.019 0.078c0.004 0.019 0.012 0.039 0.024 0.062v0.16c-0.457-0.215-0.934-0.308-1.442-0.281-0.586 0-0.988 0.188-1.199 0.559-0.133-0.133-0.309-0.254-0.519-0.36 0.05 0.293 0.132 0.496 0.238 0.602 0.187-0.242 0.64-0.32 1.359-0.242 0.723 0.054 1.082 0.254 1.082 0.601 0.133-0.105 0.278-0.226 0.438-0.359 0.16-0.082 0.375-0.106 0.64-0.082 0.215 0.027 0.453 0.148 0.719 0.363l0.281 0.238c0.055 0.028 0.215 0.039 0.481 0.039 0.32-0.054 0.519-0.054 0.601 0 0.133 0.082 0.172 0.336 0.118 0.762zm8.64-2.762c-0.133 0.055-0.387-0.011-0.758-0.199-0.402-0.187-0.679-0.281-0.839-0.281-0.215-0.023-0.364-0.012-0.442 0.043-0.055 0.051-0.094 0.144-0.121 0.277-0.027 0.16-0.051 0.242-0.078 0.242-0.106 0.051-0.309 0.04-0.602-0.043-0.371-0.105-0.597-0.16-0.679-0.16h-0.68l-0.398 0.043c-0.508 0.051-0.84 0.133-1 0.239-0.188 0.132-0.282 0.414-0.282 0.839l0.321 0.122c-0.028-0.188-0.028-0.321 0-0.399 0.054-0.082 0.171-0.176 0.359-0.281 0.293-0.16 0.855-0.242 1.68-0.242l0.761 0.082c0.426 0.132 0.692 0.304 0.797 0.519v0.078l0.082-0.238c0.055-0.215 0.121-0.348 0.2-0.398 0.187-0.215 0.507-0.27 0.96-0.161 0.321 0.051 0.454 0.2 0.399 0.438 0.055-0.184 0.109-0.305 0.16-0.359l0.16-0.161zm1.84-5.48c-0.211-0.348-0.437-0.598-0.68-0.758-0.027 0-0.054-0.015-0.078-0.039h-0.043c-0.664-0.187-1.25-0.375-1.758-0.562-0.054-0.028-0.132-0.067-0.242-0.118-0.133-0.054-0.277-0.136-0.437-0.242-0.082-0.027-0.16-0.066-0.242-0.121l-0.118-0.039c-0.32-0.184-0.722-0.305-1.203-0.359-0.664-0.082-1.426-0.067-2.277 0.039l-0.082 0.519c-0.348 0.055-0.891 0.082-1.641 0.082v0.918l0.282-0.078c0.265-0.027 0.519 0.039 0.761 0.199 0.266 0.239 0.465 0.414 0.598 0.52 0.082-0.188 0.133-0.481 0.16-0.879 0.055-0.348 0.215-0.547 0.481-0.602 0.32-0.078 0.64 0 0.96 0.243 0.133 0.132 0.348 0.386 0.641 0.757l0.039-0.519c0.586-0.133 1.215 0.121 1.879 0.762 0.586 0.586 0.949 1.117 1.082 1.597-0.055-0.211-0.027-0.386 0.078-0.519 0.668 0.027 1.188 0.347 1.563 0.961 0.293 0.48 0.426 1.027 0.398 1.64 0.051-0.265 0.426-0.32 1.121-0.16l0.039 0.559c-0.082 0.082-0.175 0.254-0.281 0.519-0.105 0.215-0.211 0.36-0.32 0.442-0.078-0.133-0.16-0.266-0.239-0.403-0.054-0.078-0.187-0.132-0.402-0.156-0.476-0.055-0.906 0.066-1.277 0.359-0.239 0.497-0.41 0.79-0.52 0.879 0.321-0.238 0.696-0.265 1.117-0.082 0.243 0.137 0.387 0.364 0.442 0.684l0.16 0.398 0.641-0.398c0.238-0.137 0.453-0.176 0.64-0.121 0.266 0.055 0.399 0.226 0.399 0.519 0 0.399 0.027 0.653 0.082 0.762 0.16-0.242 0.304-0.535 0.437-0.883 0.133-0.211 0.426-0.304 0.879-0.277 0.297 0 0.524 0.066 0.684 0.199 0.105 0.078 0.238 0.266 0.398 0.559-0.027-0.614 0-0.973 0.078-1.078 0.137-0.215 0.481-0.297 1.043-0.243 0.719 0.055 1.106 0.348 1.16 0.879 0.426 0.11 0.719-0.066 0.879-0.519 0.16-0.399 0.16-0.879 0-1.438l-0.242-0.082c-0.133-0.051-0.277-0.093-0.437-0.117-0.133-0.027-0.266-0.055-0.403-0.082h-0.16c-0.105 0-0.199-0.012-0.277-0.039-0.348 0-0.696 0.012-1.039 0.039l-0.043-0.281c-0.051-0.16-0.094-0.305-0.117-0.438l-0.082-0.16c-0.161-0.375-0.465-0.601-0.918-0.68l-0.204-0.043h-0.636c-0.028-0.21-0.043-0.542-0.043-1 0-0.449-0.024-0.785-0.078-1-0.243-0.023-0.453-0.039-0.641-0.039h-0.879c-0.16 0.028-0.309 0.055-0.441 0.082-0.106 0.024-0.2 0.051-0.282 0.079l-0.078 0.039c-0.082-0.239-0.175-0.465-0.281-0.68zm8.481 13.519c2.054-0.183 3.054 0.067 3 0.762l-0.04 0.121v0.078l0.243 0.039c0.265 0 0.504 0.067 0.718 0.204-0.027-0.137-0.054-0.321-0.082-0.563l-0.121-0.558c-0.023 0-0.039-0.016-0.039-0.04v-0.043c-0.027 0-0.039-0.011-0.039-0.039-0.16-0.453-0.469-0.691-0.922-0.718l-1.199 0.039h-0.078c-0.641 0.082-1.121 0.265-1.441 0.558l-0.161 0.203 0.161-0.043zm-17.961-13.039c0.054 0.028 0.093 0.055 0.121 0.082v0.079c0.054-0.051 0.093-0.145 0.121-0.282l-0.242 0.121zm-3.719-0.039c-0.106-0.105-0.254-0.199-0.442-0.281l-0.16-0.039c-0.293-0.027-0.652-0.012-1.078 0.039-0.133 0.055-0.281 0.094-0.441 0.121l0.203 0.121c0.183 0.133 0.305 0.211 0.359 0.239 0.078 0.027 0.199 0.027 0.36 0 0-0.133 0.054-0.215 0.16-0.239 0.211-0.054 0.414-0.054 0.597 0l0.442 0.039zm0.199-0.238c-0.027 0.078-0.039 0.156-0.039 0.238 0.535 0.106 0.945 0.215 1.238 0.321 0.188 0.05 0.348 0.132 0.481 0.238 0.082 0.027 0.176-0.051 0.281-0.238v-0.719c-0.078-0.027-0.145-0.055-0.199-0.082l-0.242-0.039c-0.852-0.215-1.36-0.121-1.52 0.281z" inkscape:connector-curvature="0"/>
      <path id="path16" style="fill-rule:evenodd;fill:#6d7247" d="m49.762 35.278c1.812-1.067 2.652-1.852 2.515-2.36 0.028 0.16-0.023 0.336-0.156 0.52-0.293 0.429-1.082 1.043-2.359 1.84zm0.718-3.477c-0.054-0.562 0.481-0.801 1.598-0.723h0.723c-0.774-0.054-1.321-0.054-1.641 0-0.508 0.055-0.734 0.293-0.68 0.723zm-6.921 9.238-0.52-0.039c-0.906-0.082-1.531-0.265-1.879-0.562 0.028-0.133 0.266-0.504 0.719-1.117 0-0.161 0.055-0.297 0.16-0.403 0.188-0.078 0.359-0.199 0.52-0.359 0.425-0.692-0.012-1-1.321-0.918 0.133-0.109 0.52-0.32 1.16-0.641 0.536-0.347 0.668-0.668 0.403-0.961-0.215-0.238-0.867-0.199-1.961 0.121 0.691-0.429 0.972-0.906 0.84-1.441l-1.121-0.039c0.242-0.055 0.429-0.242 0.562-0.563 0.106-0.316 0.051-0.558-0.16-0.718-0.16-0.133-0.441-0.16-0.84-0.078-0.375 0.05-0.641 0.144-0.801 0.277-0.109-0.023-0.175-0.16-0.199-0.398-0.055-0.321-0.094-0.493-0.121-0.52-0.215-0.293-0.602-0.359-1.16-0.199-0.774 0.133-1.16 0.636-1.16 1.519-0.188-0.082-0.305-0.242-0.36-0.48-0.242-0.453-0.597-0.695-1.082-0.719-0.746-0.187-1.226-0.148-1.437 0.117-0.055 0.106 0.066 0.414 0.359 0.922 0.32 0.504 0.492 0.785 0.52 0.84 0.265 0.32 0.465 0.547 0.597 0.68-0.183-0.133-0.425-0.254-0.718-0.36-0.399-0.109-0.747-0.133-1.039-0.082-0.133 0.403-0.012 0.828 0.359 1.282 0.133 0.132 0.48 0.453 1.043 0.96-0.508-0.242-1.149-0.308-1.922-0.203l0.078 0.16c0.215 0 0.43 0.055 0.645 0.161 0.078 0.054 0.156 0.148 0.238 0.281 0.078 0.16 0.148 0.266 0.199 0.32 0.082 0.055 0.215 0.078 0.402 0.078 0.184-0.023 0.305-0.023 0.36 0 0.183 0.11 0.305 0.364 0.359 0.762 0.078-0.027 0.199-0.012 0.36 0.039l0.238 0.242 0.441 0.2c-0.105-0.161-0.187-0.348-0.242-0.559 0.215-0.137 0.484-0.176 0.801-0.121-0.371-0.106-0.719-0.266-1.039-0.481-0.348-0.238-0.492-0.453-0.442-0.64 0.375 0 0.59-0.039 0.641-0.121-0.184-0.344-0.277-0.547-0.277-0.598-0.055-0.188 0.05-0.348 0.316-0.48 0.32-0.161 0.75-0.122 1.281 0.121 0.426 0.211 0.719 0.453 0.879 0.718-0.078-0.16-0.117-0.414-0.117-0.761 0-0.266 0.012-0.411 0.039-0.438 0.028-0.055 0.16-0.094 0.402-0.121 0.399-0.078 0.653 0 0.758 0.238 0.082 0.16 0.106 0.442 0.082 0.844 0.078-0.055 0.184-0.094 0.321-0.121 0.132 0 0.222 0.039 0.277 0.121 0.266 0.293 0.055 0.719-0.641 1.277-0.797 0.508-1.265 0.813-1.398 0.922 0.691-0.109 1.078-0.148 1.16-0.121 0.348 0.055 0.52 0.321 0.52 0.801 0 0.293-0.121 0.492-0.36 0.598-0.215 0.082-0.48 0.082-0.801 0 0.028 0.027 0.082 0.109 0.161 0.242l0.16 0.121 0.84 0.359h-0.082l-0.2 0.039c0.215-0.027 0.469-0.039 0.762-0.039 0.453 0 0.785-0.054 1-0.16 0.293 0.481 1.09 0.625 2.399 0.438 0-0.078 0.015-0.161 0.039-0.239zm-24.079 1.961c-0.027 0.239-0.015 0.481 0.04 0.719 0.507-0.051 0.828-0.293 0.96-0.719-0.105 0.907 0.133 1.453 0.719 1.641 0.426 0.133 0.828 0.066 1.199-0.203 0.321-0.184 0.524-0.453 0.602-0.797-0.133 0.664-0.078 1.199 0.16 1.598-0.105 0.132-0.148 0.265-0.121 0.402v0.437c0.375-0.054 0.574-0.078 0.602-0.078-0.641 0.586-1.121 1.051-1.442 1.399-0.558 0.668-0.64 1.242-0.238 1.718 0.426 0.508 1.238 0.442 2.437-0.199-0.371 0.961-0.132 1.387 0.723 1.282 0.824-0.106 1.399-0.508 1.719-1.2-0.051 0.133-0.067 0.293-0.039 0.481v0.519c1.121 0.078 2.387-0.281 3.801-1.082 0.05 0.133 0.16 0.282 0.32 0.442 0.183 0.215 0.289 0.332 0.316 0.359 0.321-0.426 0.602-0.879 0.84-1.359l-0.957-0.039c0.051-0.403-0.269-0.774-0.961-1.121 0.16-0.083 0.481-0.161 0.961-0.243 0.371-0.132 0.531-0.343 0.481-0.636-0.028-0.243-0.161-0.375-0.403-0.403-0.347-0.051-0.558-0.105-0.64-0.16 0.109-0.051 0.429-0.117 0.961-0.199 0.425-0.078 0.734-0.188 0.918-0.32 0.242-0.188 0.347-0.305 0.32-0.36-0.024-0.054-0.012-0.133 0.043-0.238 0.078-0.215 0.226-0.524 0.437-0.922 0.082-0.266 0.11-0.68 0.082-1.238 0-0.641-0.093-0.989-0.281-1.043 0.238-0.852 0.199-1.414-0.117-1.68-0.188-0.133-0.484-0.16-0.883-0.078l-0.918 0.16c-0.187-0.293-0.348-0.48-0.48-0.562-0.188-0.133-0.442-0.161-0.762-0.078-0.16 0.027-0.266 0.054-0.32 0.078-0.106 0.027-0.184 0.109-0.239 0.242-0.105-0.188-0.281-0.496-0.519-0.922-0.266-0.344-0.574-0.414-0.922-0.199-0.156 0.082-0.238 0.226-0.238 0.441 0 0.293-0.028 0.492-0.082 0.598-0.161 0.32-0.387 0.32-0.68 0l-0.68-0.68c-0.344-0.133-0.531-0.066-0.558 0.199 0.054 0.403 0.054 0.684 0 0.844-0.161 0.051-0.348-0.016-0.563-0.203l-0.437-0.438c-0.348-0.214-0.707-0.32-1.082-0.32-0.161 0.211-0.227 0.574-0.2 1.078 0.082 0.535 0.106 0.907 0.082 1.121-0.828-0.535-1.562-0.718-2.203-0.558-0.133 0.211-0.16 0.519-0.078 0.918 0.078 0.558 0.121 0.879 0.121 0.961-0.242-0.106-0.426-0.188-0.562-0.243-0.266-0.078-0.465-0.066-0.598 0.043-0.187 0.106-0.187 0.481 0 1.118l-0.641-0.278zm-1.121-3.16c0.082-0.215 0.375-0.762 0.879-1.64 0.403-0.774 0.375-1.161-0.078-1.161-0.027-0.187-0.027-0.48 0-0.879-0.535-0.054-0.922 0.012-1.16 0.2 0.105-0.106 0.188-0.309 0.238-0.602 0.082-0.32 0.067-0.519-0.039-0.598-0.105-0.109-0.226-0.109-0.359 0l-0.078 0.079c0.078-0.504 0.066-1.028-0.043-1.559-0.293-0.027-0.614 0.039-0.957 0.199-0.375 0.16-0.617 0.36-0.723 0.602 0.242-1.043-0.051-1.508-0.879-1.403-0.535 0.106-0.812 0.442-0.84 1-0.027-0.211-0.132-0.414-0.32-0.597-0.266-0.242-0.559-0.27-0.879-0.082-0.187 0.105-0.266 0.281-0.242 0.519v0.641c-0.293-0.133-0.492-0.121-0.598 0.039-0.054 0.109-0.093 0.32-0.121 0.641-0.082-0.239-0.305-0.36-0.68-0.36s-0.625 0.121-0.761 0.36c0-0.051 0.043-0.36 0.121-0.918 0.027-0.321 0.015-0.496-0.039-0.52-0.133-0.055-0.293-0.094-0.481-0.121-0.242-0.055-0.386-0.133-0.441-0.242-0.078-0.16-0.184-0.266-0.32-0.321-0.161-0.078-0.348-0.066-0.559 0.043-0.188 0.079-0.32 0.2-0.398 0.36-0.082-0.055-0.137-0.176-0.161-0.36-0.054-0.16-0.148-0.253-0.281-0.281-0.238-0.027-0.48 0.238-0.719 0.801 0-0.293-0.109-0.496-0.32-0.602-0.242-0.105-0.508-0.093-0.801 0.039-0.215 0.11-0.32 0.243-0.32 0.403-0.105-0.508-0.625-0.707-1.559-0.602-1.043 0.106-1.347 0.36-0.921 0.762l-0.399 0.039c-0.082-0.375 0.094-0.707 0.52-1-0.829 0.508-0.852 1.055-0.082 1.641 0.773 0.586 1.336 0.652 1.679 0.199-0.05 0.133-0.078 0.254-0.078 0.359v0.082l-0.039 0.321 0.078 0.839c2.641 0.211 4.36 0.094 5.16-0.359-0.027 0.453 0 0.973 0.082 1.559 0.211 0.078 0.426 0.121 0.637 0.121-0.105 0.586 0.016 1.023 0.363 1.32 0.028-0.055 0.079-0.137 0.161-0.242-0.137-0.133-0.188-0.254-0.161-0.359 0.504-0.243 1.028-0.282 1.559-0.122-0.426-0.531-0.586-0.945-0.48-1.238 0.105-0.293 0.308-0.348 0.601-0.16 0.184 0.133 0.371 0.332 0.559 0.598 0.054-0.161 0.054-0.493 0-1 0-0.426 0.132-0.664 0.398-0.719 0.297-0.078 0.481 0.066 0.563 0.441 0.054 0.426 0.093 0.707 0.121 0.84 0.183-0.133 0.449-0.215 0.797-0.242 0.347-0.051 0.601-0.012 0.761 0.121 0.028 0.375 0.012 0.613-0.039 0.719-0.054 0.137-0.254 0.242-0.601 0.32 0.082 0.082 0.465 0.121 1.16 0.121 0.508 0 0.734 0.215 0.68 0.641-0.051 0.265-0.254 0.426-0.598 0.48-0.16 0.024-0.496 0.024-1 0 0.051 0.024 0.105 0.133 0.156 0.321 0.16 0.398-0.012 0.746-0.519 1.039-0.504 0.293-0.907 0.453-1.2 0.48 0.243 0.774 0.696 0.961 1.36 0.559 0.668-0.426 0.976-1.028 0.922-1.801 0.32 0.508 0.894 0.586 1.718 0.242zm-16.48-9.121c0.266-0.055 0.519-0.094 0.762-0.121-1.172 0.082-2.055 0.293-2.641 0.641 0.398-0.215 1.027-0.387 1.879-0.52zm15.562-0.359-0.761-0.082 0.082 0.082h0.679zm0.797 0.558v-0.039l-0.039 0.321 0.039-0.282zm17.961 13c0 0.082 0.016 0.176 0.039 0.282l-0.16 0.078h0.16l0.043 0.562v0.16c0.028-0.425 0-0.789-0.082-1.082zm-0.121-0.199c-0.051-0.078-0.117-0.16-0.199-0.238l0.082 0.117c0.051 0.055 0.094 0.094 0.117 0.121zm0.641-2.801v0.082h0.082l-0.082-0.082zm1.761 1h-0.441l0.441 0.082v0.039h0.161c0.187 0.055 0.347 0.133 0.48 0.239-0.187-0.161-0.48-0.278-0.883-0.36 0.696 0.082 0.977-0.183 0.84-0.801 0.082 0.481-0.117 0.75-0.598 0.801zm-0.519-1.758h0.238l-0.078-0.043-0.121-0.359h-0.32l0.242 0.121c-0.137 0.055-0.121 0.145 0.039 0.281zm-3.602-1.402c0.028 0.242 0.055 0.426 0.082 0.563h0.039c-0.027-0.137-0.066-0.321-0.121-0.563zm-3.8-9.957 0.363-0.082c0.133-0.027 0.266-0.051 0.398-0.078-0.293 0-0.547 0.051-0.761 0.16zm-24.719-3.684c-0.051 0.458 0.148 0.829 0.601 1.122-0.269-0.215-0.429-0.387-0.48-0.52l-0.121-0.602 0.879-0.238c0.16-0.027 0.308-0.066 0.441-0.121-0.375 0.082-0.812 0.199-1.32 0.359zm22.519 22.403c0.055 0.773 0.028 1.238-0.082 1.398-0.265 0.321-0.597 0.227-1-0.277-0.316-0.402-0.504-0.774-0.558-1.121-0.078 0.238-0.145 0.426-0.199 0.558-0.082 0.243-0.2 0.375-0.36 0.403-0.265 0.051-0.656-0.281-1.16-1-0.215 0.664-0.348 1.039-0.402 1.117-0.239 0.48-0.504 0.508-0.797 0.082l-0.121-0.441c-0.188-0.215-0.16-0.465 0.082-0.758 0.16-0.137 0.383-0.336 0.679-0.602 0.161-0.027 0.266-0.148 0.321-0.359 0.023-0.082 0.023-0.16 0-0.242-0.028-0.078 0-0.145 0.078-0.2-0.028-0.054-0.145-0.16-0.36-0.32-0.16-0.133-0.253-0.254-0.281-0.359-0.027-0.215 0.028-0.399 0.16-0.559 0.161-0.133 0.348-0.16 0.563-0.082-0.348-0.348-0.535-0.613-0.563-0.801l-0.558-0.039v-0.879c-0.856 0.215-1.496 0.293-1.922 0.239-0.133-0.453 0.226-0.719 1.082-0.797 0.851-0.055 1.332 0.051 1.437 0.32-0.05-0.297-0.05-0.508 0-0.641 0.641-0.136 1.028 0.067 1.161 0.598-0.079-0.586 0.242-1.027 0.961-1.32 0.668-0.266 1.335-0.332 2-0.199 0.054 0.187 0.054 0.441 0 0.761-0.082 0.399-0.122 0.664-0.122 0.801 0.723-0.16 1.321-0.187 1.801-0.082v0.441c-0.078 0.293-0.304 0.532-0.679 0.719-0.454 0.16-0.786 0.281-1 0.36 0 0.132 0.226 0.253 0.679 0.359 0.403 0.109 0.574 0.348 0.52 0.723-0.028 0.211-0.133 0.347-0.321 0.398 0.321 0.055 0.524 0.133 0.602 0.238 0.105 0.137 0.148 0.403 0.121 0.801-0.027 0.402-0.109 0.652-0.242 0.762-0.106 0.078-0.32 0.121-0.641 0.121-0.293 0-0.586-0.043-0.879-0.121zm-16.718-9 0.039-0.039c0.027-0.055 0.054-0.121 0.082-0.203-0.055 0.535 0.023 0.961 0.238 1.281-0.828 0.961-0.855 1.586-0.078 1.879 0.797 0.32 1.586 0.054 2.359-0.797l-0.242 0.199-0.039 0.039-0.238 0.199c-0.297 0.133-0.535 0.188-0.723 0.161-0.078-0.321-0.094-0.664-0.039-1.039s0.16-0.641 0.32-0.801c-0.105 0.054-0.254 0.054-0.441 0l0.082-0.199c-0.508-0.083-0.906-0.243-1.199-0.481l0.039-0.602c-0.028 0.11-0.082 0.243-0.16 0.403zm-4.922-2.481c-0.239 0.028-0.492 0.012-0.758-0.039-0.375-0.082-0.563-0.215-0.563-0.402-0.023-0.184 0.149-0.305 0.524-0.359-0.375-0.133-0.508-0.348-0.402-0.641 0.105-0.266 0.546-0.387 1.32-0.359 0.773 0.027 1.121 0.242 1.039 0.64 0.133-0.398 0.574-0.574 1.32-0.519 0.055 0.398-0.011 0.652-0.199 0.757 0.559-0.183 0.906-0.171 1.039 0.043 0.133 0.239 0.016 0.532-0.359 0.879-0.535 0.133-1.282 0.2-2.239 0.2l-0.722-0.2zm2.082-6.121c-0.164 0.235-0.192 0.492-0.082 0.782-0.024-0.075-0.039-0.161-0.039-0.262v-0.199c0.027-0.106 0.066-0.215 0.121-0.321zm0.199-4.879c0-0.082 0.012-0.16 0.039-0.238-0.051 0.133-0.066 0.293-0.039 0.477v-0.239zm1.801-0.48c0.054 0.027 0.121 0.055 0.199 0.082l1.48 0.476c-0.613-0.238-1.175-0.425-1.679-0.558zm2.437-0.559c-0.004 0.094-0.015 0.176-0.039 0.239-0.027 0.32-0.16 0.562-0.398 0.718 0.277-0.175 0.426-0.496 0.437-0.957zm6.961 6.078h0.039l0.043-0.039-0.082 0.039zm-5.64-1.238-0.079 0.039 0.122 0.321-0.043-0.36zm-3.637-0.121c0.051-0.027 0.316-0.066 0.797-0.121 0.242 0 0.574-0.051 1-0.16l0.402-0.278c0.531-0.585 0.227-0.773-0.922-0.562 0.028-0.266-0.172-0.398-0.597-0.398-0.481 0.054-0.801 0.066-0.961 0.039 0-0.321-0.215-0.481-0.641-0.481-0.508 0.109-0.84 0.16-1 0.16-0.426-0.051-0.734-0.093-0.922-0.117-0.371 0-0.652 0.133-0.84 0.399-0.211-0.083-0.543-0.094-1-0.04-0.05 0.239 0.016 0.481 0.203 0.719-0.187 0.078-0.375 0.145-0.562 0.199 0.187-0.027 0.387-0.093 0.601-0.199 0.028 0.028 0.04 0.055 0.04 0.078 0.082 0.11 0.187 0.215 0.32 0.321l-0.238-0.039v0.082l0.597 0.117c-0.027 0.082-0.011 0.215 0.039 0.402 0.055 0.211 0.082 0.348 0.082 0.399 0.426 0.105 0.868 0.121 1.321 0.039 0.425-0.106 0.773-0.293 1.039-0.559 0.027 0.133 0.105 0.266 0.242 0.398l-0.16-0.238 0.039-0.16h-0.121c-0.481 0.027-0.868 0.027-1.16 0-0.586 0-0.961-0.105-1.122-0.32-0.132-0.188 0.067-0.332 0.602-0.442 0.453-0.105 0.922-0.144 1.398-0.117 0.243-0.105 0.602-0.16 1.082-0.16 0.454 0 0.747 0.027 0.879 0.078 0 0.402-0.144 0.723-0.437 0.961zm-1.82 0.961h-0.024l-0.058 0.059c0.023-0.02 0.05-0.039 0.082-0.059z" inkscape:connector-curvature="0"/>
      <path id="path18" style="fill-rule:evenodd;fill:#4e512f" d="m29.801 29.16-0.481-0.16c0.16 0.559 0.16 1.039 0 1.438-0.16 0.453-0.453 0.629-0.882 0.519-0.051-0.531-0.438-0.824-1.161-0.879-0.558-0.054-0.906 0.028-1.039 0.243-0.078 0.105-0.105 0.464-0.078 1.078-0.16-0.293-0.293-0.481-0.402-0.559-0.16-0.133-0.387-0.199-0.68-0.199-0.453-0.027-0.746 0.066-0.879 0.277-0.133 0.348-0.281 0.641-0.441 0.883-0.051-0.109-0.078-0.363-0.078-0.762 0-0.293-0.133-0.464-0.403-0.519-0.183-0.055-0.398-0.016-0.636 0.121h0.078c0.027 0.133-0.012 0.371-0.121 0.719-0.078 0.347-0.094 0.597-0.039 0.757 0.187 0 0.468-0.011 0.839-0.039 0.293 0 0.469 0.122 0.52 0.36 0.109 0.508-0.145 0.816-0.758 0.922 0.879-0.082 0.652 0.679-0.68 2.281 0.079-0.027 0.438-0.082 1.079-0.16 0.453-0.055 0.8-0.149 1.039-0.281-0.078-0.133-0.2-0.321-0.36-0.559 0.242-0.109 0.586-0.16 1.039-0.16 0.508 0 0.856-0.028 1.043-0.082 0-0.133-0.054-0.399-0.16-0.801-0.082-0.371-0.055-0.613 0.078-0.719 0.375-0.238 0.735-0.027 1.082 0.641 0.028-0.16 0.028-0.403 0-0.719 0.028-0.269 0.145-0.457 0.36-0.562 0.105-0.051 0.308-0.079 0.597-0.079 0.27 0 0.457 0.024 0.563 0.079 0.187 0.082 0.32 0.175 0.398 0.281l0.2 0.437c-0.024-0.343 0.07-0.636 0.281-0.879 0.215-0.265 0.508-0.437 0.883-0.519 1.039-0.215 1.918-0.227 2.636-0.039-0.371-0.106-0.652-0.215-0.84-0.32-0.343-0.161-0.586-0.387-0.718-0.68 0.215-0.215 0.629-0.309 1.242-0.281 0.48 0.027 0.906 0.105 1.277 0.242 0-0.27 0.016-0.43 0.043-0.481 0.024-0.054 0.16-0.109 0.399-0.16 0.32-0.105 0.586-0.066 0.8 0.117 0.161 0.16 0.266 0.348 0.321 0.563 0-0.453 0.265-0.762 0.8-0.922 0.344-0.106 0.704-0.16 1.079-0.16 0.507-0.024 0.785 0.082 0.839 0.32 0.215-0.211 0.602-0.293 1.161-0.238 0.105 0.586 0 1.094-0.321 1.519 0.321-0.265 0.653-0.371 1-0.32 0.215 0.055 0.321 0.16 0.321 0.32 0 0.239 0.027 0.387 0.082 0.442 0.132 0.105 0.398 0.078 0.8-0.082 0.426-0.16 0.719-0.199 0.879-0.121 0.16 0.109 0.239 0.32 0.239 0.64-0.028 0.453-0.028 0.723 0 0.801 0.16-0.051 0.535-0.199 1.121-0.441 0.558-0.211 0.933-0.2 1.117 0.043 0.187 0.238 0.16 0.504-0.078 0.796-0.215 0.27-0.453 0.469-0.719 0.602 0.184 0.082 0.547 0.094 1.078 0.039 0.641-0.051 1.016-0.078 1.121-0.078 0.082 0.48 0.094 0.785 0.039 0.918-0.078 0.242-0.265 0.426-0.558 0.562-0.375 0.133-0.641 0.25-0.801 0.36 0 0.133 0.121 0.254 0.359 0.359 0.242 0.133 0.336 0.305 0.282 0.52-0.028 0.293-0.309 0.535-0.84 0.718-0.586 0.137-0.989 0.243-1.2 0.321 0.028 0.215 0.04 0.375 0.04 0.48 0.027 0.215 0.011 0.375-0.04 0.481-0.187 0.133-0.308 0.254-0.359 0.359-0.187 0.453 0.024 1.109 0.637 1.961l0.082 0.039c0.769-0.027 1.238-0.277 1.398-0.758 0.028-0.054 0.039-0.093 0.039-0.121v-0.039c0-0.055 0.016-0.121 0.039-0.199-0.023-0.43-0.25-0.973-0.679-1.641 1.015-0.402 2.695-1.308 5.043-2.722 1.277-0.797 2.066-1.411 2.359-1.84l-0.242-0.117-1.438 0.117c-1.468 0.215-2.679 0.668-3.64 1.363-0.348-0.641 0.652-1.363 3-2.16 0.078-0.215 0.121-0.414 0.121-0.602l0.558-0.121v-0.117c-0.054-0.43 0.172-0.668 0.68-0.723v-0.878c-0.453-0.083-0.972-0.083-1.558 0-0.696 0.078-1.176 0.226-1.442 0.441-0.187 0.16-0.254 0.371-0.199 0.637-0.055-0.293-0.176-0.52-0.359-0.68-0.215-0.211-0.497-0.227-0.84-0.039-0.188 0.082-0.27 0.281-0.242 0.601 0.027 0.399 0.015 0.653-0.04 0.758-0.16 0.028-0.253-0.183-0.281-0.64 0-0.532-0.027-0.825-0.078-0.879-0.215-0.215-0.68-0.282-1.402-0.199-0.508 0.078-0.985 0.187-1.442 0.32 0.27-0.453 0.762-0.707 1.485-0.762 0.078-0.027 0.265-0.027 0.558 0 0.239-0.027 0.371-0.105 0.399-0.238 0.133-0.375-0.281-0.574-1.239-0.602-1.066 0.082-1.652 0.121-1.761 0.121-0.051-0.054-0.117-0.265-0.199-0.64-0.028-0.188-0.254-0.305-0.68-0.36-1.254-0.187-1.828 0.012-1.719 0.602-0.109-0.082-0.254-0.215-0.441-0.402-0.215-0.133-0.414-0.227-0.602-0.282-0.371-0.105-0.773-0.144-1.199-0.117-0.531 0.051-0.906 0.184-1.117 0.399l0.316 0.921c-0.371-0.48-1.133-0.496-2.277-0.043 0.051 0.188 0.078 0.321 0.078 0.403 0 0.105-0.067 0.187-0.199 0.238-0.106 0.027-0.254 0-0.442-0.078l-0.437-0.16c-0.883-0.188-1.735-0.149-2.563 0.121-0.961 0.293-1.519 0.824-1.679 1.598 0-0.188-0.012-0.532-0.039-1.039 0.027-0.454 0.121-0.801 0.281-1.04zm9.758 11.84-0.879-0.16c0 0.453-0.067 0.813-0.2 1.078 0.481-0.051 0.68-0.32 0.598-0.801 0.082-0.023 0.176-0.05 0.281-0.078l0.2-0.039zm-5.118-1.679c-0.214-0.137-0.453-0.204-0.718-0.204 0.05 0.083 0.105 0.403 0.156 0.961 0.133 0.028 0.309 0.039 0.519 0.039 0.188 0.028 0.321 0.137 0.403 0.321l0.039 0.242c0.265-0.242 0.348-0.496 0.238-0.762-0.078-0.238-0.277-0.437-0.598-0.597 0.375-0.375 0.641-0.575 0.801-0.602-0.054-0.398-0.176-0.652-0.359-0.762-0.055-0.023-0.176-0.023-0.36 0-0.187 0-0.32-0.023-0.402-0.078-0.051-0.054-0.121-0.16-0.199-0.32-0.082-0.133-0.16-0.227-0.238-0.281-0.215-0.106-0.43-0.161-0.645-0.161-0.504 0-0.851 0.094-1.039 0.282l1.199-0.039c0.453 0.027 0.762 0.265 0.922 0.718 0 0.028 0.012 0.039 0.039 0.039v0.043c0 0.024 0.016 0.04 0.039 0.04l0.121 0.558c0.055 0.242 0.094 0.426 0.121 0.563h-0.039zm-24.363-7.52c-0.266-0.215-0.504-0.336-0.719-0.363-0.265-0.024-0.48 0-0.64 0.082-0.16 0.133-0.305 0.254-0.438 0.359 0-0.347-0.359-0.547-1.082-0.601-0.719-0.078-1.172 0-1.359 0.242-0.106-0.106-0.188-0.309-0.238-0.602l-0.204-0.078c-0.691-0.265-1.613-0.348-2.757-0.242-0.243 0.027-0.496 0.066-0.762 0.121 0.266 0.055 0.48 0.133 0.641 0.238 0.082 0.055 0.175 0.203 0.281 0.442 0.078 0.187 0.172 0.293 0.277 0.32 0.535-0.051 0.961-0.078 1.281-0.078 0.586 0 1.028 0.039 1.321 0.117 0.453 0.109 0.695 0.375 0.718 0.801 0.082-0.027 0.215-0.094 0.403-0.199 0.16-0.133 0.304-0.215 0.437-0.243 0.188-0.05 0.602-0.05 1.242 0l0.04 0.364c0.132-0.508 0.652-0.735 1.558-0.68zm10-1.601h0.043v0.078c-0.027 0.16-0.043 0.281-0.043 0.363 0 0.133 0.055 0.238 0.16 0.316l1.16-0.277 0.442-0.039c-0.051-0.32-0.199-0.547-0.442-0.684-0.421-0.183-0.796-0.156-1.117 0.082l-0.043 0.039h-0.039l0.082-0.039c0.11-0.089 0.281-0.382 0.52-0.879 0.371-0.293 0.801-0.414 1.277-0.359 0.215 0.024 0.348 0.078 0.402 0.156 0.079 0.137 0.161 0.27 0.239 0.403 0.109-0.082 0.215-0.227 0.32-0.442 0.106-0.265 0.199-0.437 0.281-0.519l-0.039-0.559c-0.695-0.16-1.066-0.105-1.121 0.16 0.028-0.613-0.105-1.16-0.398-1.64-0.375-0.614-0.895-0.934-1.563-0.961-0.105 0.133-0.133 0.308-0.078 0.519-0.133-0.48-0.496-1.011-1.082-1.597-0.664-0.641-1.293-0.895-1.879-0.762l-0.039 0.519c-0.293-0.371-0.508-0.625-0.641-0.757-0.32-0.243-0.64-0.321-0.96-0.243-0.266 0.055-0.426 0.254-0.481 0.602-0.027 0.398-0.078 0.691-0.16 0.879-0.133-0.106-0.332-0.281-0.598-0.52-0.242-0.16-0.496-0.226-0.761-0.199l-0.282 0.082v0.078c-0.011 0.465-0.16 0.785-0.437 0.961-0.028 0.133-0.067 0.227-0.121 0.281v-0.082c-0.028-0.027-0.067-0.054-0.121-0.078l-0.079 0.039-1.48-0.48v0.719c-0.105 0.187-0.199 0.265-0.281 0.242-0.133-0.11-0.293-0.188-0.481-0.242-0.293-0.106-0.703-0.211-1.238-0.321v0.243c-0.027-0.082-0.078-0.161-0.16-0.243l-0.442-0.039c-0.183-0.054-0.386-0.054-0.597 0-0.106 0.024-0.16 0.106-0.16 0.239-0.161 0.027-0.282 0.027-0.36 0-0.054-0.028-0.176-0.106-0.359-0.239l-0.203-0.121-0.879 0.238 0.121 0.602c0.184 0.027 0.746 0.082 1.68 0.16 0.691 0.055 1.254 0.16 1.679 0.321-0.082-0.083-0.121-0.176-0.121-0.282 0.293-0.183 0.989-0.293 2.082-0.32 1.172-0.051 1.852 0.082 2.039 0.402-0.027-0.215 0.133-0.32 0.481-0.32 0.293 0 0.547 0.051 0.758 0.16 0.109-0.082 0.175-0.215 0.203-0.402 0.05-0.184 0.144-0.321 0.277-0.399 0.348-0.16 0.789-0.16 1.32 0 0.586 0.161 0.895 0.426 0.922 0.801 0.293-0.402 0.653-0.402 1.078 0 0.403 0.399 0.602 0.801 0.602 1.199 0.426-0.371 0.84-0.492 1.238-0.359 0.188 0.051 0.293 0.094 0.321 0.121 0 0.024 0.027 0.133 0.082 0.316 0.023 0.137 0.05 0.375 0.078 0.723 0 0.399-0.028 0.641-0.078 0.719-0.082 0.082-0.641 0.094-1.68 0.039-0.856 0-1.254 0.269-1.203 0.801-0.453-0.028-0.797-0.028-1.039 0-0.426 0.027-0.746 0.133-0.961 0.32l-0.117 0.121c-0.481-0.133-0.907-0.16-1.282-0.082-0.027 0.242-0.281 0.375-0.761 0.402-0.532 0-0.879 0.012-1.039 0.04-0.051 0.187-0.04 0.347 0.039 0.48h-0.879c-0.215-0.027-0.453-0.188-0.719-0.48-0.266-0.266-0.535-0.426-0.801-0.481-0.265-0.027-0.586 0.066-0.961 0.281 0.028 0.106-0.027 0.2-0.16 0.278l-0.277-0.039h-0.082v0.199c0.64 0.16 1.199 0.508 1.679 1.043-0.027-0.215 0.121-0.321 0.442-0.321 0.293-0.027 0.504 0.024 0.64 0.161 0.211 0.183 0.414 0.664 0.598 1.437l-0.437 0.121 0.117 0.238c0.082 0.403-0.16 0.774-0.719 1.122l2-0.879c-0.16-0.028-0.254-0.243-0.281-0.641-0.051-0.348-0.039-0.586 0.043-0.719 0.16-0.215 0.57-0.32 1.238-0.32 0.559 0 1.012 0.066 1.359 0.199 0-0.453 0.067-0.746 0.2-0.879 0.136-0.133 0.414-0.199 0.839-0.199 0.43 0 0.668-0.055 0.723-0.16-0.055-0.109-0.176-0.203-0.359-0.281l-0.082-0.082c-0.825 0-1.387 0.082-1.68 0.242-0.188 0.105-0.305 0.199-0.359 0.281-0.028 0.078-0.028 0.211 0 0.399l-0.321-0.122c0-0.425 0.094-0.707 0.282-0.839 0.16-0.106 0.492-0.188 1-0.239l0.398-0.043h0.68c0.082 0 0.308 0.055 0.679 0.16 0.293 0.083 0.496 0.094 0.602 0.043 0.027 0 0.051-0.082 0.078-0.242 0.027-0.133 0.066-0.226 0.121-0.277 0.078-0.055 0.227-0.066 0.442-0.043 0.16 0 0.437 0.094 0.839 0.281 0.371 0.188 0.625 0.254 0.758 0.199l-0.121 0.122zm-8.519 2.64c0.054-0.426 0.015-0.68-0.118-0.762-0.082-0.054-0.281-0.054-0.601 0 0.082 0.055 0.105 0.149 0.082 0.282-0.055 0.105-0.027 0.215 0.078 0.32 0.078 0.078 0.188 0.121 0.32 0.121 0.133 0 0.215 0.012 0.239 0.039zm7.921-2.68c-0.453-0.109-0.773-0.054-0.96 0.161-0.079 0.05-0.145 0.183-0.2 0.398 0.239-0.32 0.625-0.508 1.16-0.559zm16.719 13.758h-0.039c-0.027-0.051-0.055-0.117-0.082-0.199-0.023-0.027-0.066-0.066-0.117-0.121-0.082 0.137-0.188 0.215-0.32 0.242l0.64 1-0.043-0.562h-0.16l0.16-0.078c-0.023-0.106-0.039-0.2-0.039-0.282zm-1.359-3.117c0 0.024-0.117 0.316-0.36 0.879 0.243 0.027 0.614 0.039 1.122 0.039 0.05 0.133 0.039 0.266-0.043 0.398-0.266 0.27-0.426 0.458-0.481 0.563 0.215 0.027 0.547 0.051 1 0.078 0.082 0.188 0.067 0.414-0.039 0.68v0.043l1.602-0.203c0.078-0.133 0.117-0.239 0.117-0.321 0.082-0.371-0.184-0.613-0.797-0.718-0.109-0.028-0.574-0.067-1.402-0.122 1.039 0 1.546-0.226 1.519-0.679 0-0.211-0.094-0.36-0.281-0.438h-0.078v-0.082c-0.215-0.105-0.535-0.16-0.961-0.16-0.449 0.027-0.758 0.043-0.918 0.043zm1.879-0.16c0-0.695-0.028-1.094-0.078-1.203-0.082-0.024-0.188-0.106-0.321-0.238h-0.359c0.266 0.585 0.398 1.121 0.398 1.601l0.36-0.16zm-5.797-11.922-0.363 0.082 0.441 0.039-0.078-0.121zm2.598 10.16c0.054-0.695-0.946-0.945-3-0.762v0.723c0.347-0.187 0.851-0.281 1.519-0.281 0.695 0 1.188 0.105 1.481 0.32zm-1.559-1.48c-0.082-0.879-0.32-1.332-0.723-1.36-0.238-0.027-0.426 0.055-0.558 0.239-0.133 0.242-0.254 0.429-0.36 0.562-0.105-0.242-0.254-0.426-0.441-0.562-0.211-0.133-0.438-0.133-0.68 0-0.105 0.082-0.172 0.203-0.199 0.363-0.055 0.184-0.094 0.305-0.121 0.359-0.156-0.109-0.359-0.175-0.598-0.199-0.293-0.027-0.48 0.024-0.558 0.156-0.032 0.028-0.043 0.282-0.043 0.762 0.027-0.105 0.148-0.187 0.359-0.238 0.188-0.028 0.348-0.016 0.481 0.039 0.214 0.133 0.292 0.347 0.242 0.64 0.265-0.347 0.851-0.441 1.758-0.281v0.078c0.32-0.293 0.8-0.476 1.441-0.558z" inkscape:connector-curvature="0"/>
      <path id="path20" style="fill-rule:evenodd;fill:#585d3b" d="m38.68 40.84 0.882 0.16h0.079l-0.84-0.359-0.16-0.121 0.039 0.32zm-2.801-1.84l0.082 0.2h0.359l-0.441-0.2zm-3.84-1.601c0.188-0.188 0.535-0.282 1.039-0.282l-0.078-0.16c0.773-0.105 1.414-0.039 1.922 0.203-0.563-0.507-0.91-0.828-1.043-0.96-0.371-0.454-0.492-0.879-0.359-1.282 0.292-0.051 0.64-0.027 1.039 0.082 0.293 0.106 0.535 0.227 0.718 0.36-0.132-0.133-0.332-0.36-0.597-0.68-0.028-0.055-0.2-0.336-0.52-0.84-0.293-0.508-0.414-0.816-0.359-0.922 0.211-0.265 0.691-0.304 1.437-0.117 0.485 0.024 0.84 0.266 1.082 0.719 0.055 0.238 0.172 0.398 0.36 0.48 0-0.883 0.386-1.386 1.16-1.519 0.558-0.16 0.949-0.094 1.16 0.199 0.027 0.027 0.066 0.199 0.121 0.52 0.024 0.238 0.09 0.375 0.199 0.398 0.16-0.133 0.426-0.227 0.801-0.277 0.399-0.082 0.68-0.055 0.84 0.078 0.211 0.16 0.266 0.402 0.16 0.718-0.133 0.321-0.32 0.508-0.562 0.563l1.121 0.039c0.132 0.535-0.149 1.016-0.84 1.441 1.094-0.32 1.746-0.359 1.961-0.121 0.265 0.293 0.133 0.614-0.403 0.961-0.64 0.321-1.027 0.532-1.16 0.641 1.309-0.082 1.75 0.226 1.321 0.918-0.161 0.16-0.332 0.281-0.52 0.359-0.105 0.106-0.16 0.242-0.16 0.403-0.453 0.613-0.691 0.984-0.719 1.117 0.348 0.297 0.973 0.48 1.879 0.562l0.52 0.039 0.121-0.281h0.242l-0.082-0.039c-0.613-0.852-0.828-1.508-0.641-1.961 0.055-0.105 0.176-0.226 0.36-0.359 0.054-0.106 0.066-0.266 0.043-0.481 0-0.105-0.016-0.265-0.043-0.48 0.214-0.078 0.613-0.184 1.203-0.321 0.531-0.183 0.812-0.425 0.84-0.718 0.05-0.215-0.043-0.387-0.282-0.52-0.242-0.105-0.359-0.226-0.359-0.359 0.16-0.106 0.426-0.227 0.801-0.36 0.293-0.136 0.476-0.32 0.558-0.562 0.051-0.133 0.039-0.438-0.043-0.918-0.105 0-0.476 0.027-1.117 0.078-0.535 0.055-0.894 0.043-1.082-0.039 0.27-0.133 0.508-0.332 0.723-0.602 0.238-0.292 0.265-0.558 0.078-0.796-0.188-0.243-0.559-0.254-1.117-0.043-0.59 0.242-0.961 0.386-1.121 0.441-0.028-0.078-0.028-0.348 0-0.801 0-0.32-0.082-0.531-0.243-0.64-0.16-0.078-0.453-0.039-0.878 0.121-0.399 0.16-0.668 0.187-0.801 0.082-0.051-0.055-0.078-0.203-0.078-0.442 0-0.16-0.11-0.265-0.321-0.32-0.347-0.051-0.679 0.055-1 0.32 0.321-0.425 0.426-0.933 0.321-1.519-0.563-0.055-0.95 0.027-1.161 0.238-0.054-0.238-0.335-0.348-0.839-0.32-0.375 0-0.735 0.054-1.082 0.16-0.532 0.16-0.801 0.469-0.801 0.922-0.051-0.215-0.16-0.403-0.32-0.563-0.211-0.183-0.477-0.226-0.797-0.117-0.243 0.051-0.375 0.106-0.403 0.16-0.027 0.051-0.039 0.211-0.039 0.481-0.375-0.137-0.801-0.215-1.281-0.242-0.613-0.028-1.027 0.066-1.238 0.281 0.132 0.293 0.371 0.519 0.718 0.68 0.188 0.105 0.465 0.214 0.84 0.32-0.718-0.188-1.601-0.176-2.64 0.039-0.371 0.082-0.664 0.254-0.879 0.519-0.215 0.243-0.309 0.536-0.281 0.879l-0.2-0.437c-0.082-0.106-0.215-0.199-0.402-0.281-0.106-0.051-0.293-0.079-0.559-0.079-0.293 0-0.492 0.024-0.601 0.079-0.211 0.105-0.332 0.293-0.356 0.562 0.024 0.316 0.024 0.559 0 0.719-0.347-0.668-0.711-0.879-1.082-0.641-0.133 0.106-0.16 0.348-0.082 0.719 0.11 0.402 0.16 0.668 0.16 0.801-0.183 0.054-0.531 0.082-1.039 0.082-0.453 0-0.8 0.051-1.039 0.16 0.16 0.238 0.282 0.426 0.36 0.559-0.239 0.132-0.586 0.226-1.039 0.281-0.641 0.078-1 0.133-1.082 0.16 1.335-1.602 1.562-2.363 0.679-2.281 0.614-0.106 0.867-0.414 0.762-0.922-0.055-0.238-0.227-0.36-0.52-0.36-0.375 0.028-0.656 0.039-0.839 0.039-0.055-0.16-0.039-0.41 0.039-0.757 0.105-0.348 0.144-0.586 0.121-0.719h-0.082l-0.641 0.398-0.16-0.398-0.438 0.039-1.16 0.277c-0.105-0.078-0.16-0.183-0.16-0.316 0-0.082 0.012-0.203 0.039-0.363v-0.078h-0.039l-0.039 0.039c-0.051 0.054-0.105 0.175-0.16 0.359 0.055-0.238-0.078-0.387-0.399-0.438-0.535 0.051-0.921 0.239-1.16 0.559l-0.082 0.238v-0.039l-0.039 0.282 0.039-0.321c-0.105-0.215-0.371-0.387-0.797-0.519h-0.679c0.183 0.078 0.304 0.172 0.359 0.281-0.055 0.105-0.293 0.16-0.723 0.16-0.425 0-0.703 0.066-0.839 0.199-0.133 0.133-0.2 0.426-0.2 0.879-0.347-0.133-0.8-0.199-1.359-0.199-0.668 0-1.078 0.105-1.238 0.32-0.082 0.133-0.094 0.371-0.043 0.719 0.027 0.398 0.121 0.613 0.281 0.641l-2 0.879c0.559-0.348 0.801-0.719 0.719-1.122l-0.117-0.238h-0.043v-0.039c-0.028-0.027-0.106-0.039-0.239-0.039-0.132 0-0.242-0.043-0.32-0.121-0.105-0.105-0.133-0.215-0.078-0.32 0.023-0.133 0-0.227-0.082-0.282-0.266 0-0.426-0.011-0.481-0.039l-0.281-0.238c-0.906-0.055-1.426 0.172-1.558 0.68l-0.04-0.364c-0.64-0.05-1.054-0.05-1.242 0-0.133 0.028-0.277 0.11-0.437 0.243-0.188 0.105-0.321 0.172-0.403 0.199-0.023-0.426-0.265-0.692-0.718-0.801-0.293-0.078-0.735-0.117-1.321-0.117-0.32 0-0.746 0.027-1.281 0.078-0.105-0.027-0.199-0.133-0.277-0.32-0.106-0.239-0.199-0.387-0.281-0.442-0.161-0.105-0.375-0.183-0.641-0.238-0.852 0.133-1.481 0.305-1.879 0.52l0.441 0.16h-0.203c0 0.695 0.469 1.093 1.403 1.199 0.132 0.027 0.906 0.016 2.32-0.039-0.106 0.055-0.215 0.105-0.32 0.16-0.426 0.293-0.602 0.625-0.52 1l0.399-0.039c-0.426-0.402-0.122-0.656 0.921-0.762 0.934-0.105 1.454 0.094 1.559 0.602 0-0.16 0.105-0.293 0.32-0.403 0.293-0.132 0.559-0.144 0.801-0.039 0.211 0.106 0.32 0.309 0.32 0.602 0.239-0.563 0.481-0.828 0.719-0.801 0.133 0.028 0.227 0.121 0.281 0.281 0.028 0.184 0.079 0.305 0.161 0.36 0.078-0.16 0.21-0.281 0.398-0.36 0.215-0.109 0.398-0.121 0.559-0.043 0.136 0.055 0.242 0.161 0.32 0.321 0.055 0.109 0.199 0.187 0.441 0.242 0.188 0.027 0.348 0.066 0.481 0.121 0.054 0.024 0.066 0.199 0.039 0.52-0.078 0.558-0.121 0.863-0.121 0.918 0.136-0.239 0.386-0.36 0.761-0.36s0.598 0.121 0.68 0.36c0.028-0.321 0.067-0.532 0.121-0.641 0.106-0.16 0.305-0.172 0.598-0.039v-0.641c-0.024-0.238 0.055-0.414 0.242-0.519 0.32-0.188 0.613-0.16 0.879 0.082 0.188 0.183 0.293 0.386 0.32 0.597 0.028-0.558 0.305-0.894 0.84-1 0.828-0.105 1.121 0.36 0.879 1.403 0.106-0.242 0.348-0.442 0.723-0.602 0.343-0.16 0.664-0.226 0.957-0.199 0.109 0.531 0.121 1.051 0.043 1.559l0.078-0.079c0.133-0.109 0.254-0.109 0.359 0 0.106 0.079 0.121 0.278 0.039 0.598-0.05 0.293-0.133 0.496-0.238 0.602 0.238-0.188 0.625-0.254 1.16-0.2-0.027 0.399-0.027 0.692 0 0.879 0.453 0 0.481 0.387 0.078 1.161-0.504 0.878-0.797 1.425-0.879 1.64v0.039c0.801-0.32 1.309-0.719 1.52-1.199v0.078c-0.024 0.055-0.039 0.121-0.039 0.199 0 0.137 0.015 0.282 0.039 0.442 0.027 0.105 0.066 0.199 0.121 0.281 0.027 0.051 0.066 0.105 0.121 0.16l0.039 0.039 0.039 0.078c0.106 0.348 0.106 0.696 0 1.043-0.187 0.399-0.332 0.735-0.437 1-0.188 0.371-0.297 0.707-0.321 1h0.039l0.641 0.278c-0.187-0.637-0.187-1.012 0-1.118 0.133-0.109 0.332-0.121 0.598-0.043 0.136 0.055 0.32 0.137 0.562 0.243 0-0.082-0.043-0.403-0.121-0.961-0.082-0.399-0.055-0.707 0.078-0.918 0.641-0.16 1.375 0.023 2.203 0.558 0.028-0.214 0-0.586-0.082-1.121-0.027-0.504 0.039-0.867 0.2-1.078 0.375 0 0.734 0.106 1.082 0.32l0.437 0.438c0.215 0.187 0.402 0.254 0.563 0.203 0.054-0.16 0.054-0.441 0-0.844 0.027-0.265 0.214-0.332 0.558-0.199l0.68 0.68c0.293 0.32 0.519 0.32 0.68 0 0.054-0.106 0.082-0.305 0.082-0.598 0-0.215 0.082-0.359 0.238-0.441 0.348-0.215 0.656-0.145 0.922 0.199 0.238 0.426 0.414 0.734 0.519 0.922 0.051-0.133 0.133-0.215 0.239-0.242 0.054-0.024 0.16-0.051 0.32-0.078 0.32-0.083 0.574-0.055 0.762 0.078 0.132 0.082 0.293 0.269 0.48 0.562l0.918-0.16c0.399-0.082 0.695-0.055 0.883 0.078 0.316 0.266 0.355 0.828 0.117 1.68 0.188 0.054 0.281 0.402 0.281 1.043 0.028 0.558 0 0.972-0.082 1.238-0.211 0.398-0.359 0.707-0.437 0.922-0.055 0.105-0.067 0.184-0.039 0.238 0.023 0.055-0.082 0.172-0.321 0.36-0.187 0.132-0.496 0.242-0.921 0.32-0.532 0.082-0.852 0.148-0.958 0.199 0.079 0.055 0.293 0.109 0.637 0.16 0.242 0.028 0.375 0.16 0.403 0.403 0.05 0.293-0.11 0.504-0.481 0.636-0.48 0.082-0.801 0.16-0.961 0.243 0.695 0.347 1.016 0.718 0.961 1.121l0.957 0.039c0.11-0.243 0.215-0.481 0.32-0.719l2.442-1.203c0.398 0.082 0.707 0 0.922-0.238 0.16-0.215 0.211-0.465 0.16-0.762 0.023 0.082 0.105 0.16 0.238 0.242 0.051-0.242 0.094-0.469 0.117-0.68v-0.16l-0.636-1c0.132-0.027 0.238-0.105 0.32-0.242l-0.082-0.117h0.16v-0.043c0.109-0.266 0.121-0.492 0.039-0.68-0.449-0.027-0.785-0.051-1-0.078 0.055-0.105 0.215-0.293 0.484-0.563 0.079-0.132 0.09-0.265 0.04-0.398-0.508 0-0.879-0.012-1.122-0.039 0.243-0.563 0.36-0.855 0.36-0.879l-0.121-0.043 0.121-0.078-0.039-0.242c-0.082-0.184-0.215-0.293-0.403-0.321-0.21 0-0.386-0.011-0.519-0.039-0.051-0.558-0.106-0.878-0.16-0.961l-0.239-0.039v-0.078l0.04-0.121c-0.293-0.215-0.786-0.32-1.481-0.32-0.664 0-1.172 0.094-1.519 0.281v-0.723l-0.161 0.043 0.161-0.203v-0.078c-0.907-0.16-1.493-0.066-1.758 0.281 0.05-0.293-0.028-0.507-0.242-0.64-0.133-0.055-0.293-0.067-0.481-0.039-0.211 0.051-0.332 0.133-0.359 0.238 0-0.48 0.015-0.734 0.043-0.762 0.078-0.132 0.265-0.183 0.558-0.156 0.239 0.024 0.442 0.09 0.598 0.199 0.027-0.054 0.066-0.175 0.121-0.359 0.027-0.16 0.094-0.281 0.199-0.363 0.242-0.133 0.469-0.133 0.68 0 0.187 0.136 0.336 0.32 0.441 0.562 0.106-0.133 0.227-0.32 0.36-0.562 0.132-0.184 0.32-0.266 0.558-0.239 0.403 0.028 0.641 0.481 0.723 1.36h0.078zm4.68 3.242c0.535-0.297 0.949-0.453 1.242-0.481-0.16-0.136-0.176-0.226-0.039-0.281l-0.242-0.121c-0.399 0-0.746-0.105-1.039-0.32 0.05 0.109 0.078 0.508 0.078 1.203zm-25.797-11.922c-0.242 0.215-0.574 0.348-1 0.398l0.156 0.161c0.16 0.187 0.363 0.363 0.602 0.523-0.215-0.109-0.414-0.187-0.602-0.242l-0.316-0.039c-0.137 0-0.254 0.012-0.364 0.039l-0.078 0.039c-0.054 0.027-0.105 0.043-0.16 0.043-0.023 0.019-0.043 0.031-0.058 0.039-0.032 0.02-0.059 0.039-0.082 0.059l-0.02 0.019c-0.078 0.055-0.145 0.109-0.199 0.16-0.055 0.106-0.094 0.215-0.121 0.321h0.082l0.277 0.039c0.133-0.078 0.188-0.172 0.16-0.278 0.375-0.215 0.696-0.308 0.961-0.281 0.266 0.055 0.535 0.215 0.801 0.481 0.266 0.292 0.504 0.453 0.719 0.48h0.879c-0.079-0.133-0.094-0.293-0.039-0.48 0.16-0.028 0.507-0.04 1.039-0.04 0.48-0.027 0.734-0.16 0.761-0.402 0.375-0.078 0.801-0.051 1.282 0.082l0.117-0.121c0.215-0.187 0.535-0.293 0.961-0.32 0.242-0.028 0.586-0.028 1.039 0-0.051-0.532 0.347-0.801 1.203-0.801 1.039 0.055 1.598 0.043 1.68-0.039 0.05-0.078 0.078-0.32 0.078-0.719-0.028-0.348-0.055-0.586-0.078-0.723-0.055-0.183-0.082-0.292-0.082-0.316-0.028-0.027-0.133-0.066-0.321-0.121-0.398-0.133-0.812-0.016-1.238 0.359 0-0.398-0.199-0.8-0.602-1.199-0.425-0.402-0.785-0.402-1.078 0-0.027-0.375-0.336-0.64-0.922-0.801-0.531-0.16-0.972-0.16-1.32 0-0.133 0.078-0.227 0.215-0.277 0.399-0.028 0.187-0.094 0.32-0.203 0.402-0.211-0.105-0.465-0.16-0.758-0.16-0.348 0-0.508 0.105-0.481 0.32-0.187-0.32-0.867-0.453-2.039-0.402-1.093 0.027-1.789 0.137-2.082 0.32 0 0.106 0.039 0.199 0.121 0.282-0.425-0.161-0.988-0.266-1.679-0.321-0.934-0.078-1.496-0.133-1.68-0.16 0.051 0.133 0.211 0.305 0.48 0.52-0.402 0.082-1.066 0.293-2 0.64-0.507 0.078-0.867 0.172-1.082 0.281-0.347 0.133-0.425 0.426-0.238 0.879l0.16 0.039 0.481 0.039c0.238-0.05 0.359-0.238 0.359-0.558 0.024 0.398 0.348 0.601 0.957 0.601h0.203l0.598-0.082c0.187-0.054 0.375-0.121 0.562-0.199-0.187-0.238-0.253-0.48-0.203-0.719 0.457-0.054 0.789-0.043 1 0.04 0.188-0.266 0.469-0.399 0.84-0.399 0.188 0.024 0.496 0.066 0.922 0.117 0.16 0 0.492-0.051 1-0.16 0.426 0 0.641 0.16 0.641 0.481 0.16 0.027 0.48 0.015 0.961-0.039 0.425 0 0.625 0.132 0.597 0.398 1.149-0.211 1.453-0.023 0.922 0.562l-0.402 0.278c-0.426 0.109-0.758 0.16-1 0.16-0.481 0.055-0.746 0.094-0.797 0.121zm3.637 0.121 0.043 0.36-0.122-0.321 0.079-0.039zm-8.039-0.883c0.054 0.11 0.082 0.203 0.082 0.282l0.238 0.039c-0.133-0.106-0.238-0.211-0.32-0.321z" inkscape:connector-curvature="0"/>
      <path id="path22" style="fill-rule:evenodd;fill:#848958" d="m38.199 40.16 0.281 0.118c0.321 0.082 0.586 0.082 0.801 0 0.239-0.106 0.36-0.305 0.36-0.598 0-0.48-0.176-0.746-0.52-0.801-0.082-0.027-0.469 0.012-1.16 0.121 0.133-0.109 0.601-0.414 1.398-0.922 0.696-0.558 0.907-0.984 0.641-1.277-0.051-0.082-0.145-0.121-0.277-0.121-0.137 0.027-0.243 0.066-0.321 0.121 0.024-0.402 0-0.684-0.082-0.844-0.105-0.238-0.359-0.316-0.758-0.238-0.242 0.027-0.374 0.066-0.402 0.121-0.027 0.027-0.039 0.172-0.039 0.438 0 0.347 0.039 0.601 0.117 0.761-0.16-0.265-0.449-0.507-0.879-0.718-0.531-0.243-0.961-0.282-1.281-0.121-0.266 0.132-0.371 0.292-0.316 0.48 0 0.051 0.09 0.254 0.277 0.598-0.051 0.082-0.266 0.121-0.641 0.121-0.05 0.187 0.094 0.402 0.442 0.64 0.32 0.215 0.668 0.375 1.039 0.481-0.317-0.055-0.586-0.016-0.801 0.121 0.055 0.211 0.137 0.398 0.242 0.559 0.133 0.132 0.242 0.214 0.321 0.238 0.293 0.215 0.64 0.32 1.039 0.32h0.32l0.121 0.359 0.078 0.043zm-9.84 7.36c0.293 0.078 0.586 0.121 0.879 0.121 0.321 0 0.535-0.043 0.641-0.121 0.133-0.106 0.215-0.36 0.242-0.762 0.027-0.398-0.016-0.664-0.121-0.801-0.078-0.105-0.277-0.183-0.598-0.238 0.184-0.051 0.293-0.187 0.321-0.398 0.05-0.375-0.121-0.614-0.524-0.723-0.453-0.106-0.679-0.227-0.679-0.359 0.214-0.079 0.546-0.2 1-0.36 0.375-0.187 0.601-0.426 0.679-0.719v-0.441c-0.48-0.105-1.078-0.078-1.801 0.082 0-0.137 0.043-0.402 0.122-0.801 0.054-0.32 0.054-0.574 0-0.761-0.668-0.133-1.332-0.067-2 0.199-0.719 0.297-1.04 0.734-0.961 1.32-0.133-0.531-0.52-0.734-1.161-0.598-0.05 0.133-0.05 0.344 0 0.641-0.105-0.269-0.586-0.375-1.437-0.32-0.856 0.078-1.215 0.344-1.082 0.797 0.426 0.054 1.066-0.024 1.922-0.239v0.879l0.558 0.039c0.028 0.188 0.215 0.453 0.563 0.801-0.215-0.078-0.402-0.051-0.563 0.082-0.132 0.16-0.187 0.348-0.16 0.559 0.028 0.105 0.121 0.226 0.281 0.359 0.215 0.16 0.332 0.266 0.36 0.32-0.078 0.055-0.106 0.122-0.078 0.2 0.023 0.082 0.023 0.16 0 0.242-0.055 0.215-0.16 0.332-0.321 0.359-0.296 0.266-0.519 0.465-0.679 0.602-0.242 0.293-0.27 0.543-0.082 0.758l0.121 0.441c0.293 0.426 0.558 0.398 0.801-0.082 0.05-0.078 0.183-0.453 0.398-1.117 0.508 0.719 0.895 1.051 1.16 1 0.16-0.028 0.281-0.16 0.36-0.403 0.054-0.132 0.121-0.32 0.199-0.558 0.054 0.347 0.242 0.719 0.562 1.121 0.399 0.504 0.731 0.598 1 0.277 0.106-0.16 0.133-0.625 0.078-1.398zm-16.757-8.961v0.039c0.023-0.023 0.039-0.051 0.039-0.078 0.078-0.16 0.132-0.293 0.16-0.403l-0.039 0.602c0.293 0.238 0.691 0.398 1.199 0.481l-0.082 0.199c0.187 0.054 0.336 0.054 0.441 0-0.16 0.16-0.265 0.426-0.32 0.801s-0.039 0.718 0.039 1.039c0.188 0.027 0.43-0.028 0.723-0.161l0.238-0.199 0.039-0.039 0.242-0.199 0.039 0.199h0.039c0.293-0.027 0.696-0.187 1.2-0.48 0.507-0.293 0.679-0.641 0.519-1.039-0.051-0.188-0.105-0.297-0.156-0.321 0.504 0.024 0.84 0.024 1 0 0.344-0.054 0.547-0.215 0.598-0.48 0.054-0.426-0.172-0.641-0.68-0.641-0.695 0-1.078-0.039-1.16-0.121 0.347-0.078 0.547-0.183 0.601-0.32 0.051-0.106 0.067-0.344 0.039-0.719-0.16-0.133-0.414-0.172-0.761-0.121-0.348 0.027-0.614 0.109-0.797 0.242-0.028-0.133-0.067-0.414-0.121-0.84-0.082-0.375-0.266-0.519-0.563-0.441-0.266 0.055-0.398 0.293-0.398 0.719 0.054 0.507 0.054 0.839 0 1-0.188-0.266-0.375-0.465-0.559-0.598-0.293-0.188-0.496-0.133-0.601 0.16-0.106 0.293 0.054 0.707 0.48 1.238-0.535-0.16-1.055-0.121-1.559 0.122-0.027 0.105 0.024 0.226 0.161 0.359zm-4.883-2.52 0.722 0.2c0.957 0 1.704-0.067 2.239-0.2 0.375-0.347 0.492-0.64 0.359-0.879-0.133-0.214-0.48-0.226-1.039-0.043 0.188-0.105 0.254-0.359 0.199-0.757-0.746-0.055-1.187 0.121-1.32 0.519 0.082-0.398-0.266-0.613-1.039-0.64-0.774-0.028-1.215 0.093-1.32 0.359-0.106 0.293 0.027 0.508 0.402 0.641-0.375 0.054-0.547 0.175-0.524 0.359 0 0.187 0.188 0.32 0.563 0.402 0.266 0.051 0.519 0.067 0.758 0.039zm4.203-7.32c0.293-0.238 0.437-0.559 0.437-0.961-0.132-0.051-0.425-0.078-0.879-0.078-0.48 0-0.839 0.051-1.082 0.16-0.476-0.027-0.945 0.012-1.398 0.117-0.535 0.11-0.734 0.254-0.602 0.442 0.161 0.215 0.536 0.32 1.122 0.32 0.292 0.027 0.679 0.027 1.16 0h0.121l-0.039 0.16 0.16 0.238c0.426-0.05 0.758-0.183 1-0.398zm-0.961-0.359c0.078-0.133 0.117-0.266 0.117-0.403 0.055 0.16 0.149 0.254 0.281 0.282l-0.398 0.121z" inkscape:connector-curvature="0"/>
      <path id="path24" style="fill-rule:evenodd;fill:#655a4c" d="m37.199 26.438c0.11-0.133 0.309-0.184 0.602-0.16v-0.078c0-0.161-0.016-0.321-0.039-0.481-0.242 0-0.43 0.039-0.563 0.121v0.598zm6 0.601c-0.16-0.214-0.332-0.464-0.519-0.761-0.481-0.774-1.012-1.254-1.602-1.438-0.238-0.082-0.598-0.121-1.078-0.121-0.508 0-0.879-0.027-1.121-0.078-0.293-0.055-0.801-0.363-1.52-0.922-0.265 0.055-0.664-0.211-1.199-0.801-0.265-0.265-0.719-0.453-1.359-0.558 0.265 0.105 0.465 0.215 0.601 0.32 0.266 0.16 0.731 0.559 1.399 1.199 0.508 0.508 1.011 0.828 1.519 0.961 0.242 0.051 0.758 0.078 1.559 0.078h0.961c0.238 0.133 0.332 0.414 0.281 0.84 0.188 0.027 0.348 0.067 0.481 0.121 0.238 0.078 0.531 0.36 0.878 0.84 0.239 0.106 0.481 0.215 0.719 0.32zm-15.039 0.801-0.039-0.121-0.043-0.039-0.078 0.32c-0.055 0.078-0.094 0.172-0.121 0.278l0.121-0.2c-0.055 0.133-0.039 0.321 0.039 0.563 0 0.027 0.016 0.051 0.039 0.078h0.16c0.137 0.027 0.27 0.055 0.403 0.082 0.187-0.32 0.425-0.762 0.718-1.32 0.106-0.321 0.188-0.895 0.243-1.723l0.32-1.598 0.039-0.722-1.121-0.84c-0.106 1.016-0.133 1.84-0.078 2.48l0.078 0.403v0.16l0.039 0.16c0.055-0.375 0.16-0.574 0.32-0.601 0.266 1.093 0.149 1.851-0.359 2.281-0.32 0.16-0.547 0.277-0.68 0.359zm4.121-15.883 0.199-0.519c0.133-0.559 0.215-1.117 0.243-1.68v1.082l0.078-0.402c0.078-0.348 0.094-0.891 0.039-1.637 0.348 0 0.601 0.012 0.762 0.039 0.078 0.266 0.078 0.465 0 0.598-0.293 0.242-0.426 0.429-0.403 0.562 0.055 0.266 0.414 0.371 1.082 0.321 0.453-0.055 0.719-0.071 0.801-0.043 0.293 0.054 0.68 0.359 1.16 0.922 0.481 0.558 0.758 1.011 0.84 1.359 0.027-0.27 0.039-0.586 0.039-0.961v-0.039l-0.281-0.242c-0.16-0.16-0.426-0.41-0.801-0.758-0.316-0.293-0.625-0.481-0.918-0.559 0.266 0 0.547 0.117 0.84 0.36 0.027-0.27-0.16-0.496-0.559-0.684-0.507-0.266-0.84-0.504-1-0.719-0.48-0.586-0.961-0.906-1.441-0.957-0.238-0.027-0.547-0.015-0.918 0.039-0.563 0.078-0.883 0.118-0.961 0.118-0.16 0-0.348-0.04-0.559-0.118h-0.082l-0.363 0.282c-0.371 0.156-0.652 0.316-0.84 0.48l-0.16 0.199 0.043 0.438c0.426-0.293 0.719-0.414 0.879-0.36 0.055 0.215 0.066 0.375 0.039 0.481 0.508-0.453 0.816-0.719 0.922-0.801 0.453-0.293 0.801-0.316 1.039-0.078 0.215 0.211 0.309 0.574 0.281 1.078-0.054 0.59-0.093 1.027-0.121 1.32-0.055 0.348-0.012 0.641 0.121 0.879zm2.957 2.282-0.476-0.321c-0.297-0.16-0.574-0.265-0.84-0.316 0.133 0.078 0.355 0.238 0.68 0.476l0.519 0.403 0.438 0.398 0.242-0.117-0.563-0.523zm1.762-1.2 0.039-0.281c-0.211-0.133-0.492-0.371-0.84-0.719l-0.039 0.161 0.117 0.441c-0.613-0.59-1.222-0.934-1.839-1.043l-0.161-0.039c-0.289 0-0.504 0.027-0.636 0.082 0.105 0.184 0.293 0.383 0.558 0.598 0.266 0.242 0.465 0.425 0.602 0.562l0.398 0.399c0.055 0.05 0.172 0.265 0.36 0.64 0.375 0.106 0.668 0.16 0.879 0.16 0.027-0.293-0.133-0.629-0.477-1-0.188-0.215-0.469-0.492-0.84-0.84 0.559 0.266 0.973 0.465 1.238 0.598l0.641 0.281zm-14.281 9.161v0.16c0.027-0.16 0.066-0.282 0.121-0.36 0.055-0.082 0.215-0.226 0.48-0.441 0.399-0.238 0.813-0.359 1.239-0.359h0.921v-0.083c-0.48-0.16-1.148-0.171-2-0.039-0.347 0.028-0.574 0.133-0.679 0.321-0.082 0.133-0.106 0.375-0.082 0.718v0.083zm4.519-2.719-0.199-0.043-0.277 0.281c-0.375 0.266-0.95 0.398-1.723 0.398-0.851 0-1.437 0.067-1.758 0.204-0.16 0.05-0.336 0.171-0.519 0.359-0.188 0.211-0.336 0.344-0.442 0.398l1.84-0.16c0.399-0.105 1.012-0.172 1.84-0.199h0.16c0.293-0.082 0.547-0.227 0.762-0.441 0.211-0.239 0.316-0.493 0.316-0.758v-0.039zm2.043-0.84v-0.043l0.16-0.438v-0.082c-0.109-0.16-0.109-0.32 0-0.48 0.024-0.051 0.133-0.215 0.321-0.481 0.238-0.32 0.504-0.828 0.797-1.519 0.109-0.266 0.226-0.664 0.363-1.199l0.437-0.641 0.719-1.32c0-0.426-0.051-0.703-0.156-0.84-0.188 0.082-0.336 0.269-0.442 0.562-0.132 0.348-0.253 0.559-0.359 0.641l-0.043-0.562c0 0.347-0.09 0.668-0.277 0.961-0.16 0.398-0.293 0.679-0.403 0.839-0.05 0.082-0.277 0.254-0.679 0.52-0.293 0.242-0.453 0.453-0.481 0.641 0.16-0.11 0.414-0.348 0.762-0.719 0.348-0.375 0.613-0.614 0.801-0.723 0 0.027-0.137 0.481-0.403 1.363-0.21 0.559-0.464 0.973-0.757 1.239-0.321 0.32-0.496 0.507-0.52 0.558-0.109 0.16-0.16 0.403-0.16 0.723 0.051 0.344 0.066 0.598 0.039 0.758-0.027 0.32-0.172 0.468-0.441 0.441l0.402 0.801c0-0.082 0.094-0.402 0.277-0.961l0.043-0.039z" inkscape:connector-curvature="0"/>
      <path id="path26" style="fill-rule:evenodd;fill:#786c5c" d="m36.801 24.039 0.078 0.082c0.055 0.051 0.109 0.118 0.16 0.2l0.082 0.078c0.051 0.16 0.094 0.32 0.117 0.48 0 0.133-0.011 0.453-0.039 0.961 0.133-0.082 0.321-0.121 0.563-0.121l0.039-0.641c0.293-0.05 0.574-0.011 0.84 0.122 0.425 0.242 0.679 0.375 0.757 0.402 0.137 0.051 0.309 0.078 0.524 0.078 0.316 0.055 0.719 0.078 1.199 0.078 0.051-0.426-0.043-0.703-0.281-0.84h-0.961c-0.801 0-1.32-0.023-1.559-0.078-0.508-0.133-1.015-0.453-1.519-0.961-0.668-0.64-1.133-1.039-1.403-1.199-0.132-0.105-0.332-0.215-0.597-0.32h-0.403l0.204 0.043c0.343 0.105 0.773 0.359 1.277 0.757 0.375 0.266 0.668 0.532 0.883 0.801l0.039 0.078zm-7.723-15.039c-0.023 0.078-0.051 0.25-0.078 0.52 0 0.105-0.012 0.215-0.039 0.32l0.16 0.039c0.238 0.055 0.359 0.133 0.359 0.238-0.054 0.161-0.093 0.336-0.121 0.52-0.05 0.508-0.039 0.961 0.039 1.363 0.11-0.082 0.387-0.617 0.84-1.601 0.348-0.801 0.774-1.16 1.282-1.082 0.292 0.054 0.425 0.281 0.402 0.683-0.11 0.504-0.149 0.852-0.121 1.039-0.188 0-0.239-0.199-0.16-0.601-0.133 0.187-0.239 0.453-0.321 0.801-0.078 0.398-0.144 0.695-0.199 0.878l-0.039 0.043c-0.133 0.372-0.574 1.012-1.32 1.918-0.668 0.801-1.016 1.481-1.039 2.039 0.531-0.078 0.531 0.43 0 1.52-0.508 1.094-0.684 1.883-0.52 2.363 0.106 0.317 0.426 0.797 0.957 1.438 0.641 0.719 1.094 0.972 1.363 0.762-0.644-0.11-1.082-0.426-1.32-0.961-0.16-0.321-0.242-0.829-0.242-1.52v-0.078l-0.399-0.801c0.266 0.027 0.415-0.121 0.438-0.441 0.027-0.16 0.016-0.414-0.039-0.758 0-0.32 0.055-0.563 0.16-0.723 0.027-0.051 0.199-0.238 0.52-0.558 0.293-0.266 0.547-0.68 0.761-1.239 0.266-0.882 0.399-1.336 0.399-1.363-0.188 0.109-0.453 0.348-0.801 0.723-0.348 0.371-0.598 0.613-0.758 0.719 0.024-0.188 0.184-0.399 0.481-0.641 0.398-0.266 0.625-0.442 0.679-0.52 0.106-0.16 0.239-0.441 0.399-0.839 0.187-0.293 0.281-0.614 0.281-0.961l0.039 0.562c0.109-0.082 0.227-0.293 0.359-0.641 0.11-0.293 0.254-0.48 0.442-0.562 0.105 0.137 0.16 0.414 0.16 0.84l0.199-0.481c-0.133-0.238-0.172-0.531-0.117-0.879 0.024-0.293 0.066-0.734 0.117-1.32 0.028-0.508-0.066-0.867-0.281-1.078-0.238-0.242-0.586-0.215-1.039 0.078-0.106 0.082-0.414 0.348-0.918 0.801 0.023-0.106 0.012-0.266-0.043-0.481-0.16-0.054-0.453 0.067-0.879 0.36l-0.043-0.438zm6.481 4.84c-0.184-0.375-0.305-0.586-0.36-0.64l-0.398-0.399 0.32 0.52-0.32-0.121c-0.055 0.078-0.082 0.226-0.082 0.441-0.211-0.16-0.465-0.414-0.758-0.762-0.293-0.347-0.481-0.613-0.563-0.801-0.023 0.215 0.11 0.508 0.403 0.883 0.293 0.371 0.613 0.653 0.961 0.84l0.078 0.078-0.039 0.039h-0.039l0.476 0.321-0.277-0.481h0.277l0.321 0.082zm-0.161 0.918-0.757 0.16 0.078 0.16c0.242 0 0.519-0.066 0.84-0.199l-0.161-0.121zm-0.796-0.68-0.524 0.563-0.039 0.039 0.281 0.277 0.078-0.039 1-0.16-0.277-0.277-0.519-0.403zm2.437-1.32 0.039-0.199c-0.078-0.348-0.355-0.801-0.84-1.359-0.476-0.559-0.863-0.868-1.16-0.922-0.078-0.024-0.344-0.012-0.797 0.043-0.668 0.05-1.027-0.055-1.082-0.321-0.027-0.133 0.11-0.32 0.403-0.558 0.078-0.133 0.078-0.336 0-0.602-0.161-0.027-0.414-0.039-0.762-0.039 0.055 0.746 0.039 1.293-0.039 1.641l-0.082 0.398v1.68c0.242-0.242 0.402-0.414 0.48-0.52 0.11-0.215 0.11-0.425 0-0.64l-0.039-0.121 0.199 0.199c0.106 0.297 0.2 0.508 0.282 0.64 0.105 0.293 0.281 0.442 0.519 0.442l0.039-0.281c-0.265-0.215-0.453-0.414-0.558-0.602 0.132-0.051 0.347-0.078 0.64-0.078v-0.16l0.16 0.199c0.614 0.109 1.227 0.453 1.84 1.039l-0.121-0.437 0.039-0.161c0.348 0.348 0.629 0.586 0.84 0.719zm-1.398-1.277h-0.801c-0.078-0.11-0.332-0.242-0.762-0.403-0.664-0.211-0.957-0.437-0.879-0.679 0.321 0 0.547 0.015 0.68 0.039 0.269 0.054 0.562 0.187 0.883 0.402l0.879 0.641zm-7.321 15.797l-0.121 0.121-0.121 0.281h0.043l0.039 0.16c0.133-0.082 0.36-0.199 0.68-0.359 0.508-0.43 0.629-1.188 0.359-2.281-0.16 0.027-0.265 0.226-0.32 0.601l-0.039-0.16c-0.028 0.398-0.094 0.746-0.199 1.039l-0.079 0.121c-0.054 0.184-0.136 0.344-0.242 0.477zm-0.441 1v0.043l-0.039 0.078c-0.028 0.105-0.039 0.199-0.039 0.281 0.078 0.027 0.172 0.039 0.277 0.039-0.023-0.027-0.039-0.051-0.039-0.078-0.078-0.242-0.094-0.43-0.039-0.563l-0.121 0.2zm-5.16-5.918v-0.16c-0.184 0.105-0.278 0.441-0.278 1l-0.043 0.601 0.043-0.043c0.133-0.211 0.227-0.574 0.278-1.078v-0.32zm-0.399-1.282c-0.105 0.055-0.293 0.067-0.558 0.043-0.297-0.027-0.481-0.043-0.563-0.043l-0.758 0.122c-0.64 0.078-1.109 0.414-1.402 1 0.348-0.426 0.828-0.668 1.441-0.719 0.348-0.028 0.907-0.028 1.68 0 0.238-0.028 0.602-0.176 1.078-0.442l-0.918 0.039zm4.918-1.558c0 0.265-0.105 0.519-0.316 0.758-0.215 0.214-0.469 0.359-0.762 0.441h-0.16c0.348 0.055 0.613 0.039 0.801-0.039 0.344-0.105 0.492-0.496 0.437-1.16z" inkscape:connector-curvature="0"/>
      <path id="path28" style="fill-rule:evenodd;fill:#867966" d="m37.801 25.078-0.039 0.641c0.023 0.16 0.039 0.32 0.039 0.481 0.027-0.293 0.027-0.668 0-1.122zm1.078-0.437c-0.266-0.082-0.586-0.254-0.957-0.52-0.215-0.16-0.52-0.386-0.922-0.683l0.359 0.281c0.719 0.559 1.227 0.867 1.52 0.922zm-8.359-2.441c-0.266 0.214-0.719-0.04-1.36-0.762-0.535-0.637-0.851-1.117-0.961-1.438-0.16-0.48 0.016-1.265 0.52-2.359 0.535-1.094 0.535-1.602 0-1.52 0.027-0.562 0.375-1.242 1.043-2.043 0.746-0.906 1.183-1.546 1.316-1.918l0.043-0.043c0.051-0.183 0.117-0.48 0.199-0.878 0.078-0.348 0.188-0.614 0.321-0.801-0.082 0.402-0.028 0.601 0.16 0.601-0.028-0.187 0.011-0.535 0.117-1.039 0.027-0.402-0.106-0.629-0.398-0.683-0.508-0.078-0.934 0.281-1.282 1.082-0.453 0.984-0.734 1.519-0.84 1.601-0.078-0.402-0.093-0.855-0.039-1.363 0.028-0.184 0.067-0.359 0.118-0.52 0-0.105-0.118-0.183-0.36-0.238l-0.16-0.039c-0.184 0.957-0.32 1.68-0.398 2.16l0.242-1 0.16 0.321v0.437c0 0.215 0.078 0.332 0.238 0.359 0.16 0 0.348-0.16 0.563-0.48 0.398-0.48 0.703-1 0.918-1.559 0.082 0.586-0.133 1.399-0.641 2.442-0.105 0.238-0.281 0.465-0.519 0.68-0.399 0.347-0.614 0.535-0.641 0.558-0.188 0.215-0.332 0.508-0.441 0.883-0.133 0.531-0.211 0.84-0.239 0.918l-0.16-0.121v-0.117l-0.039 0.277c-0.027 0.215-0.105 0.469-0.238 0.762-0.16 0.347-0.254 0.586-0.282 0.718l0.36-0.878c0.051 1.226 0.082 2.132 0.082 2.718-0.027 0.348 0.023 0.801 0.156 1.36 0.055 0.375 0.094 0.652 0.121 0.839 0.055 0.348 0.16 0.602 0.321 0.762-0.536-0.269-0.868-0.613-1-1.043 0.05 0.215 0.16 0.43 0.32 0.641 0.183 0.348 0.305 0.562 0.359 0.64 0.239 0.454 0.371 1.028 0.399 1.719-0.028 0.774-0.039 1.364-0.039 1.762l0.039-0.801 0.16 0.281c-0.051-0.64-0.028-1.468 0.082-2.48l1.117 0.84v-0.16c0.75 0.105 1.336 0.093 1.762-0.039-0.535 0.105-1.094 0.117-1.68 0.039l-0.48-0.2-0.321-0.199c-0.265-0.242-0.492-0.48-0.679-0.722 0.347-0.079 0.812 0.027 1.398 0.32 0.641 0.375 1.094 0.574 1.359 0.601h1.082l-0.679 0.161c1.039-0.215 1.597-0.321 1.679-0.321 0.852-0.105 1.426-0.105 1.719 0 0.535 0.16 1.094 0.532 1.68 1.121l-0.039-0.082c-0.215-0.265-0.508-0.535-0.883-0.8-0.504-0.399-0.93-0.653-1.277-0.758l-0.2-0.039-1.679 0.039c-0.426 0-1.039-0.051-1.84-0.16l-0.359-0.039zm6.601 2.199c0.078 0.265 0.106 0.558 0.078 0.879v0.562c0.028-0.508 0.039-0.828 0.039-0.961-0.023-0.16-0.066-0.32-0.117-0.48zm-8.121-14.879c0.027-0.27 0.055-0.442 0.078-0.52-0.051 0.106-0.078 0.2-0.078 0.278v0.242zm5.602 4.558c-0.321-0.238-0.547-0.398-0.68-0.48 0.266 0.055 0.543 0.16 0.84 0.32h0.039l0.039-0.039-0.078-0.082c-0.348-0.183-0.668-0.465-0.961-0.84-0.293-0.371-0.426-0.668-0.403-0.879 0.082 0.188 0.27 0.454 0.563 0.801 0.293 0.344 0.547 0.598 0.758 0.758 0-0.215 0.027-0.359 0.082-0.437l0.32 0.117-0.32-0.52c-0.133-0.133-0.336-0.32-0.602-0.558l-0.039 0.281c-0.238 0-0.414-0.149-0.519-0.442-0.082-0.132-0.176-0.347-0.282-0.64l-0.199-0.199 0.039 0.121c0.11 0.211 0.11 0.425 0 0.64-0.078 0.106-0.238 0.278-0.48 0.52v0.039h-0.039c0.054 0.027 0.121 0.078 0.199 0.16 0.082 0.106 0.16 0.238 0.242 0.398 0.16 0.403 0.254 0.614 0.281 0.641 0.239 0.375 0.465 0.668 0.68 0.879l0.52-0.559zm0.117 1c0.508 0.055 0.988-0.132 1.441-0.558l-0.359 0.238-0.242 0.121-0.438-0.398 0.277 0.277-1 0.16c0.11 0.106 0.215 0.16 0.321 0.16zm2.32-1.961c0-0.132 0.016-0.316 0.039-0.558l-0.039 0.199-0.039 0.281c-0.055 0.293-0.148 0.559-0.281 0.801 0.133-0.187 0.226-0.402 0.281-0.64 0-0.028 0.012-0.055 0.039-0.083zm-1.641 1.641 0.161 0.121c-0.321 0.133-0.598 0.199-0.84 0.199l-0.078-0.16 0.757-0.16zm-0.957-3.16-0.16-0.199v0.16l0.16 0.039zm2.321-1.238c0.211 0.375 0.332 0.773 0.359 1.199 0-0.348-0.055-0.641-0.16-0.879-0.055-0.082-0.121-0.188-0.199-0.32zm-8.641 17.32v0.039l0.039 0.121-0.039-0.16zm-2.641-6.52c0.825-0.027 1.454-0.109 1.879-0.242l0.161-0.078v-0.64c0.027-0.266-0.012-0.469-0.122-0.602l-0.16-0.121v0.043c0.055 0.664-0.093 1.051-0.437 1.16-0.188 0.078-0.453 0.094-0.801 0.039-0.828 0.027-1.441 0.094-1.84 0.199l-1.84 0.16 0.918-0.039c-0.476 0.266-0.84 0.414-1.078 0.442-0.773-0.028-1.332-0.028-1.68 0-0.613 0.051-1.093 0.293-1.441 0.719-0.105 0.214-0.184 0.441-0.238 0.679 0.16 0.106 0.304 0.188 0.437 0.242 0-0.054 0.016-0.109 0.043-0.16 0.16-0.453 0.36-0.734 0.598-0.84 0.187-0.109 0.519-0.203 1-0.281 0.508-0.082 0.855-0.066 1.043 0.039 0.183 0.082 0.293 0.399 0.316 0.961 0 0.426-0.023 0.813-0.078 1.16-0.055 0.239-0.094 0.438-0.121 0.598 0.106 0.215 0.199 0.441 0.281 0.68l0.078-0.039c0.082-0.028 0.176-0.051 0.282-0.079 0.054-0.269 0.082-0.574 0.082-0.921 0-0.372-0.016-0.891-0.043-1.559-0.051 0.508-0.145 0.867-0.278 1.078l-0.043 0.043 0.043-0.601c0-0.559 0.094-0.895 0.278-1v-0.083c-0.024-0.343 0-0.585 0.082-0.718 0.105-0.188 0.332-0.293 0.679-0.321 0.852-0.132 1.52-0.117 2 0.043v0.039z" inkscape:connector-curvature="0"/>
      <path id="path30" style="fill-rule:evenodd;fill:#473e36" d="m29.281 18.641-0.043 0.039c-0.183 0.559-0.277 0.879-0.277 0.961v0.078c0 0.691 0.078 1.199 0.238 1.52 0.242 0.535 0.68 0.851 1.321 0.961l0.359 0.039c0.801 0.105 1.414 0.16 1.84 0.16l1.679-0.039h0.403c0.64 0.105 1.094 0.293 1.359 0.558 0.531 0.586 0.934 0.856 1.199 0.801l-0.359-0.281c-0.133-0.106-0.398-0.332-0.801-0.68-0.32-0.32-0.586-0.535-0.801-0.641-0.425-0.238-1.105-0.281-2.039-0.117-0.691 0.157-1.453 0.172-2.281 0.039-0.238-0.054-0.492-0.16-0.758-0.32-0.16-0.105-0.386-0.254-0.679-0.441l-0.282-0.598c-0.211-0.613-0.238-1.293-0.078-2.039zm4.598-10.801c-0.078-0.055-0.156-0.105-0.238-0.16l-0.082-0.039c-0.239-0.109-0.438-0.203-0.598-0.281-0.215-0.11-0.426-0.16-0.641-0.16h-0.359c-0.109 0.027-0.227 0.066-0.359 0.121-0.055 0.023-0.11 0.05-0.161 0.078-0.214 0.109-0.546 0.32-1 0.64h0.079c0.214 0.082 0.402 0.121 0.558 0.121 0.082 0 0.402-0.043 0.961-0.121 0.375-0.054 0.684-0.066 0.922-0.039 0.48 0.051 0.961 0.371 1.437 0.957 0.161 0.215 0.497 0.453 1 0.723 0.403 0.184 0.59 0.41 0.563 0.68-0.293-0.243-0.574-0.36-0.84-0.36 0.293 0.078 0.598 0.266 0.918 0.559 0.375 0.348 0.641 0.601 0.801 0.762l0.281 0.238c-0.027-0.426-0.148-0.824-0.359-1.199-0.082-0.133-0.188-0.282-0.321-0.442-0.109-0.133-0.214-0.371-0.32-0.718-0.109-0.348-0.226-0.575-0.359-0.68-0.16-0.11-0.403-0.199-0.723-0.281-0.211-0.055-0.449-0.094-0.719-0.122l-0.039-0.039c-0.027-0.027-0.054-0.039-0.082-0.039-0.105-0.082-0.211-0.148-0.32-0.199zm2.281 6.68 0.039-0.043 0.082-0.078 0.442-0.559c0.132-0.242 0.222-0.508 0.277-0.801l-0.641-0.281c-0.265-0.133-0.679-0.332-1.238-0.601 0.371 0.347 0.652 0.628 0.84 0.843 0.348 0.371 0.508 0.707 0.48 1-0.214 0-0.507-0.054-0.879-0.16l-0.32-0.082h-0.281l0.277 0.481 0.563 0.519 0.359-0.238zm-3.441-3.68v-1.082c-0.028 0.563-0.106 1.121-0.239 1.68l-0.203 0.519-0.199 0.481-0.719 1.32-0.437 0.641c-0.137 0.535-0.254 0.933-0.363 1.199-0.293 0.695-0.559 1.203-0.797 1.519-0.188 0.27-0.297 0.43-0.321 0.481-0.109 0.16-0.109 0.32 0 0.48v0.082c0.079-0.269 0.184-0.519 0.321-0.761 0.023 0 0.039-0.012 0.039-0.039 0.586-0.879 1.144-1.907 1.679-3.082 0.082-0.133 0.215-0.504 0.399-1.118 0.215-0.507 0.48-0.707 0.801-0.601h0.039v-1.719z" inkscape:connector-curvature="0"/>
      <path id="path32" style="fill-rule:evenodd;fill:#b3aa9e" d="m37.359 9.957v1c0 0.188-0.066 0.789-0.199 1.801-0.027 0.16-0.066 0.281-0.121 0.359-0.027 0.028-0.039 0.055-0.039 0.083-0.055 0.238-0.148 0.453-0.281 0.64l-0.442 0.559c-0.023 0.187-0.023 0.375 0 0.558l0.602 4.922c0.133-0.398 0.176-0.961 0.121-1.679-0.055-0.852-0.055-1.426 0-1.719 0.027-0.293 0.121-0.735 0.281-1.321 0.106-0.64 0.348-1.535 0.719-2.679 0.215-0.696 0.293-1.656 0.238-2.883-0.05-1.84-0.078-2.84-0.078-3-0.535 1.016-0.801 1.84-0.801 2.48v0.879zm-0.398-0.879v-0.117l-0.082-4.402c0-0.481-0.094-1.184-0.281-2.117-0.024-0.27-0.024-0.684 0-1.242 0.027-0.532 0.015-0.934-0.039-1.2-0.106 0.16-0.149 0.399-0.121 0.719 0.027 0.348 0.042 0.586 0.042 0.719l0.079 5.121 0.402 2.519zm-1.723-1.16 0.043 0.039v-0.156c-0.027-0.535 0-1.32 0.078-2.363v-1.559c-0.238 0.481-0.371 1.121-0.398 1.922v1.957l0.277 0.16zm-1.679-0.277 0.082 0.039c0.082 0.055 0.16 0.105 0.238 0.16-0.106-0.695-0.145-1.242-0.117-1.64-0.11 0.585-0.176 1.066-0.203 1.441zm2.601 9.68c-0.16 0.05-0.238 0.211-0.238 0.48 0.023 0.316 0.039 0.547 0.039 0.68l0.199 3.078c0-0.481 0.028-1.188 0.078-2.121 0-0.879-0.023-1.586-0.078-2.117zm-2.48-0.043c0-0.614-0.039-1.051-0.118-1.317-0.054-0.136-0.214-0.347-0.484-0.64-0.266-0.27-0.398-0.508-0.398-0.719-0.051 0.183 0.015 0.41 0.199 0.68 0.215 0.32 0.336 0.519 0.359 0.597 0.028 0.082 0.043 0.574 0.043 1.481l0.399 2.8v-2.882zm1.48-2v-0.078c-0.133-0.055-0.254-0.055-0.359 0v0.238c-0.028 0.215-0.039 0.519-0.039 0.922l-0.082 4.679c0.027-0.507 0.148-1.464 0.359-2.879 0.16-1.175 0.199-2.136 0.121-2.882z" inkscape:connector-curvature="0"/>
      <path id="path34" style="fill-rule:evenodd;fill:#635b52" d="m35.281 7.801v0.156l-0.043-0.039c-0.078 0.106-0.144 0.215-0.199 0.321-0.16-0.188-0.227-0.52-0.199-1-0.133 0-0.32 0.281-0.559 0.839l0.039 0.039c0.266 0.028 0.508 0.067 0.719 0.122 0.32 0.082 0.559 0.171 0.719 0.281 0.133 0.105 0.254 0.332 0.363 0.68 0.106 0.347 0.211 0.585 0.317 0.718 0.132 0.16 0.242 0.309 0.32 0.442 0.082 0.132 0.148 0.238 0.199 0.32 0.109 0.238 0.16 0.531 0.16 0.879v0.039c0 0.375-0.012 0.695-0.039 0.961-0.027 0.242-0.039 0.426-0.039 0.558 0.051-0.078 0.094-0.199 0.117-0.359 0.133-1.012 0.203-1.613 0.203-1.801v-1c-0.027-0.05-0.054-0.117-0.082-0.199-0.054-0.105-0.066-0.387-0.039-0.84 0-0.371-0.054-0.613-0.16-0.718-0.055 0.16-0.094 0.414-0.121 0.757v0.121c-0.027 0.321-0.066 0.547-0.121 0.68-0.078-0.133-0.133-0.371-0.16-0.719 0-0.187-0.012-0.425-0.039-0.718-0.106-1.012-0.16-1.786-0.16-2.321-0.051-1.465-0.157-2.386-0.317-2.758 0.055 1.836-0.238 3.356-0.879 4.559zm0.879 6.719c-0.453 0.426-0.933 0.613-1.441 0.558-0.106 0-0.211-0.054-0.321-0.16l-0.078 0.039-0.281-0.277 0.039-0.039c-0.211-0.215-0.437-0.508-0.68-0.883-0.023-0.023-0.117-0.238-0.277-0.641-0.082-0.16-0.16-0.292-0.242-0.398v0.84c0.027 0.105 0.32 0.519 0.883 1.242 0.426 0.504 0.664 0.824 0.718 0.957 0.051 0.102 0.079 0.328 0.079 0.68 0.007-0.438 0.089-0.77 0.242-1v-0.238c0.105-0.055 0.226-0.055 0.359 0v0.078c0.051 0.027 0.117 0.07 0.199 0.121 0.188 0.109 0.282 0.426 0.282 0.961-0.028 0.933-0.016 1.625 0.039 2.078 0.187-0.293 0.281-1.117 0.281-2.481 0.051-0.636 0.133-1.132 0.238-1.48l-0.039 0.043z" inkscape:connector-curvature="0"/>
      <path id="path36" style="fill-rule:evenodd;fill:#93846f" d="m31.719 23.239 0.679-0.161h-1.078c-0.265-0.027-0.718-0.226-1.359-0.597-0.586-0.293-1.055-0.403-1.402-0.321 0.187 0.239 0.414 0.481 0.679 0.719l0.321 0.199 0.48 0.2c0.586 0.082 1.149 0.07 1.68-0.039zm-2.879 2.402v-0.16l-0.078-0.403-0.16-0.277-0.043 0.797v0.082l-0.039 0.879c-0.028 0.133-0.055 0.254-0.082 0.359-0.028 0.11-0.051 0.199-0.079 0.282-0.027 0.027-0.039 0.054-0.039 0.078 0.106-0.133 0.184-0.293 0.239-0.477l0.082-0.121c0.105-0.293 0.171-0.641 0.199-1.039zm-1.36-8.563c-0.082 0.215-0.121 0.829-0.121 1.84v0.082l-0.32 0.438 0.203 0.043 0.16 0.117c0.106 0.137 0.145 0.336 0.118 0.602v0.64c0.132 0.426 0.468 0.774 1 1.039-0.161-0.16-0.266-0.414-0.321-0.758-0.023-0.187-0.066-0.468-0.117-0.843-0.137-0.559-0.187-1.012-0.16-1.36 0-0.586-0.027-1.492-0.082-2.718l-0.36 0.878zm1.079-5.078-0.481 3.117c-0.023 0.083-0.039 0.149-0.039 0.204v0.117l0.16 0.121c0.028-0.082 0.106-0.387 0.239-0.922 0.109-0.371 0.253-0.664 0.441-0.879 0.027-0.027 0.242-0.215 0.641-0.558 0.242-0.215 0.414-0.442 0.519-0.68 0.508-1.043 0.719-1.856 0.641-2.442-0.215 0.563-0.52 1.082-0.918 1.563-0.215 0.316-0.403 0.48-0.563 0.48-0.16-0.027-0.238-0.148-0.238-0.363v-0.437l-0.16-0.321-0.242 1zm7.082-0.519-0.879-0.641c-0.321-0.215-0.617-0.348-0.883-0.402-0.133-0.024-0.359-0.039-0.68-0.039-0.078 0.242 0.215 0.468 0.879 0.679 0.43 0.161 0.684 0.293 0.762 0.403h0.801z" inkscape:connector-curvature="0"/>
    </g>
  </g>
<metadata><rdf:RDF><cc:Work><dc:format>image/svg+xml</dc:format><dc:type rdf:resource="http://purl.org/dc/dcmitype/StillImage"/><cc:license rdf:resource="http://creativecommons.org/licenses/publicdomain/"/><dc:publisher><cc:Agent rdf:about="http://openclipart.org/"><dc:title>Openclipart</dc:title></cc:Agent></dc:publisher></cc:Work><cc:License rdf:about="http://creativecommons.org/licenses/publicdomain/"><cc:permits rdf:resource="http://creativecommons.org/ns#Reproduction"/><cc:permits rdf:resource="http://creativecommons.org/ns#Distribution"/><cc:permits rdf:resource="http://creativecommons.org/ns#DerivativeWorks"/></cc:License></rdf:RDF></metadata></svg>
