<?xml version="1.0" encoding="UTF-8" standalone="no"?>
<!-- Created with Inkscape (http://www.inkscape.org/) -->
<svg xmlns:inkscape="http://www.inkscape.org/namespaces/inkscape" xmlns:rdf="http://www.w3.org/1999/02/22-rdf-syntax-ns#" xmlns="http://www.w3.org/2000/svg" xmlns:xlink="http://www.w3.org/1999/xlink" xmlns:ns1="http://sozi.baierouge.fr" xmlns:cc="http://creativecommons.org/ns#" xmlns:sodipodi="http://sodipodi.sourceforge.net/DTD/sodipodi-0.dtd" xmlns:dc="http://purl.org/dc/elements/1.1/" id="svg2" xml:space="preserve" viewBox="0 0 78.003 59.077" version="1.1" inkscape:version="0.91 r13725">
  <g id="g10" transform="matrix(1.25 0 0 -1.25 0 59.077)">
    <g id="g12">
      <path id="path14" style="fill-rule:evenodd;fill:#4e512f" d="m52.281 36.238c-0.054-0.375 0.106-0.641 0.481-0.801l0.039-0.039 1.679-0.281 1.641-0.238c0.746-0.161 1.254-0.282 1.52-0.36 0.613-0.187 1.011-0.402 1.199-0.64l-0.078-0.04 0.16-0.16c0-0.027 0.012-0.054 0.039-0.082 0-0.051-0.016-0.117-0.039-0.199-0.137-0.398-0.363-0.586-0.684-0.559 0.242-0.082 0.442-0.199 0.602-0.359 0.105-0.137 0.172-0.32 0.199-0.562v-0.239c-0.051-0.16-0.148-0.265-0.281-0.32-0.16-0.027-0.371-0.027-0.637 0l0.117-0.602c-0.906 0.082-1.601 0.161-2.078 0.243 0-0.161 0.09-0.36 0.278-0.602 0.16-0.238 0.226-0.453 0.199-0.641h-0.36l-0.039-0.039c-0.347 0.055-0.601 0.078-0.761 0.078-0.266 0.028-0.45-0.05-0.559-0.238-0.106-0.16-0.117-0.453-0.039-0.879-0.133-0.027-0.227-0.093-0.281-0.199-0.051-0.137-0.106-0.215-0.16-0.242l-0.079-0.039-0.519-0.039c0.055 0.023 0.105 0.105 0.16 0.238 0.055 0.266-0.227 0.668-0.84 1.199-0.535 0.426-0.949 0.68-1.238 0.762 0.746-0.188 1.383-0.227 1.918-0.121-0.028 0.32-0.227 0.668-0.602 1.039-0.426 0.375-0.718 0.656-0.879 0.84 0.188-0.078 0.465-0.184 0.84-0.321 0.348-0.132 0.653-0.156 0.922-0.078-0.215 0.239-0.523 0.536-0.922 0.879-0.586 0.481-0.922 0.762-1 0.84 0.692-0.348 1.492-0.519 2.399-0.519 0.187 0.48-0.051 0.921-0.719 1.32-0.559 0.348-1.238 0.558-2.039 0.641l-1.602-0.762c-0.664-0.293-1.105-0.559-1.316-0.797l-0.762-1.641c-0.375-0.215-0.668-0.386-0.883-0.519-0.023-0.028-0.05-0.043-0.078-0.043-0.426-0.211-0.773-0.25-1.039-0.117-0.187 0.078-0.336 0.254-0.441 0.519-0.106 0.266-0.242 0.453-0.399 0.559-0.855-0.239-1.468-0.387-1.843-0.438-0.637-0.054-0.93 0.293-0.879 1.039l-0.039-0.082h-0.02c-0.094-0.054-0.168-0.121-0.219-0.199l-0.16-0.121c-0.027 0-0.039-0.012-0.039-0.039l-0.082-0.078c-0.105-0.082-0.199-0.16-0.281-0.242-0.051-0.028-0.094-0.067-0.121-0.122-0.024 0-0.039-0.011-0.039-0.039-0.188-0.132-0.332-0.253-0.438-0.359l-0.32-0.281h-0.039c-0.906-0.586-1.426-0.438-1.563 0.441v0.039h-0.039c0.11 0.242-0.051 0.414-0.48 0.52-0.078 0.027-0.332 0.015-0.758-0.039-0.293 0-0.508 0.082-0.641 0.242l-0.679-0.402c-0.293-0.161-0.536-0.145-0.719 0.039-0.11 0.082-0.16 0.269-0.16 0.562-0.028 0.293-0.082 0.465-0.16 0.52-0.028-0.188-0.028-0.629 0-1.321-0.055-0.586-0.266-0.894-0.641-0.922-0.238-0.023-0.387 0.043-0.441 0.204 0 0.238-0.012 0.425-0.04 0.558-0.187-0.48-0.292-0.746-0.32-0.801-0.133-0.211-0.371-0.347-0.719-0.398-0.32-0.027-0.535 0.012-0.64 0.121-0.133 0.106-0.188 0.426-0.16 0.957-0.055-0.105-0.149-0.183-0.282-0.238-0.187-0.082-0.359-0.055-0.519 0.078 0.105 0.137 0.172 0.375 0.199 0.723 0.027 0.398 0.055 0.691 0.082 0.879 0.426-0.348 0.691-0.547 0.801-0.602 0.371-0.238 0.68-0.305 0.918-0.199 0.187 0.082 0.293 0.293 0.32 0.64 0.028 0.399 0.051 0.68 0.078 0.84 0.137 0 0.215-0.039 0.242-0.121 0.028 0.723 0.122 1.281 0.282 1.68 0.211 0.535 0.613 0.922 1.199 1.16 0-0.586-0.055-1.359-0.16-2.32 0.238-0.161 0.601-0.161 1.078 0 0.43 0.16 0.75 0.375 0.961 0.64-0.028-0.426-0.028-0.707 0-0.84 0.055-0.293 0.226-0.48 0.519-0.558 0.243-0.082 0.442-0.067 0.602 0.039 0.187 0.105 0.266 0.293 0.238 0.558 0.27-0.718 0.723-1.066 1.363-1.039 0.344 0.028 0.571 0.161 0.68 0.403 0.078 0.344 0.145 0.652 0.199 0.918 0.426-0.719 1.094-1.16 2-1.321 0.961-0.16 1.348 0.293 1.161 1.36 0.132-0.051 0.48-0.227 1.039-0.52 0.507-0.265 0.839-0.32 1-0.16 0.187 0.16 0.254 0.535 0.199 1.121-0.028 0.828-0.039 1.254-0.039 1.281 0.613-0.265 1.226-0.441 1.84-0.519v0.879l-0.118 0.801c0.079 0.16 0.2 0.226 0.356 0.199 0.055 0.055 0.203 0.078 0.441 0.078 0.082 0 0.133 0.16 0.16 0.48 0.055 0.614-0.199 1.149-0.757 1.602 0.265-0.082 0.425 0.105 0.48 0.559 0.051 0.48-0.082 0.773-0.402 0.878 0.215 0.055 0.347 0.204 0.402 0.442v0.68c0.078-0.293 0.106-0.571 0.078-0.84-0.051-0.106-0.093-0.215-0.117-0.321 0.184 0.243 0.625 0.454 1.316 0.641 0.75 0.215 1.243 0.215 1.481 0 0.269-0.238 0.293-0.668 0.082-1.281-0.027-0.106-0.215-0.52-0.563-1.238-0.105-0.161-0.25-0.254-0.437-0.282-0.027-0.078-0.039-0.144-0.039-0.199-0.027-0.051-0.043-0.121-0.043-0.199l-0.199-0.199 0.082-0.121c-0.133-0.239-0.215-0.387-0.242-0.442-0.028-0.027-0.051-0.051-0.079-0.078-0.109-0.082-0.242-0.133-0.402-0.16 0.109 0 0.215-0.016 0.32-0.039 0.133 0 0.282-0.028 0.442-0.082 0.051-0.028 0.133-0.055 0.238-0.078l-0.559-0.082c-0.374 0.027-0.64 0.039-0.8 0.039-0.293-0.024-0.453-0.172-0.481-0.438-0.027-0.187 0.043-0.508 0.199-0.961-0.238-0.238-0.679-0.359-1.316-0.359-0.297-0.106-0.441-0.215-0.441-0.32 0-0.106 0.027-0.321 0.078-0.641 0.027-0.426-0.145-0.719-0.52-0.879-0.48-0.082-0.851-0.16-1.117-0.242 0.691-0.078 1.359 0.121 2 0.601 0.133 0.106 0.652 0.614 1.559 1.52 0.187 0.187 0.386 0.32 0.601 0.402 0.106 0.051 0.305 0.117 0.598 0.199 0.32 0.106 0.64 0.344 0.961 0.719l0.398-0.32zm-41.242-11.641c-0.184-0.051-0.426-0.093-0.719-0.117 0.078 0.078 0.215 0.316 0.399 0.719 0.613 0.027 1.203 0.148 1.761 0.359v-0.558c-0.027-0.243 0-0.414 0.079-0.52 0.136-0.137 0.32-0.176 0.562-0.121 0.211 0.051 0.348 0.172 0.399 0.359 0.187-0.293 0.492-0.464 0.921-0.519 0.211 0 0.586 0.027 1.118 0.078l-0.039 0.242c0.027 0 0.359-0.094 1-0.281 0.425-0.106 0.773-0.149 1.039-0.121 0.296 0.027 0.468 0.094 0.519 0.203 0.027 0.184 0.043 0.371 0.043 0.559 0.481-0.055 0.785-0.028 0.918 0.078 0.106 0.082 0.16 0.254 0.16 0.523v0.637c0.106-0.078 0.266-0.278 0.481-0.598 0.215-0.215 0.441-0.215 0.679 0v-0.562c0.028-0.133 0.149-0.239 0.36-0.317 0.215-0.054 0.453-0.043 0.722 0.039 0.293 0.106 0.465 0.254 0.52 0.438-0.082-0.399 0.238-0.571 0.961-0.52 0.664 0.055 1.117 0.188 1.359 0.403 0.133-0.321 0.399-0.586 0.797-0.801-0.371 0-0.613 0.148-0.719 0.441-0.078-0.187-0.32-0.281-0.718-0.281-0.293 0.027-0.469 0.039-0.52 0.039-0.082 0-0.187-0.094-0.32-0.281 0-0.293-0.055-0.559-0.16-0.797-0.266-0.082-0.536-0.082-0.801 0-0.188 0.027-0.68 0.238-1.481 0.637 0-0.184-0.011-0.453-0.039-0.797-0.027-0.321-0.16-0.508-0.398-0.563-0.348-0.105-0.602 0-0.762 0.321-0.133 0.402-0.226 0.679-0.281 0.839-0.211-0.453-0.438-0.679-0.68-0.679-0.265 0-0.387 0.242-0.359 0.718-0.535-0.449-0.985-0.718-1.36-0.796-0.425 0.023-0.734 0.039-0.921 0.039l-0.2-0.282c-0.453 0.028-0.867 0.122-1.238 0.282-0.348 0.132-0.547 0.293-0.601 0.48-0.028 0.027-0.04 0.055-0.04 0.078-0.613-0.156-1.226-0.117-1.839 0.121-0.637 0.266-0.731 0.625-0.282 1.082-0.054-0.054-0.121-0.093-0.199-0.121-0.027-0.027-0.066-0.054-0.121-0.082zm-10.758 1.282c0.239 0.16 0.614 0.238 1.117 0.238 0.27 0 0.657-0.012 1.161-0.039 0 0.453 0.175 0.734 0.519 0.84 0 0.027 0.016 0.039 0.043 0.039 0.024 0 0.078 0.015 0.16 0.043h0.481c0.078 0 0.16-0.016 0.238-0.043 0.062-0.008 0.129-0.012 0.199-0.02 0.051-0.016 0.106-0.035 0.16-0.058l0.68-0.239c-0.051-0.508 0.133-0.816 0.563-0.922 0.398-0.105 0.664 0.106 0.796 0.641 0.161-0.215 0.375-0.387 0.641-0.52 0.32-0.16 0.586-0.214 0.801-0.16 0.055 0.028 0.148 0.117 0.281 0.278 0.106 0.136 0.211 0.226 0.32 0.281h0.84c-0.054-0.188-0.16-0.453-0.32-0.801 0.293-0.133 0.625-0.211 1-0.238-0.375-0.242-0.734-0.375-1.082-0.403-0.184-0.023-0.438-0.011-0.758 0.043-0.32 0.051-0.547 0.079-0.68 0.079-0.535-0.133-0.921-0.211-1.16-0.239l-0.562 0.078-0.278 0.161c-0.296 0.187-0.496 0.32-0.601 0.402-0.188 0.078-0.426 0.105-0.719 0.078-1.121-0.078-2.055-0.027-2.801 0.16-0.425 0.16-0.773 0.266-1.039 0.321zm25.598-1.961c0.613-0.051 0.961 0.226 1.043 0.839 0.105 0.028 0.371 0.039 0.797 0.039 0.32 0 0.574 0.043 0.761 0.122 0.051 0.187 0.067 0.308 0.04 0.359 0.214 0 0.613 0.016 1.199 0.043 0.508 0.027 0.816 0.16 0.922 0.398 0.027 0.055 0.027 0.161 0 0.321-0.028 0.132 0.011 0.238 0.121 0.32 0.133 0.078 0.437 0.094 0.918 0.039v0.121c-0.215 0.027-0.403 0.094-0.559 0.199-0.16 0.161-0.148 0.321 0.039 0.481 0.078 0.078 0.227 0.148 0.438 0.199l-0.278 0.281c0.559-0.105 0.653 0.133 0.278 0.719-0.293 0.481-0.598 0.84-0.918 1.082-0.106 0.078-0.508 0.277-1.2 0.598l-0.281 0.121-0.16 0.121-0.398 0.437c-0.375 0.375-0.789 0.614-1.243 0.723l-0.32 0.039c-0.133 0.027-0.359 0.039-0.68 0.039l-1.519-0.039c-0.535 0-0.84 0.067-0.918 0.199 0-0.054-0.027-0.054-0.082 0l-0.32 0.161c-0.161 0.078-0.282 0.144-0.36 0.199-0.16 0.054-0.293 0.054-0.398 0 0-0.055-0.016-0.172-0.043-0.36-0.985 0.188-1.746 0.282-2.278 0.282-0.292-0.028-0.48-0.067-0.562-0.121-0.023-0.055-0.106-0.2-0.238-0.442-0.293-0.348-0.707-0.547-1.242-0.598h-0.04c0.215 0.344 0.348 0.571 0.403 0.68 0.027 0.055 0.039 0.094 0.039 0.121-0.215-0.027-0.453 0.051-0.719 0.239-0.266 0.16-0.426 0.238-0.48 0.238-0.188 0-0.547-0.051-1.082-0.16-0.426-0.106-0.825-0.118-1.2-0.039-0.078 0.105-0.121 0.226-0.121 0.359-0.293 0.027-0.519 0.055-0.679 0.082-0.266 0.027-0.481 0.094-0.637 0.199 0.105 0.106 0.223 0.293 0.359 0.559 0.106 0.297 0.211 0.496 0.321 0.601 0.105 0.078 0.226 0.149 0.359 0.2 0.105-0.161 0.133-0.481 0.078-0.961 0.563-0.211 1.414-0.067 2.563 0.441-0.055-0.078-0.067-0.227-0.043-0.441 0.402-0.184 0.949-0.211 1.64-0.078 0.723 0.132 1.16 0.398 1.321 0.8-0.079-0.347-0.079-0.562 0-0.64 0.132-0.243 0.468-0.293 1-0.16 0.535 0.105 0.855 0.281 0.96 0.519-0.082-0.559 0.215-0.852 0.879-0.879 0.668-0.027 1.082 0.172 1.243 0.598 0-0.399 0.265-0.52 0.796-0.36 0.481 0.161 0.79 0.375 0.922 0.641-0.027-0.559 0.293-0.812 0.961-0.758 0.586 0.051 0.907 0.465 0.957 1.239 0.028-0.399 0.137-0.762 0.321-1.083 0.242-0.343 0.535-0.531 0.882-0.558 0.348-0.106 0.559-0.055 0.637 0.16 0-0.906 0.348-1.375 1.043-1.398l0.399 0.039c-0.106-0.215-0.254-0.36-0.442-0.442-0.238-0.078-0.598-0.023-1.078 0.16-0.508 0.188-0.855 0.414-1.039 0.68 0.453-0.984 1.266-1.558 2.437-1.719l0.122-0.039c0.425-0.054 0.707-0.121 0.839-0.199 0.215-0.137 0.309-0.402 0.282-0.801 0.32-0.105 0.597-0.281 0.839-0.519 0.293-0.297 0.375-0.586 0.243-0.883-0.11-0.266-0.309-0.332-0.602-0.199l-0.043-0.239 0.082-1.082c0.055-0.586 0-0.984-0.16-1.199l-0.039-0.039-0.199-0.16c-0.321-0.133-0.801-0.148-1.442-0.039-0.691 0.184-1.187 0.293-1.48 0.32 0.027-0.48-0.094-0.883-0.36-1.203-0.265-0.348-0.64-0.492-1.121-0.437-0.347 0.023-0.574 0.144-0.679 0.359-0.055 0.133-0.094 0.398-0.121 0.801-0.133-0.242-0.371-0.414-0.719-0.52-0.399-0.082-0.695-0.015-0.879 0.199l-0.082 0.079zm27.723 4.16c0.343 0 0.597 0.039 0.757 0.121 1.36 0.105 2.106 0.039 2.243-0.199 0.238-0.375 0.078-0.641-0.481-0.801-0.695-0.082-1.094-0.133-1.199-0.16-0.137-0.055-0.375-0.215-0.723-0.481-0.293-0.215-0.558-0.347-0.801-0.398-0.531-0.11-0.851-0.067-0.957 0.117-0.269-0.211-0.828-0.266-1.679-0.16v0.242c-0.485-0.32-1.121-0.535-1.922-0.641-0.934-0.054-1.613-0.093-2.039-0.121-1.016 0-1.574-0.039-1.68-0.117v0.199c-0.027-0.027-0.055-0.039-0.082-0.039l-0.199-0.082c-0.106-0.027-0.215-0.039-0.32-0.039h-0.68c-0.266 0-0.481 0.012-0.641 0.039-0.32 0.055-0.531 0.133-0.64 0.238l-0.161 0.243c0.215 0.398 0.563 0.558 1.043 0.48-0.027-0.105-0.027-0.199 0-0.281 0.399-0.16 0.813-0.227 1.239-0.199 0.508 0.027 0.707 0.254 0.601 0.679 0.133 0.078 0.442 0.078 0.918 0 0.426-0.054 0.707-0.011 0.84 0.121 0.133 0.106 0.215 0.266 0.242 0.481 0.028 0.184-0.015 0.344-0.121 0.476 0.266-0.156 0.641-0.277 1.121-0.359 0.453-0.051 0.824-0.051 1.117 0 0.082 0.188 0.067 0.375-0.039 0.563 0.852-0.243 1.586-0.336 2.2-0.282 0.027 0.188 0 0.36-0.079 0.52-0.132 0.187-0.242 0.336-0.32 0.441 0.133-0.027 0.508-0.148 1.117-0.359 0.618-0.188 1.055-0.27 1.325-0.242z" inkscape:connector-curvature="0"/>
      <path id="path16" style="fill-rule:evenodd;fill:#6d7247" d="m50.961 38.199v-0.121c-0.082-0.133-0.176-0.321-0.281-0.559l-0.082-0.082c0.027 0.055 0.109 0.203 0.242 0.442l-0.082 0.121 0.203 0.199zm5.32-8.442c-0.082-0.183-0.176-0.414-0.281-0.679-0.078-0.16-0.16-0.293-0.238-0.399 0.105 0.16 0.265 0.504 0.476 1.039l0.043 0.039zm-4 6.481-0.402 0.32c-0.184 0.16-0.438 0.305-0.758 0.442-0.109 0.023-0.187 0.05-0.242 0.078 0.48-0.106 0.949-0.387 1.402-0.84zm-3.082 5.68c-0.16 0.507-0.453 0.906-0.879 1.199 0.801-0.477 1.118-1.16 0.957-2.039 0.032 0.265 0.004 0.547-0.078 0.84zm5.281-6.801-1.679 0.281-0.039 0.039 1.718-0.32zm4.481-1.52c-0.027 0.028-0.039 0.055-0.039 0.082l-0.082 0.2c-0.188 0.238-0.586 0.453-1.199 0.64 0.105-0.027 0.171-0.039 0.199-0.039 0.508-0.187 0.84-0.387 1-0.601 0.055-0.083 0.094-0.172 0.121-0.282zm-0.121-1.117c-0.16 0.16-0.36 0.277-0.602 0.359 0.321-0.027 0.551 0.161 0.684 0.559-0.082-0.348-0.254-0.547-0.52-0.602 0.184-0.05 0.332-0.156 0.438-0.316zm-0.918-2.684 0.039 0.043c0.266 0.106 0.359 0.415 0.277 0.918l-0.117 0.602c0.238-0.855 0.199-1.359-0.121-1.52-0.023 0-0.051-0.015-0.078-0.043zm-38.563-8.839c0.161-0.051 0.321-0.09 0.481-0.118-0.106 0-0.215 0.012-0.32 0.04-0.055 0.027-0.106 0.05-0.161 0.078zm-5.839 2.562c0.054-0.187 0.253-0.348 0.601-0.48 0.371-0.16 0.785-0.254 1.238-0.282 0.243-0.027 0.453-0.027 0.641 0-0.348-0.078-0.773-0.05-1.281 0.082-0.719 0.133-1.117 0.36-1.199 0.68zm-7.801 1.238 0.562-0.078c1.758-0.242 3.106-0.308 4.039-0.199 0.293 0.024 0.535 0.066 0.719 0.117-0.48-0.16-1.371-0.211-2.68-0.16-1.148 0.082-2.214 0.215-3.199 0.402l0.559-0.082zm-3.16 1.321c-0.504 0.027-0.891 0.039-1.161 0.039-0.503 0-0.878-0.078-1.117-0.238l-0.281-0.321c0.16 0.348 0.535 0.535 1.121 0.559 0.32 0.027 0.801 0.015 1.438-0.039zm1.8 0.801c-0.054 0.023-0.109 0.042-0.16 0.058 0.383-0.055 0.891-0.129 1.52-0.219-0.133-0.027-0.586 0.028-1.36 0.161zm24.68 3.441 0.16-0.121 0.121-0.121c0.055-0.055 0.121-0.16 0.2-0.321 0.054-0.105 0.148-0.199 0.281-0.277 0.133-0.082 0.359-0.203 0.679-0.363 0.293-0.16 0.399-0.387 0.321-0.68-0.106-0.453-0.469-0.598-1.082-0.437 0.16-0.188 0.203-0.653 0.121-1.403-0.828-0.238-1.668-0.183-2.52 0.16 0.055-0.984-0.613-1.277-2-0.878-1.332 0.398-1.894 0.917-1.679 1.558-0.133-0.348-0.414-0.625-0.84-0.84-0.426-0.238-0.84-0.304-1.242-0.199 0.027 0.398 0.226 0.895 0.601 1.481-0.082 0.078-0.348 0.105-0.801 0.078-0.398-0.051-0.613 0.015-0.64 0.203-0.024 0.238 0.16 0.437 0.562 0.597-1.043-0.078-1.668-0.171-1.883-0.277 0.028-0.187 0.055-0.496 0.082-0.922 0-0.027 0.094-0.121 0.282-0.281 0.105-0.106 0.144-0.227 0.117-0.359-0.051-0.106-0.145-0.145-0.277-0.122-0.133 0.028-0.227 0.016-0.282-0.039-0.132-0.132-0.199-0.347-0.199-0.64-0.828-0.078-1.613 0.176-2.359 0.762 0-0.586-0.082-0.989-0.242-1.2-0.454 0.051-0.813 0.266-1.079 0.641-0.269 0.476-0.496 0.84-0.679 1.078-0.055-0.133-0.121-0.375-0.203-0.719-0.079-0.32-0.227-0.468-0.438-0.441-0.375 0.027-0.652 0.469-0.84 1.32-0.109-0.293-0.32-0.574-0.64-0.84-0.348-0.265-0.668-0.386-0.961-0.359v1.199c-0.16-0.054-0.387-0.172-0.68-0.359-0.293-0.16-0.52-0.266-0.68-0.32-0.16 0.16-0.066 0.546 0.282 1.16-0.297-0.082-0.641-0.094-1.043-0.039 0 0.238 0.187 0.492 0.562 0.757-0.961-0.183-1.762-0.211-2.402-0.078 0.027 0.184 0.187 0.332 0.48 0.438 0.426 0.187 0.656 0.297 0.68 0.32l-0.399 0.082c0.028 0 0.051 0.012 0.079 0.039 0.453 0.238 0.988 0.332 1.601 0.281 0.293-0.027 0.719-0.109 1.281-0.242 0.481-0.051 0.786 0.11 0.918 0.481 0.403 0.027 0.946-0.133 1.641-0.481 0 0.082 0.055 0.227 0.16 0.442 0.078 0.187 0.121 0.332 0.121 0.441 0.16-0.055 0.332-0.109 0.52-0.16 0.105-0.055 0.199-0.176 0.277-0.363 0.055 0.855 0.762 1.015 2.121 0.48 1.309-0.558 2.067-1.16 2.281-1.797-0.054 0.426 0.106 0.77 0.481 1.039v0.36c-0.402 0.05-0.707 0.105-0.922 0.16-0.293 0.078-0.519 0.187-0.68 0.32 0.215-0.16 0.629-0.293 1.243-0.402 0.16 0.375 0.277 0.613 0.359 0.722 0.184 0.211 0.437 0.25 0.758 0.118l0.082-0.039c0.105 0.535 0.664 0.628 1.679 0.281l-0.199-0.16c0.129-0.235 0.321-0.352 0.578-0.36-1.187-0.004-1.82-0.324-1.898-0.961 0.32-0.214 0.906-0.347 1.758-0.398 0.855-0.027 1.453 0.051 1.801 0.238-0.133-0.078-0.399-0.347-0.801-0.801 0.16-0.16 0.386-0.199 0.679-0.117 0.215 0.078 0.414 0.211 0.602 0.399 0.215-0.746 0.707-1.055 1.48-0.922 0.051 0.64 0.012 1.043-0.121 1.203 0.348-0.375 0.696-0.563 1.039-0.563 0.082 0.321 0.055 0.614-0.078 0.883-0.027 0.051-0.215 0.317-0.558 0.797 0.183 0.137 0.543 0.16 1.078 0.082v0.238l0.082-0.117c0.156-0.082 0.305-0.121 0.437-0.121l0.68-0.199zm-8.238 0.199c0.187-0.027 0.265 0.012 0.238 0.121-0.027 0.106-0.105 0.199-0.238 0.278-0.028-0.106-0.028-0.239 0-0.399zm6.597 0.961 0.122-0.203-0.481 0.043h-0.078l0.117 0.199 0.32-0.039zm-1 0.078 0.321-0.238-1.321 0.078v0.121h-0.519l0.199-0.082h-0.039c-0.691 0.055-1.227 0.067-1.598 0.043 0.079 0.106 0.227 0.184 0.438 0.238 0.055-0.054 0.082-0.054 0.082 0 0.078-0.132 0.387-0.199 0.918-0.199l1.519 0.039zm-9.359 2.321c-0.238-0.106-0.586-0.106-1.039 0-0.16 0.027-0.305 0.039-0.441 0.039 0.082 0.027 0.175 0.027 0.281 0 0.586-0.106 0.988-0.122 1.199-0.039zm25.199 7.48v0.078l-1.476-0.117c-0.617-0.215-0.91-0.547-0.883-1-0.348-0.055-0.613-0.121-0.801-0.203 0.234-0.258 0.652-0.363 1.262-0.321-0.602-0.062-0.914-0.261-0.942-0.597 0-0.266 0.133-0.414 0.403-0.442 0.183-0.027 0.371 0 0.558 0.082-0.187-0.109-0.359-0.265-0.519-0.48-0.215-0.348-0.215-0.613 0-0.801 0.265-0.265 0.547-0.199 0.84 0.199 0.215 0.243 0.375 0.547 0.48 0.922 0.051-0.054 0.149-0.226 0.281-0.519 0.133-0.321 0.25-0.52 0.36-0.602 0.187-0.187 0.414-0.332 0.679-0.441 0.399-0.184 0.668-0.172 0.801 0.043 0.051 0.078 0.067 0.183 0.039 0.32-0.027 0.16 0.016 0.277 0.121 0.359 0.079 0.051 0.282 0.067 0.598 0.04 0.402-0.028 0.629-0.04 0.684-0.04 0.183 0.559-0.016 0.946-0.602 1.161-0.723 0.132-1.215 0.277-1.48 0.437l-1.762 0.68-0.117 0.082c0.851 0 1.347 0.238 1.48 0.719 2.504-1.039 3.625-1.758 3.36-2.161-0.11-0.211-0.266-0.211-0.481 0 0.453-0.558 0.652-1.265 0.602-2.117-0.297-0.082-0.657-0.043-1.082 0.117-0.481 0.188-0.84 0.321-1.082 0.403-0.024-0.242-0.012-0.563 0.043-0.961 0-0.293-0.161-0.469-0.481-0.52-0.32-0.054-0.695 0-1.121 0.16-0.348 0.106-0.574 0.239-0.68 0.399 0.188-0.719-0.027-1.012-0.64-0.879-0.692 0.133-1.067 0.531-1.121 1.199-0.079-0.508-0.426-0.695-1.039-0.558-0.028 0.183 0 0.437 0.082 0.757 0.05 0.348 0.078 0.602 0.078 0.762-0.399-0.215-0.719-0.359-0.957-0.441-0.457-0.133-0.778-0.106-0.961 0.082 0.211 0.398 0.574 0.84 1.078 1.32 0.773 0.691 1.187 1.078 1.242 1.16-0.508-0.082-0.894-0.094-1.16-0.043 0.078 0.242 0.387 0.614 0.918 1.121 0.508 0.426 0.75 0.828 0.722 1.2 0-0.239-0.175-0.36-0.523-0.36h-0.758c-0.16-0.558-0.265-0.879-0.32-0.961-0.16-0.265-0.387-0.172-0.68 0.282 0.133-1.04 0.184-1.696 0.16-1.961-0.293-0.079-0.64-0.067-1.043 0.039-0.398 0.136-0.691 0.32-0.878 0.562 0.265-0.562 0.375-1.254 0.32-2.082-0.188-0.105-0.492-0.094-0.918 0.043-0.563 0.184-0.867 0.277-0.922 0.277 0.133-0.398 0.16-0.773 0.078-1.117-0.426-0.082-0.73 0-0.918 0.239 0.188-0.426 0.227-0.856 0.121-1.282-0.347-0.105-0.906 0.094-1.679 0.602-0.028-0.215-0.067-0.574-0.122-1.082-0.082-0.399-0.335-0.559-0.761-0.477-0.692 0.106-1.078 0.813-1.16 2.117 0-0.371-0.094-0.691-0.278-0.961-0.242-0.343-0.535-0.464-0.883-0.359-0.343 0.109-0.519 0.402-0.519 0.883-0.024 0.531-0.117 0.851-0.277 0.957-0.215-0.531-0.348-0.852-0.403-0.957-0.265-0.402-0.547-0.524-0.84-0.363-0.265 0.136-0.347 0.722-0.238 1.761-0.082-0.425-0.293-0.828-0.641-1.199-0.425-0.426-0.839-0.562-1.242-0.402-0.05 0.297-0.05 0.679 0 1.16 0.082 0.586 0.121 0.961 0.121 1.121-0.851-1.012-1.293-1.535-1.32-1.559-0.613-0.585-1.184-0.894-1.719-0.921v0.199c-0.347-0.266-0.761-0.438-1.242-0.52-0.476-0.105-0.906-0.105-1.277 0 0.078 0.403 0.238 0.735 0.48 1-0.613-0.64-1.269-1.093-1.961-1.359 0.078-0.027 0.188-0.055 0.321-0.078-0.215 0.023-0.375 0.066-0.481 0.117 0.051 0.055 0.106 0.176 0.16 0.363 0.028 0.156 0.078 0.278 0.16 0.36-0.96 0.023-1.734 0.117-2.32 0.277-0.238 0.055-0.441 0.121-0.601 0.203 0.082 0.316 0.519 0.41 1.32 0.277-0.664 0.243-1.012 0.653-1.039 1.243 0 0.613 0.414 0.839 1.238 0.679-0.426 0.16-0.73 0.465-0.918 0.918 0.375 0.188 0.84 0.242 1.399 0.16 0.507-0.05 0.949-0.211 1.32-0.48 0.027 0.535 0.066 0.934 0.121 1.203l0.281-0.043c-0.375 0.188-0.562 0.496-0.562 0.922 0.027 0.293 0.082 0.453 0.16 0.48 0.16 0 0.281 0.04 0.359 0.118 0.27 0.082 0.469 0.226 0.602 0.441 0.055 0.082 0.066 0.242 0.039 0.481 0 0.265 0.016 0.441 0.043 0.519 0.156 0.027 0.613 0 1.359-0.078 0.051 0.476 0.117 0.812 0.199 1 1.758-0.828 2.813-1.414 3.161-1.762-0.215 0.375-0.254 0.774-0.121 1.199 1.066 0.055 1.906-0.171 2.519-0.679 0.027 0.054 0.066 0.336 0.121 0.84 0.028 0.293 0.215 0.48 0.559 0.562 0.242 0.051 0.586-0.043 1.043-0.281 0.449-0.242 0.797-0.336 1.039-0.281l0.078 0.519c0.055 0 0.148 0.016 0.281 0.043 0.133 0.024 0.238 0.024 0.32 0-0.402 0.504-0.175 0.774 0.68 0.797 0.481 0.027 1.094 0.016 1.84-0.039-0.16 0.32-0.199 0.652-0.121 1 0.269 0.027 0.656 0.016 1.16-0.039 0 0.375 0.215 0.574 0.641 0.597 0.265 0.028 0.64 0 1.121-0.078l-0.039-0.039c0.398 0.16 0.797 0.2 1.199 0.117 0.398-0.05 0.586-0.222 0.559-0.519 0.16 0.348 0.441 0.613 0.839 0.801 0.453 0.215 0.852 0.242 1.2 0.082 0.347-0.16 0.601-0.52 0.761-1.082 0.051-0.239 0.118-0.68 0.2-1.321 0.48 0.403 0.851 0.266 1.121-0.398 0.238-0.668 0.199-1.309-0.121-1.922 0.668 0.535 1.453 0.856 2.359 0.961v-1.398c0.133-0.028 0.332-0.043 0.601-0.043 0.184-0.051 0.254-0.184 0.2-0.399-0.055-0.238-0.532-0.304-1.442-0.199zm5.364 2.078c-0.243 0.082-0.497 0.149-0.762 0.203-1.254 0.184-2.16-0.109-2.719-0.883 0.691 1.016 1.801 1.266 3.32 0.762l0.161-0.082zm6-15.359-0.481 0.039 0.719 0.043 0.519 0.039c-0.16-0.082-0.414-0.121-0.757-0.121zm-11.043-2.282c-0.239 0.27-0.321 0.497-0.239 0.684-0.054-0.137-0.027-0.281 0.078-0.441l0.161-0.243zm2.242 4.801-0.602 0.321c0.266 0 0.547-0.039 0.84-0.122 0.055 0 0.094-0.011 0.121-0.039l-0.84 0.122 0.481-0.282zm-4.16-2.48c0 0.187 0.05 0.402 0.16 0.64l0.16 0.282 0.199 0.238c0.238-0.293 0.785-0.492 1.641-0.598 0.851-0.105 1.437-0.066 1.758 0.117 0.242 0.11 0.441 0.497 0.601 1.161 0.559-0.399 0.828-0.84 0.801-1.317 0-0.16-0.055-0.375-0.16-0.64-0.508-0.11-0.922-0.067-1.242 0.117-0.133-0.719-0.774-0.934-1.918-0.637-0.082 0.238-0.082 0.531 0 0.879-0.055-0.133-0.188-0.266-0.403-0.402-0.293-0.133-0.613-0.227-0.957-0.278-0.402 0-0.613 0.145-0.64 0.438zm-2.922 16.523c0.109 0.664-0.305 0.852-1.239 0.559l-0.121 0.48c-0.371 0.133-0.64 0.051-0.8-0.242h-2.118c-0.293 0.055-0.679 0.016-1.16-0.117-0.48-0.137-0.816-0.309-1-0.524 0.106-0.105 0.321-0.183 0.641-0.238l-0.199-0.078c-0.883-0.297-1.883-0.684-3.004-1.16-0.078-0.055-0.278-0.281-0.598-0.68 0.238-0.215 0.774-0.254 1.598-0.121 0.054-0.187-0.067-0.426-0.36-0.723-0.32-0.343-0.492-0.585-0.519-0.718 0.293-0.133 0.629-0.106 1 0.082-0.559-0.696-0.68-1.137-0.36-1.321l0.04-0.043-1.04-0.636c-0.402-0.375-0.679-0.801-0.839-1.281 0.531-0.215 0.984-0.083 1.359 0.398 0.348 0.695 0.586 1.187 0.719 1.48 0.269-0.05 0.519 0.133 0.761 0.563 0.215 0.504 0.348 0.824 0.399 0.957l0.043-1.438c0.293-0.082 0.492 0.118 0.598 0.598 0.082 0.535 0.16 0.867 0.242 1 0.851-0.32 1.277 0.027 1.277 1.043 0.109 0.024 0.563 0.012 1.359-0.043 0.696 0.027 0.989 0.188 0.883 0.481 0.106 0.082 0.442 0.148 1 0.199 0.481 0.027 0.758 0.176 0.84 0.441 0.106 0.238 0.051 0.414-0.16 0.52 0.453 0.054 0.707 0.242 0.758 0.562zm-1.481-14.64c-0.265-0.586-0.531-0.934-0.797-1.043 0.266 0.136 0.532 0.507 0.797 1.121v-0.078zm3 1.597c-0.027 0-0.05-0.011-0.078-0.039 0 0.028 0.012 0.039 0.039 0.039h0.039zm4.602-0.64-0.078-0.039h-0.242v0.039h0.32zm-1.301 1.64c-0.039-0.027-0.059-0.054-0.059-0.078-0.054-0.027-0.105-0.066-0.16-0.121 0.051 0.078 0.125 0.145 0.219 0.199zm-9.539-8.039c-0.055-0.375-0.199-0.547-0.441-0.519 0.082 0 0.16 0.039 0.242 0.121 0.078 0.105 0.133 0.226 0.16 0.359l0.039 0.039zm-5.719 14.481c0.879 0.347 1.332 0.746 1.36 1.199l-0.282 0.402c-0.347 0.024-0.879-0.148-1.597-0.523-0.774-0.371-1.11-0.731-1-1.078 0.105-0.348 0.613-0.348 1.519 0zm-1.562 1.199c0.242 0.348 0.187 0.586-0.16 0.719 0.48 0.347 0.347 0.64-0.399 0.882-0.508 0-0.879 0.012-1.121 0.04-0.371 0.054-0.57 0.304-0.598 0.761l-2.16 0.278c-0.082 0.105-0.293 0.16-0.64 0.16-0.375 0.027-0.602-0.028-0.68-0.16-0.133-0.239-0.016-0.426 0.359-0.559 0.321-0.105 0.602-0.148 0.84-0.121-0.801-0.348-1.375-0.746-1.719-1.199-0.562-0.934-0.546-1.254 0.039-0.961-0.054-0.188-0.253-0.598-0.601-1.239-0.238-0.562-0.238-0.96 0-1.199 0.266 0 0.496 0.117 0.68 0.36-0.184-0.426-0.278-0.707-0.278-0.84 0.641 0 1.133 0.105 1.481 0.32 0.316 0.184 0.543 0.492 0.679 0.918 0.079 0.481 0.172 0.84 0.278 1.082l-0.039-0.441c0.48-0.106 0.867-0.082 1.16 0.078 0.265 0.109 0.426 0.297 0.48 0.562 0.078 0.399 0.133 0.641 0.16 0.719 0.161-0.027 0.547-0.105 1.161-0.238 0.586-0.11 0.945-0.082 1.078 0.078zm-10.559-3.961 1.121-0.16 0.117 0.64c-0.078-0.105-0.253-0.211-0.519-0.32-0.266-0.105-0.504-0.16-0.719-0.16zm1.602-8.039c0.16 0.133 0.199 0.387 0.117 0.762 0.215-0.082 0.574-0.149 1.082-0.204 0.133 0.563-0.188 0.883-0.961 0.961-1.012 0.106-1.586 0.227-1.719 0.36l-0.64-0.559c-0.348 0.055-0.813 0.028-1.403-0.078-0.664-0.137-1.066-0.32-1.199-0.562 0.188-0.211 0.547-0.332 1.082-0.36 0.504-0.027 0.973 0.028 1.399 0.16-0.215-0.214-0.305-0.414-0.282-0.601 0.563-0.106 0.95-0.117 1.16-0.039 0.11 0.054 0.243 0.176 0.403 0.359 0.105 0.16 0.254 0.215 0.437 0.16 0.055 0 0.121-0.093 0.203-0.277 0.079-0.137 0.184-0.16 0.321-0.082z" inkscape:connector-curvature="0"/>
      <path id="path18" style="fill-rule:evenodd;fill:#585d3b" d="m4.359 26.879c0.774-0.133 1.227-0.188 1.36-0.161l-0.16 0.879c-0.079 0.426-0.051 0.707 0.082 0.84 0.132 0.137 0.398 0.188 0.8 0.16 0.184 0 0.481-0.011 0.879-0.039-0.027 0.133 0.028 0.254 0.16 0.36-0.187 0.082-0.292 0.16-0.32 0.242 0.238 0.023 0.52 0.078 0.84 0.16l0.121 0.039c0.078 0.051 0.184 0.105 0.32 0.16h0.039l0.399-0.082c-0.024-0.027-0.254-0.133-0.68-0.32-0.293-0.106-0.453-0.25-0.48-0.438 0.64-0.133 1.441-0.105 2.402 0.078-0.375-0.265-0.562-0.519-0.562-0.757 0.402-0.055 0.746-0.043 1.043 0.039-0.348-0.614-0.442-1-0.282-1.16 0.16 0.054 0.387 0.16 0.68 0.32 0.293 0.187 0.52 0.305 0.68 0.359v-1.199c0.293-0.027 0.613 0.094 0.961 0.359 0.32 0.266 0.531 0.547 0.64 0.84 0.184-0.851 0.465-1.293 0.84-1.32 0.211-0.027 0.359 0.121 0.438 0.441 0.082 0.344 0.148 0.586 0.203 0.719 0.183-0.238 0.41-0.602 0.679-1.078 0.266-0.375 0.625-0.59 1.079-0.641 0.16 0.211 0.242 0.614 0.242 1.2 0.746-0.586 1.531-0.84 2.359-0.762 0 0.297 0.067 0.508 0.199 0.64 0.055 0.055 0.149 0.067 0.282 0.039 0.132-0.023 0.226 0.016 0.277 0.122 0.027 0.132-0.012 0.253-0.117 0.359-0.188 0.16-0.282 0.254-0.282 0.281-0.027 0.426-0.054 0.735-0.082 0.922 0.215 0.106 0.84 0.199 1.883 0.277-0.402-0.16-0.586-0.359-0.562-0.597 0.027-0.188 0.242-0.254 0.64-0.203 0.453 0.027 0.719 0 0.801-0.078-0.375-0.586-0.574-1.083-0.601-1.481 0.402-0.105 0.816-0.039 1.242 0.199 0.426 0.215 0.707 0.496 0.84 0.84-0.215-0.641 0.347-1.16 1.679-1.558 1.387-0.399 2.055-0.106 2 0.878 0.852-0.347 1.692-0.398 2.52-0.16 0.082 0.75 0.039 1.215-0.121 1.403 0.613-0.161 0.976-0.016 1.082 0.437 0.078 0.293-0.028 0.52-0.321 0.68-0.32 0.16-0.546 0.281-0.679 0.363-0.133 0.078-0.227 0.172-0.281 0.277-0.079 0.161-0.145 0.266-0.2 0.321l-0.121 0.121 0.281-0.121c0.692-0.321 1.094-0.52 1.2-0.598 0.32-0.242 0.629-0.601 0.922-1.082 0.371-0.586 0.277-0.824-0.282-0.719l0.282-0.281c-0.215-0.051-0.364-0.121-0.442-0.199-0.187-0.16-0.199-0.32-0.039-0.481 0.16-0.105 0.344-0.172 0.559-0.199v-0.121c-0.481 0.055-0.785 0.039-0.918-0.039-0.106-0.082-0.149-0.188-0.121-0.32 0.027-0.16 0.027-0.266 0-0.321-0.106-0.238-0.414-0.371-0.918-0.398-0.59-0.027-0.989-0.043-1.203-0.043 0.027-0.051 0.015-0.172-0.04-0.359-0.187-0.079-0.441-0.122-0.757-0.122-0.43 0-0.696-0.011-0.801-0.039-0.082-0.613-0.426-0.894-1.043-0.839-0.024 0.293-0.051 0.519-0.078 0.679-0.133-0.211-0.375-0.343-0.719-0.398-0.402 0.215-0.668 0.48-0.801 0.801-0.242-0.215-0.695-0.348-1.359-0.403-0.723-0.051-1.043 0.121-0.961 0.52-0.055-0.184-0.227-0.332-0.52-0.438-0.265-0.082-0.507-0.093-0.718-0.039-0.215 0.078-0.336 0.184-0.364 0.317v0.562c-0.238-0.215-0.464-0.215-0.679 0-0.211 0.32-0.371 0.52-0.481 0.598v-0.637c0-0.269-0.051-0.441-0.16-0.523-0.133-0.106-0.437-0.133-0.918-0.078 0-0.188-0.016-0.375-0.039-0.559-0.055-0.109-0.227-0.176-0.52-0.203-0.269-0.024-0.617 0.015-1.042 0.121-0.641 0.187-0.973 0.281-1 0.281l0.042-0.242c-0.535-0.051-0.906-0.078-1.121-0.078-0.425 0.055-0.734 0.226-0.921 0.519-0.051-0.187-0.184-0.304-0.399-0.359-0.242-0.055-0.426-0.016-0.559 0.121-0.082 0.106-0.109 0.277-0.082 0.52v0.558c-0.558-0.215-1.148-0.332-1.757-0.359 0.132 0.375 0.183 0.625 0.156 0.758-0.184-0.184-0.492-0.438-0.918-0.758-0.375 0.027-0.707 0.105-1 0.238 0.16 0.348 0.266 0.613 0.32 0.801h-0.84c-0.105-0.055-0.214-0.149-0.32-0.281-0.133-0.161-0.226-0.25-0.281-0.278-0.215-0.054-0.481 0-0.801 0.16-0.266 0.133-0.48 0.305-0.641 0.52-0.132-0.535-0.398-0.746-0.796-0.641-0.43 0.106-0.614 0.414-0.563 0.922l-0.68 0.239zm19.52 4.839c-0.211-0.054-0.359-0.132-0.438-0.238-0.375 0-0.695-0.094-0.961-0.281-1.015 0.347-1.574 0.254-1.679-0.281l-0.082 0.039c-0.321 0.136-0.574 0.093-0.758-0.118-0.082-0.109-0.199-0.347-0.359-0.722-0.614 0.109-1.028 0.242-1.243 0.402l-0.078 0.078 0.117 0.242h0.043c0.532 0.051 0.946 0.25 1.239 0.598 0.132 0.242 0.215 0.387 0.242 0.442 0.078 0.054 0.266 0.093 0.558 0.121 0.532 0 1.293-0.094 2.282-0.282 0.023 0.188 0.039 0.305 0.039 0.36 0.105 0.054 0.238 0.054 0.398 0 0.082-0.055 0.199-0.121 0.36-0.199l0.32-0.161zm23.723 11.719c0.265-0.078 0.503-0.183 0.718-0.32 0.426-0.293 0.719-0.692 0.879-1.199v-0.68c-0.051-0.238-0.187-0.387-0.398-0.442 0.32-0.105 0.453-0.398 0.398-0.878-0.051-0.454-0.211-0.641-0.48-0.559 0.558-0.453 0.816-0.988 0.761-1.602-0.027-0.32-0.082-0.48-0.16-0.48-0.242 0-0.386-0.023-0.441-0.078-0.16 0.027-0.281-0.039-0.359-0.199l0.121-0.801v-0.879c-0.614 0.078-1.227 0.254-1.84 0.519 0-0.027 0.011-0.453 0.039-1.281 0.051-0.586-0.016-0.961-0.199-1.121-0.161-0.16-0.496-0.105-1 0.16-0.563 0.293-0.907 0.469-1.043 0.52 0.187-1.067-0.2-1.52-1.16-1.36-0.907 0.161-1.571 0.602-2 1.321-0.051-0.266-0.118-0.574-0.2-0.918-0.105-0.242-0.332-0.375-0.679-0.403-0.641-0.027-1.094 0.321-1.36 1.039 0.028-0.265-0.054-0.449-0.238-0.558-0.16-0.106-0.363-0.121-0.602-0.039-0.293 0.078-0.468 0.265-0.519 0.558-0.028 0.133-0.028 0.414 0 0.84-0.215-0.265-0.535-0.48-0.961-0.64-0.481-0.161-0.84-0.161-1.078 0 0.105 0.961 0.16 1.734 0.16 2.32-0.59-0.238-0.988-0.625-1.203-1.16-0.16-0.399-0.25-0.957-0.281-1.68-0.024 0.082-0.106 0.121-0.239 0.121-0.027-0.16-0.05-0.441-0.078-0.84-0.027-0.347-0.137-0.558-0.32-0.64-0.242-0.106-0.547-0.039-0.922 0.199-0.106 0.055-0.371 0.254-0.797 0.602-0.027-0.188-0.055-0.481-0.082-0.879-0.027-0.348-0.094-0.586-0.199-0.723-0.11 0.109-0.16 0.203-0.16 0.281l-0.16-0.519-0.399-0.039c-0.695 0.023-1.043 0.492-1.043 1.398-0.078-0.215-0.293-0.266-0.637-0.16-0.347 0.027-0.64 0.215-0.882 0.558-0.184 0.321-0.293 0.684-0.321 1.083-0.05-0.774-0.371-1.188-0.957-1.239-0.668-0.054-0.988 0.199-0.961 0.758-0.132-0.266-0.441-0.48-0.922-0.641-0.531-0.16-0.796-0.039-0.796 0.36-0.161-0.426-0.575-0.625-1.243-0.598-0.664 0.027-0.961 0.32-0.879 0.879-0.105-0.238-0.425-0.414-0.96-0.519-0.532-0.133-0.868-0.083-1 0.16-0.079 0.078-0.079 0.293 0 0.64-0.161-0.402-0.598-0.668-1.321-0.8-0.691-0.133-1.238-0.106-1.64 0.078-0.028 0.214-0.012 0.363 0.043 0.441-1.149-0.508-2-0.652-2.563-0.441 0.055 0.48 0.027 0.8-0.078 0.961 0.105 0.027 0.238 0.039 0.398 0.039l0.2-0.039c0.136 0 0.281-0.012 0.441-0.039 0.453-0.106 0.801-0.106 1.039 0 0.215 0.078 0.43 0.253 0.641 0.519 0.215 0.266 0.492 0.441 0.84 0.52l0.48 0.039c-0.055 0.054-0.094 0.082-0.121 0.082-0.16 0.078-0.414 0.121-0.758 0.121h-0.48c-0.133 0.023-0.243 0.051-0.321 0.078 0.692 0.266 1.348 0.719 1.961 1.359-0.242-0.265-0.402-0.597-0.48-1 0.371-0.105 0.801-0.105 1.277 0 0.481 0.082 0.895 0.254 1.242 0.52v-0.199c0.535 0.027 1.106 0.336 1.719 0.921 0.027 0.024 0.469 0.547 1.32 1.559 0-0.16-0.039-0.535-0.121-1.121-0.05-0.481-0.05-0.863 0-1.16 0.403-0.16 0.817-0.024 1.242 0.402 0.348 0.371 0.559 0.774 0.641 1.199-0.109-1.039-0.027-1.625 0.238-1.761 0.293-0.161 0.575-0.039 0.84 0.363 0.055 0.105 0.188 0.426 0.403 0.957 0.16-0.106 0.253-0.426 0.277-0.957 0-0.481 0.176-0.774 0.519-0.883 0.348-0.105 0.641 0.016 0.883 0.359 0.184 0.27 0.278 0.59 0.278 0.961 0.082-1.304 0.468-2.011 1.16-2.117 0.426-0.082 0.679 0.078 0.761 0.477 0.055 0.508 0.094 0.867 0.122 1.082 0.773-0.508 1.332-0.707 1.679-0.602 0.106 0.426 0.067 0.856-0.121 1.282 0.188-0.239 0.492-0.321 0.918-0.239 0.082 0.344 0.055 0.719-0.078 1.117 0.055 0 0.359-0.093 0.922-0.277 0.426-0.137 0.73-0.148 0.918-0.043 0.051 0.828-0.055 1.52-0.32 2.082 0.187-0.242 0.48-0.426 0.878-0.562 0.403-0.106 0.75-0.118 1.043-0.039 0.024 0.265-0.027 0.921-0.16 1.961 0.293-0.454 0.52-0.547 0.68-0.282 0.051 0.082 0.16 0.403 0.32 0.961h0.758c0.348 0 0.52 0.121 0.52 0.36 0.027-0.372-0.211-0.774-0.719-1.2-0.531-0.507-0.84-0.879-0.918-1.121 0.266-0.051 0.652-0.039 1.156 0.043-0.051-0.082-0.465-0.469-1.238-1.16-0.508-0.48-0.867-0.922-1.082-1.32 0.187-0.188 0.508-0.215 0.961-0.082 0.242 0.082 0.558 0.226 0.961 0.441 0-0.16-0.028-0.414-0.082-0.762-0.078-0.32-0.106-0.574-0.078-0.757 0.613-0.137 0.957 0.05 1.039 0.558 0.05-0.668 0.425-1.066 1.117-1.199 0.617-0.133 0.828 0.16 0.644 0.879 0.106-0.16 0.332-0.293 0.68-0.399 0.426-0.16 0.797-0.214 1.117-0.16 0.321 0.051 0.481 0.227 0.481 0.52-0.051 0.398-0.067 0.719-0.039 0.961 0.238-0.082 0.601-0.215 1.078-0.403 0.429-0.16 0.789-0.199 1.082-0.117 0.054 0.852-0.149 1.559-0.598 2.117 0.211-0.211 0.371-0.211 0.477 0 0.269 0.403-0.852 1.122-3.36 2.161v0.441c0.907-0.105 1.387-0.039 1.442 0.199 0.054 0.215-0.016 0.348-0.2 0.399-0.269 0-0.468 0.015-0.601 0.043v1.437c0.32 0.027 0.574 0.016 0.762-0.039 0.265-0.051 0.414-0.215 0.437-0.48-0.023-0.079-0.051-0.188-0.078-0.321l0.121 0.16c0.559 0.774 1.465 1.067 2.719 0.883 0.265-0.054 0.519-0.121 0.762-0.203zm-22.524-12-0.199 0.082h0.519v-0.121l-0.32 0.039zm3.961-1.117-0.68 0.199c-0.132 0-0.281 0.039-0.437 0.121l-0.082 0.117c0 0.321-0.106 0.497-0.32 0.52l-0.122 0.203c0.457-0.109 0.868-0.348 1.243-0.723l0.398-0.437zm-1.961 1.199-0.117-0.199h-0.242l-0.321 0.238c0.321 0 0.547-0.012 0.68-0.039zm-6.277-1c-0.028 0.16-0.028 0.293 0 0.399 0.133-0.079 0.211-0.172 0.238-0.278 0.027-0.109-0.051-0.148-0.238-0.121zm33.039-2.359-0.719-0.043 0.481-0.039c-0.27-0.028-0.707 0.054-1.321 0.242-0.613 0.211-0.988 0.332-1.121 0.359 0.082-0.105 0.188-0.254 0.32-0.441 0.082-0.16 0.106-0.332 0.082-0.52-0.617-0.054-1.347 0.039-2.203 0.282 0.11-0.188 0.121-0.375 0.043-0.563-0.293-0.051-0.668-0.051-1.121 0-0.48 0.082-0.851 0.203-1.121 0.359 0.11-0.132 0.149-0.292 0.121-0.476-0.027-0.215-0.105-0.375-0.242-0.481-0.133-0.132-0.41-0.175-0.84-0.121-0.476 0.078-0.785 0.078-0.918 0 0.106-0.425-0.093-0.652-0.601-0.679-0.426-0.028-0.84 0.039-1.239 0.199-0.027 0.082-0.027 0.172 0 0.281-0.48 0.078-0.828-0.082-1.039-0.48-0.109 0.16-0.136 0.304-0.082 0.441l0.039 0.16 0.082 0.078c-0.586-0.105-0.988-0.054-1.199 0.161-0.133 0.132-0.203 0.281-0.203 0.441v0.039c0 0.16 0.082 0.266 0.242 0.32 0.348 0.051 0.668 0.145 0.961 0.278 0.211 0.136 0.348 0.269 0.399 0.402-0.079-0.348-0.079-0.641 0-0.879 1.148-0.297 1.785-0.082 1.921 0.637 0.317-0.184 0.731-0.227 1.239-0.117 0.105 0.265 0.16 0.48 0.16 0.64 0.027 0.477-0.238 0.918-0.801 1.317l0.121 0.402-0.48 0.238-0.481 0.282 0.84-0.122c0.028 0 0.051-0.011 0.078-0.039 0.563-0.16 0.84-0.414 0.84-0.761l1.484 0.363c0.426 0 1.106-0.094 2.04-0.281l0.16 0.281c-0.242-0.027-0.547 0.184-0.922 0.637-0.317 0.453-0.52 0.707-0.598 0.761-0.027-0.027-0.054-0.039-0.082-0.039l0.762 1.641c0.211 0.238 0.652 0.504 1.316 0.797l1.602 0.762c0.801-0.083 1.48-0.293 2.039-0.641 0.668-0.399 0.91-0.84 0.723-1.32-0.911 0-1.707 0.175-2.403 0.519 0.082-0.078 0.414-0.359 1-0.84 0.403-0.343 0.707-0.64 0.922-0.879-0.269-0.078-0.574-0.054-0.922 0.078-0.371 0.137-0.652 0.243-0.84 0.321 0.161-0.184 0.453-0.465 0.879-0.84 0.375-0.371 0.574-0.719 0.602-1.039-0.531-0.106-1.172-0.067-1.918 0.121 0.293-0.082 0.707-0.336 1.238-0.762 0.613-0.531 0.895-0.933 0.84-1.199-0.055-0.133-0.105-0.215-0.16-0.238zm-10.078 2.758-0.242-0.161v0.161h0.242zm-28.602 5.359c0.215 0 0.453 0.055 0.719 0.16 0.266 0.109 0.441 0.215 0.519 0.32l-0.117-0.64-1.121 0.16z" inkscape:connector-curvature="0"/>
      <path id="path20" style="fill-rule:evenodd;fill:#414428" d="m58.238 30.757c0.082-0.503-0.011-0.812-0.277-0.918l-0.039-0.043c-0.188 0-0.617-0.011-1.281-0.039 0.023 0.188-0.043 0.403-0.203 0.641-0.184 0.242-0.278 0.441-0.278 0.602 0.481-0.082 1.172-0.161 2.078-0.243zm-8.797-5.839h-0.64c-0.055 0.027-0.094 0.027-0.121 0-0.481 0.027-0.852 0.054-1.118 0.082-1.121-0.028-1.949 0.023-2.484 0.16l0.043 0.238v0.082c0.106 0.078 0.668 0.117 1.68 0.117 0.426 0.028 1.105 0.067 2.039 0.121 0.801 0.106 1.441 0.321 1.922 0.641v-0.242c0.851-0.106 1.414-0.051 1.679 0.16 0.106-0.184 0.426-0.227 0.961-0.117 0.239 0.051 0.504 0.183 0.797 0.398 0.348 0.266 0.59 0.426 0.723 0.481 0.105 0.027 0.504 0.078 1.199 0.16 0.559 0.16 0.719 0.426 0.481 0.801-0.133 0.238-0.879 0.304-2.243 0.199l0.082 0.039c0.051 0.027 0.106 0.105 0.161 0.242 0.05 0.106 0.144 0.172 0.277 0.199-0.078 0.426-0.067 0.719 0.043 0.879 0.105 0.188 0.293 0.266 0.558 0.238 0.161 0 0.415-0.023 0.762-0.078-0.215-0.535-0.375-0.879-0.48-1.039-0.028-0.027-0.055-0.054-0.082-0.082 0.215-0.023 0.535-0.105 0.961-0.238 0.398-0.16 0.679-0.227 0.839-0.199 0.106 0 0.266 0.078 0.481 0.238 0.187 0.16 0.398 0.215 0.641 0.16 0.21-0.027 0.359-0.094 0.437-0.199 0.137-0.16 0.227-0.254 0.281-0.281 0.055-0.028 0.653-0.121 1.801-0.282 0.879-0.132 1.309-0.371 1.281-0.718-0.027-0.348-0.359-0.504-1-0.481-0.746 0.082-1.226 0.121-1.441 0.121 0.027-0.132 0-0.386-0.082-0.761-0.824-0.078-1.449-0.106-1.879-0.078-0.691 0.027-1.254 0.171-1.68 0.441 0-0.27-0.066-0.469-0.199-0.602-0.16-0.132-0.375-0.144-0.641-0.039-0.105-0.32-0.453-0.64-1.039-0.961-0.613-0.32-1.082-0.414-1.402-0.281l-0.039 0.359c-0.398 0.083-0.879 0.055-1.441-0.078-0.586-0.105-1.067-0.132-1.438-0.078-0.32 0.156-0.547 0.25-0.68 0.278zm-29.082-4c-0.027 0-0.054-0.012-0.078-0.039h-0.121c-0.027 0-0.066-0.016-0.121-0.04h-0.199c-0.16 0.024-0.32 0.067-0.481 0.118-0.238 0.109-0.371 0.293-0.398 0.562-0.402-0.133-0.934-0.176-1.602-0.121-0.773 0.055-1.214 0.242-1.32 0.559-0.051 0.293 0.106 0.629 0.481 1-0.161-0.106-0.332-0.172-0.52-0.2-0.188-0.027-0.398-0.027-0.641 0l0.2 0.282c0.187 0 0.496-0.016 0.921-0.039 0.375 0.078 0.825 0.343 1.36 0.796-0.028-0.476 0.094-0.718 0.359-0.718 0.242 0 0.469 0.226 0.68 0.679 0.055-0.16 0.148-0.437 0.281-0.839 0.16-0.321 0.414-0.426 0.762-0.321 0.238 0.055 0.371 0.242 0.398 0.563 0.028 0.347 0.039 0.613 0.039 0.797 0.801-0.399 1.293-0.614 1.481-0.637 0.265-0.082 0.535-0.082 0.801 0 0.105 0.238 0.16 0.504 0.16 0.797 0.133 0.187 0.238 0.281 0.32 0.281 0.051 0 0.227-0.012 0.52-0.039 0.398 0 0.64 0.094 0.718 0.281 0.106-0.297 0.348-0.441 0.719-0.441 0.348 0.055 0.59 0.187 0.723 0.398 0.027-0.16 0.054-0.386 0.078-0.679l0.082-0.079c0.184-0.214 0.48-0.281 0.879-0.199 0.348 0.106 0.586 0.278 0.719 0.52 0.027-0.403 0.066-0.668 0.121-0.801 0.105-0.215 0.332-0.336 0.679-0.359 0.481-0.055 0.852 0.089 1.121 0.437 0.266 0.32 0.387 0.723 0.36 1.203 0.293-0.027 0.785-0.136 1.48-0.32 0.641-0.109 1.121-0.094 1.442 0.039l0.199 0.16c-0.027-0.133-0.082-0.254-0.16-0.359-0.078-0.082-0.16-0.121-0.239-0.121h-0.082c0.399-0.399 0.188-0.95-0.64-1.641-0.801-0.668-1.281-0.641-1.442 0.082-0.05-0.508-0.558-0.762-1.519-0.762-0.852 0.028-1.492 0.172-1.918 0.442 0.078 0.265 0.078 0.547 0 0.84h-0.801l-0.238 0.039h-0.684l-0.238 0.039h-0.078c-0.856 0.054-1.508 0.176-1.961 0.363 0.027-0.484-0.176-0.855-0.602-1.121-0.425-0.266-0.828-0.199-1.199 0.199-0.105-0.105-0.215-0.398-0.32-0.879 0-0.054-0.012-0.121-0.039-0.199v-0.043c-0.028-0.027-0.039-0.066-0.039-0.117-0.028-0.027-0.055-0.055-0.082-0.082l-0.039-0.082c-0.082-0.078-0.176-0.145-0.282-0.199zm-14.64 3.839-0.559 0.082c-0.105 0.024-1.027 0.094-2.762 0.2-1.253 0.078-2.05 0.254-2.398 0.519l0.281 0.321c0.266-0.055 0.614-0.161 1.039-0.321 0.746-0.187 1.68-0.238 2.801-0.16 0.293 0.027 0.531 0 0.719-0.078 0.105-0.082 0.305-0.215 0.601-0.402l0.278-0.161zm45.402 12.243c0.317-0.137 0.57-0.282 0.758-0.442-0.32-0.375-0.641-0.613-0.957-0.719-0.297-0.082-0.496-0.148-0.602-0.199-0.215-0.082-0.414-0.215-0.601-0.402-0.907-0.906-1.426-1.414-1.559-1.52-0.64-0.48-1.308-0.679-2-0.601 0.266 0.082 0.641 0.16 1.117 0.242 0.375 0.16 0.551 0.453 0.524 0.879-0.055 0.32-0.082 0.535-0.082 0.641 0 0.105 0.148 0.214 0.441 0.32 0.641 0 1.078 0.121 1.317 0.359-0.157 0.453-0.223 0.774-0.2 0.961 0.028 0.266 0.188 0.414 0.481 0.438 0.16 0 0.43-0.012 0.801-0.039l0.562 0.082zm7.719-3.121 0.082-0.2-0.16 0.16 0.078 0.04zm-19.641-2.282c-0.027 0-0.039-0.011-0.039-0.039-0.082 0-0.16-0.027-0.238-0.078-0.16-0.082-0.363-0.187-0.602-0.32-0.293-0.16-0.547-0.254-0.761-0.281h-0.161c0.082 0.132 0.094 0.292 0.043 0.48-0.429 0.078-0.789-0.242-1.082-0.961v-0.078c-0.027 0-0.039-0.016-0.039-0.043-0.027-0.051-0.043-0.106-0.043-0.16l-0.039-0.039c-0.265-0.614-0.531-0.985-0.797-1.121h-0.043c-0.023 0-0.039-0.012-0.039-0.039h-0.039c-0.132-0.028-0.293-0.039-0.48-0.039 0.215-0.055 0.414-0.106 0.601-0.161l0.039-0.039c0.641-0.16 1.133-0.32 1.481-0.48 0.238-0.082 0.398-0.16 0.48-0.242 0.133-0.078 0.254-0.211 0.36-0.399l0.078-0.078c0.055-0.082 0.109-0.16 0.16-0.242 0-0.027 0.016-0.039 0.043-0.039v-0.039l0.32-0.321 0.039-0.043 0.321-0.117c0.027-0.133 0-0.242-0.082-0.32 0.054-0.242 0-0.453-0.16-0.641-0.106-0.214-0.399-0.398-0.879-0.558-0.106-0.082-0.188-0.188-0.243-0.321v-0.082l-0.039-0.039c-0.05-0.054-0.132-0.105-0.238-0.16-0.027 0-0.055-0.012-0.082-0.039h-0.039c-0.32 0.027-0.586 0.039-0.801 0.039-0.078 0.028-0.148 0.039-0.199 0.039h-0.359c-0.028-0.664-0.403-0.918-1.121-0.758-0.559 0.106-1.067 0.344-1.52 0.719 0.16 0.215 0.215 0.613 0.16 1.199l-0.082 1.082 0.043 0.239c0.293-0.133 0.492-0.067 0.598 0.199 0.133 0.297 0.054 0.586-0.239 0.883-0.242 0.238-0.519 0.414-0.839 0.519 0.023 0.399-0.067 0.664-0.282 0.801-0.132 0.078-0.414 0.145-0.839 0.199l-0.122 0.039c-1.171 0.161-1.984 0.735-2.437 1.719 0.184-0.266 0.531-0.492 1.039-0.68 0.48-0.183 0.84-0.238 1.078-0.16 0.188 0.082 0.336 0.227 0.442 0.442l0.16 0.519c0-0.078 0.05-0.172 0.16-0.281 0.16-0.133 0.332-0.16 0.519-0.078 0.133 0.055 0.227 0.133 0.278 0.238-0.024-0.531 0.027-0.851 0.16-0.957 0.109-0.109 0.32-0.148 0.641-0.121 0.347 0.051 0.585 0.187 0.722 0.398 0.024 0.055 0.133 0.321 0.317 0.801 0.027-0.133 0.043-0.32 0.043-0.558 0.05-0.161 0.199-0.227 0.437-0.204 0.375 0.028 0.586 0.336 0.641 0.922-0.028 0.696-0.028 1.133 0 1.321 0.082-0.055 0.132-0.227 0.16-0.52 0-0.293 0.054-0.48 0.16-0.562 0.187-0.184 0.426-0.2 0.719-0.039l0.683 0.402c0.133-0.16 0.344-0.242 0.637-0.242 0.43 0.054 0.68 0.066 0.762 0.039 0.429-0.106 0.59-0.278 0.48-0.52zm-28.48-6.398c-0.184-0.403-0.321-0.641-0.399-0.719-0.933-0.109-2.281-0.043-4.039 0.199 0.239 0.028 0.625 0.106 1.16 0.239 0.133 0 0.36-0.028 0.68-0.079 0.32-0.054 0.574-0.066 0.758-0.043 0.348 0.028 0.707 0.161 1.082 0.403 0.426 0.32 0.734 0.574 0.918 0.758 0.027-0.133-0.024-0.383-0.16-0.758z" inkscape:connector-curvature="0"/>
      <path id="path22" style="fill-rule:evenodd;fill:#848958" d="m44.199 30.918 0.602-0.321 0.48-0.238-0.121-0.402c-0.16-0.664-0.359-1.051-0.598-1.161-0.32-0.183-0.91-0.222-1.761-0.117-0.852 0.106-1.399 0.305-1.641 0.598l0.082 0.082c0.184 0.187 0.426 0.348 0.719 0.48 0.398 0.211 0.906 0.399 1.519 0.559-0.027 0.082-0.015 0.199 0.04 0.359l0.242 0.161 0.078 0.039h0.32l0.039-0.039zm-1.961 10.441v-0.441c-0.133-0.481-0.625-0.719-1.476-0.719l0.117-0.082 1.762-0.68c0.265-0.16 0.757-0.305 1.48-0.437 0.586-0.215 0.785-0.602 0.598-1.161-0.051 0-0.281 0.012-0.68 0.04-0.32 0.027-0.519 0.011-0.601-0.04-0.106-0.082-0.145-0.199-0.118-0.359 0.028-0.137 0.012-0.242-0.043-0.32-0.132-0.215-0.398-0.227-0.797-0.043-0.269 0.109-0.492 0.254-0.679 0.441-0.11 0.082-0.227 0.281-0.363 0.602-0.133 0.293-0.227 0.465-0.278 0.519-0.109-0.375-0.269-0.679-0.48-0.922-0.293-0.398-0.575-0.464-0.84-0.199-0.215 0.188-0.215 0.453 0 0.801 0.16 0.215 0.332 0.371 0.519 0.48-0.187-0.082-0.375-0.109-0.562-0.082-0.266 0.028-0.399 0.176-0.399 0.442 0.028 0.336 0.34 0.535 0.942 0.597-0.61-0.042-1.028 0.063-1.262 0.321 0.188 0.082 0.453 0.148 0.801 0.203-0.027 0.453 0.266 0.785 0.879 1l1.48 0.117v-0.078zm-4.519 3.281c-0.051-0.32-0.305-0.508-0.758-0.562 0.211-0.106 0.266-0.282 0.16-0.52-0.082-0.265-0.359-0.414-0.84-0.441-0.558-0.051-0.894-0.117-1-0.199 0.106-0.293-0.187-0.454-0.883-0.481-0.796 0.055-1.25 0.067-1.359 0.043 0-1.016-0.426-1.363-1.277-1.043-0.082-0.133-0.16-0.465-0.242-1-0.106-0.48-0.309-0.68-0.598-0.598l-0.043 1.438c-0.051-0.133-0.184-0.453-0.399-0.957-0.242-0.43-0.492-0.613-0.761-0.563-0.133-0.293-0.371-0.785-0.719-1.48-0.375-0.481-0.828-0.613-1.359-0.398 0.16 0.48 0.437 0.906 0.839 1.281l1.04 0.636-0.04 0.043c-0.32 0.184-0.199 0.625 0.36 1.321-0.371-0.188-0.707-0.215-1-0.082 0.027 0.133 0.199 0.375 0.519 0.718 0.293 0.297 0.414 0.536 0.36 0.723-0.824-0.133-1.36-0.094-1.598 0.121 0.32 0.399 0.52 0.625 0.598 0.68 1.121 0.476 2.121 0.863 3 1.16l0.203 0.078c-0.32 0.055-0.535 0.133-0.645 0.238 0.188 0.215 0.524 0.387 1 0.524 0.485 0.133 0.868 0.172 1.161 0.117h2.121c0.16 0.293 0.425 0.375 0.8 0.242l0.121-0.48c0.934 0.293 1.348 0.105 1.239-0.559zm-12-4.402c-0.133-0.16-0.492-0.188-1.078-0.078-0.614 0.133-1 0.211-1.161 0.238-0.027-0.078-0.082-0.32-0.16-0.719-0.054-0.265-0.215-0.453-0.48-0.562-0.293-0.16-0.68-0.184-1.16-0.078l0.039 0.441c-0.106-0.242-0.199-0.601-0.278-1.082-0.136-0.426-0.363-0.734-0.679-0.918-0.348-0.215-0.84-0.32-1.481-0.32 0 0.133 0.094 0.414 0.278 0.84-0.184-0.243-0.414-0.36-0.68-0.36-0.238 0.239-0.238 0.637 0 1.199 0.348 0.641 0.547 1.051 0.601 1.239-0.585-0.293-0.601 0.027-0.039 0.961 0.348 0.453 0.918 0.851 1.719 1.199-0.238-0.027-0.519 0.016-0.84 0.121-0.375 0.133-0.492 0.32-0.359 0.559 0.078 0.132 0.305 0.187 0.68 0.16 0.347 0 0.558-0.055 0.64-0.16l2.16-0.278c0.028-0.457 0.227-0.707 0.598-0.761 0.242-0.028 0.613-0.04 1.121-0.04 0.746-0.242 0.879-0.535 0.399-0.882 0.347-0.133 0.402-0.371 0.16-0.719zm1.562-1.199c-0.906-0.348-1.414-0.348-1.519 0-0.11 0.347 0.226 0.707 1 1.078 0.718 0.375 1.25 0.547 1.597 0.523l0.282-0.402c-0.028-0.453-0.481-0.852-1.36-1.199zm-3.84-7.559c0.371 0.024 0.907 0.012 1.598-0.043h0.039l0.32-0.039 1.321-0.078h0.32l0.481-0.043c0.214-0.023 0.32-0.199 0.32-0.52v-0.238c-0.535 0.078-0.895 0.055-1.078-0.082 0.343-0.48 0.531-0.746 0.558-0.797 0.133-0.269 0.16-0.562 0.078-0.883-0.343 0-0.691 0.188-1.039 0.563 0.133-0.16 0.172-0.563 0.121-1.203-0.773-0.133-1.265 0.176-1.48 0.922-0.188-0.188-0.387-0.321-0.602-0.399-0.293-0.082-0.519-0.043-0.679 0.117 0.402 0.454 0.668 0.723 0.801 0.801-0.348-0.187-0.946-0.265-1.801-0.238-0.852 0.051-1.438 0.184-1.758 0.398 0.078 0.637 0.711 0.957 1.898 0.961-0.257 0.008-0.449 0.125-0.578 0.36l0.199 0.16c0.266 0.187 0.586 0.281 0.961 0.281zm-6.679-3.242c-0.137-0.078-0.242-0.055-0.321 0.082-0.082 0.184-0.148 0.277-0.203 0.277-0.183 0.055-0.332 0-0.437-0.16-0.16-0.183-0.293-0.305-0.403-0.359-0.21-0.078-0.597-0.067-1.16 0.039-0.023 0.187 0.067 0.387 0.282 0.601-0.426-0.132-0.895-0.187-1.399-0.16-0.535 0.028-0.894 0.149-1.082 0.36 0.133 0.242 0.535 0.429 1.199 0.562 0.59 0.106 1.055 0.133 1.403 0.078l0.64 0.559c0.133-0.133 0.707-0.25 1.719-0.36 0.773-0.078 1.094-0.398 0.961-0.961-0.508 0.055-0.867 0.122-1.082 0.204 0.082-0.375 0.043-0.629-0.117-0.762z" inkscape:connector-curvature="0"/>
      <path id="path24" style="fill-rule:evenodd;fill:#655a4c" d="m35.602 19.117c0.343 0.215 0.757 0.32 1.238 0.32l0.64 0.043c-0.558-0.16-0.933-0.402-1.121-0.723l-0.199 0.161c-0.187 0.214-0.375 0.281-0.558 0.199zm-1.282-1.039c-0.242-0.188-0.425-0.266-0.558-0.239 0.133-0.16 0.383-0.293 0.758-0.402 0.375-0.105 0.613-0.226 0.718-0.359 0.082-0.106 0.121-0.348 0.121-0.719-0.027-0.508 0.067-0.906 0.282-1.199 0.16-0.215 0.48-0.481 0.957-0.801l0.8-0.402 0.204-0.2 0.078-0.039c0.027-0.027 0.054-0.039 0.082-0.039 0.023 0 0.05-0.015 0.078-0.039 0.16-0.054 0.375-0.082 0.64-0.082h0.52c0.078 0.028 0.16 0.039 0.238 0.039h0.203l0.637 0.043h0.16c0.055 0 0.121-0.015 0.203-0.043 0.133-0.027 0.239-0.078 0.321-0.16h0.039l0.16-0.078 0.199-0.203c0.106-0.078 0.188-0.172 0.238-0.277 0-0.028 0.016-0.055 0.043-0.083 0.051-0.132 0.106-0.332 0.161-0.597v-0.082l0.039-0.16c-0.719-0.028-1.266-0.012-1.641 0.043 0.188 0.183 0.586 0.371 1.199 0.558 0.133 0.801-0.437 1.055-1.719 0.758l-0.359-0.078c-0.535-0.109-0.988-0.121-1.359-0.039-0.215 0.023-0.602 0.144-1.16 0.359-0.508 0.16-0.774 0.254-0.801 0.281-0.215 0.133-0.36 0.383-0.442 0.758l-0.281 1.082v0.2c-0.156 0.613-0.25 0.945-0.277 1-0.082 0.105-0.16 0.171-0.242 0.199-0.133 0.027-0.211 0.054-0.239 0.082h-0.039l-0.801 0.437v0.321c0.133 0.054 0.415 0.109 0.84 0.16zm4.321-8.52 0.281-0.121c0.238-0.051 0.691 0.043 1.355 0.281 0.137 0.375-0.144 0.735-0.839 1.082l0.203 0.118-0.2 0.121c0.266 0 0.68-0.016 1.239-0.039 0.48 0 0.812 0.089 1 0.277l0.043 0.043v-0.524c-0.243 0.055-0.801 0.043-1.684-0.039 0.16-0.187 0.402-0.386 0.723-0.601 0.16-0.106 0.426-0.25 0.797-0.438l-0.239-0.441-0.242 0.039c-0.183-0.184-0.547-0.266-1.078-0.238-0.48 0.027-0.828 0.105-1.039 0.238l-0.32 0.242zm-0.481-1.039 0.879-0.402c-0.363-0.18-0.605-0.274-0.719-0.278h-0.242c-0.078 0.024-0.144 0.051-0.199 0.079-0.133 0.054-0.266 0.121-0.399 0.199l-0.402 0.32-0.039 0.043c-0.133 0.238-0.25 0.426-0.359 0.559-0.133 0.187-0.266 0.332-0.399 0.441l-0.043 0.039-0.117 0.078 0.039 0.602c0.559-0.801 1.227-1.36 2-1.68zm-15.48 8.32h0.039c0.773 0.051 1.722 0.04 2.84-0.043 0.613-0.023 1.562-0.078 2.839-0.156 0.668-0.027 1.387-0.176 2.161-0.441 0.296-0.11 1-0.52 2.121-1.242 1.066-0.559 1.8-0.571 2.199-0.039 0-0.133-0.078-0.332-0.238-0.602-0.188-0.238-0.348-0.398-0.481-0.477-0.187-0.109-0.426-0.16-0.722-0.16h-0.04l-0.718 0.84c-0.321 0.266-0.852 0.613-1.602 1.039-0.453 0.238-1.078 0.414-1.879 0.52-1.199 0.16-1.851 0.254-1.961 0.281-0.426 0.105-1.078 0.148-1.957 0.121-0.855-0.027-1.496 0.024-1.922 0.16-0.16 0.051-0.304 0.09-0.437 0.117l-0.043 0.039h-0.039l-0.16 0.043zm-2.321 4.079c0-0.051 0.016-0.106 0.039-0.161 0.055-0.132 0.176-0.359 0.364-0.679l-0.203 0.039c-0.161 0.027-0.414 0.015-0.758-0.039l-0.039 0.082c-0.11 0.265-0.188 0.504-0.242 0.719 0.105-0.028 0.214-0.04 0.32-0.04h0.199c0.055 0.024 0.094 0.04 0.121 0.04h0.121c0.024 0.027 0.051 0.039 0.078 0.039zm24.762 4.562v-0.082c-0.133-0.105-0.242-0.227-0.32-0.359 0 0.265-0.094 0.425-0.281 0.48 0.105 0 0.214 0.012 0.32 0.039l0.199 0.082c0.027 0 0.055 0.012 0.082 0.039v-0.199zm-8.922-0.922c-0.105-0.187-0.226-0.398-0.359-0.64l-0.078 0.082 0.039 0.078c0.078 0.16 0.144 0.336 0.199 0.519 0.055 0 0.121-0.011 0.199-0.039zm2.563 2.559-0.364-0.278-0.32 0.321v0.039c-0.023 0-0.039 0.012-0.039 0.039l0.481 0.558v0.043l1.121 0.399c0.453 0.266 0.812 0.613 1.082 1.039h0.117l0.402 0.082-0.082-0.082-0.199-0.238-0.16-0.282-0.442-0.757-1.32-0.641c-0.051-0.027-0.144-0.105-0.277-0.242zm-3.321 1.84c0.266 0.109 0.532 0.453 0.797 1.043 0.004 0.023 0.028 0.039 0.082 0.039l-0.082 0.039 0.043 0.039 0.039-0.078 0.242-0.68-0.523-0.32-0.598-0.082zm6.2 2.839v-1.277h-0.403l0.16 0.801c0.082 0.16 0.149 0.305 0.204 0.437 0 0.028 0.011 0.039 0.039 0.039zm0.8 0.602-0.679-0.48c0.078 0.082 0.172 0.16 0.277 0.242l0.082 0.078c0 0.027 0.012 0.039 0.039 0.039l0.281 0.121zm5.039-9.121c0.614 0.586 1.012 1.137 1.2 1.641 0.027 0.027 0.066 0.027 0.121 0-0.11-0.161-0.227-0.426-0.36-0.801-0.027-0.078-0.043-0.199-0.043-0.36-0.078-0.183-0.332-0.414-0.757-0.679-0.403-0.293-0.895-0.586-1.481-0.879h-0.121c0.32 0.105 0.723 0.347 1.199 0.719l0.242 0.359zm-4.519-1.238c0.371 0.05 0.934 0.039 1.68-0.039 0.425-0.028 0.879 0.023 1.359 0.156-0.719-0.238-1.586-0.305-2.602-0.199l-0.437 0.082zm-1.481-1.121-1.082-0.801-0.519-0.078 0.16 0.078c0.27 0.137 0.574 0.363 0.922 0.683 0.426 0.371 0.719 0.614 0.879 0.719l-0.16-0.32-0.2-0.281zm-5.199-9.758c0.239 0 0.492-0.11 0.758-0.321 0.32-0.48 1.055-1.121 2.199-1.921l0.684-0.477-0.281-0.043-1.36 0.918c-0.586 0.402-0.972 0.613-1.16 0.641l-0.043-0.161c-0.398 0.536-0.703 0.934-0.918 1.204l0.281-0.082-0.16 0.242zm-10.722 11.879c-0.028-0.243-0.051-0.508-0.079-0.801v-1.039c-0.027-0.375-0.121-0.695-0.281-0.961-0.238-0.375-0.734-0.813-1.48-1.32-0.051-0.028-0.266-0.305-0.641-0.84 0.27-0.16 0.762-0.239 1.481-0.239l0.882-0.043-1.562 0.043c-0.691 0-1.117 0.012-1.277 0.04-0.403 0.105-0.457 0.359-0.161 0.761 0.239 0.344 0.813 0.758 1.719 1.239 0.238 0.132 0.414 0.292 0.52 0.48 0.082 0.105 0.132 0.199 0.16 0.281l-0.039 0.239c-0.028 0.105-0.067 0.199-0.121 0.281l0.16 0.281c0.105 0.316 0.16 0.73 0.16 1.238v0.399l0.238-0.039h0.321z" inkscape:connector-curvature="0"/>
      <path id="path26" style="fill-rule:evenodd;fill:#786c5c" d="m37.84 11.32 0.32-0.16c0.531-0.403 0.961-0.52 1.281-0.36 0.692-0.347 0.973-0.707 0.84-1.082-0.668-0.238-1.121-0.332-1.359-0.281l-0.281 0.121-0.801 0.801-0.918 0.641 0.117-0.161c-0.266 0.211-0.519 0.317-0.762 0.317l-0.156 0.203-0.082 0.121c0.055 0.051 0.32 0 0.801-0.16 0.531-0.215 0.879-0.293 1.039-0.242l-0.039 0.242zm-2.961 0.398c0-0.375 0.082-0.64 0.242-0.8 0.051-0.079 0.172-0.145 0.359-0.2 0.188-0.027 0.321 0 0.399 0.082 0.082 0.051 0.121 0.129 0.121 0.239l0.16-0.039c0.215-0.27 0.52-0.668 0.918-1.204 0-0.425 0.36-0.851 1.082-1.277-0.773 0.32-1.441 0.879-2 1.68l-0.039-0.602c-0.242 0.188-0.562 0.375-0.961 0.559-0.398 0.187-0.707 0.336-0.922 0.441l-0.078 0.043c-0.187 0.078-0.293 0.133-0.32 0.156-0.028 0.028-0.051 0.149-0.078 0.36v2.242c-0.055 0.027-0.11 0.066-0.16 0.121l-0.204 0.16h0.043c0.293 0 0.532 0.051 0.719 0.16 0.133 0.079 0.293 0.239 0.481 0.481 0.16 0.266 0.238 0.465 0.238 0.598-0.399-0.532-1.133-0.52-2.199 0.039-1.118 0.722-1.825 1.136-2.118 1.242-0.773 0.265-1.496 0.414-2.16 0.441-1.281 0.078-2.226 0.133-2.84 0.16-1.121 0.079-2.066 0.09-2.839 0.039h-0.043l-0.118 0.079c-0.082 0.027-0.148 0.07-0.203 0.121-0.105 0.082-0.254 0.281-0.437 0.601-0.402 0.16-0.641 0.36-0.723 0.598v0.16l-0.797 0.641-0.242 0.359c0.106 0.375 0.36 0.309 0.762-0.199 0.16-0.188 0.414-0.52 0.758-1 0.347-0.399 0.679-0.641 1-0.719 0.082-0.027 0.574-0.039 1.48-0.039 1.067 0 1.988-0.07 2.762-0.203 0.078-0.051 0.465-0.199 1.16-0.438 0.48-0.109 1.145-0.214 2-0.32l1.641-0.519c0.183-0.028 0.382-0.094 0.597-0.204 0.028-0.183 0.188-0.343 0.481-0.476 0.238-0.32 0.414-0.508 0.519-0.563 0.215-0.132 0.492-0.16 0.84-0.078 0.266 0.051 0.469 0.184 0.602 0.399 0.105 0.265 0.211 0.48 0.316 0.64 0.188-0.8 0.188-1.414 0-1.84-0.078-0.16-0.266-0.308-0.558-0.441-0.293-0.105-0.454-0.211-0.481-0.32 0.348-0.024 0.586-0.16 0.723-0.399 0-0.48 0.023-0.785 0.078-0.922l0.039-0.039zm0.199 4.161c-0.371 0.375-0.598 0.679-0.68 0.917l-0.078 0.36c0.028-0.024 0.106-0.051 0.239-0.078 0.082-0.028 0.16-0.094 0.242-0.199 0.027-0.055 0.121-0.387 0.277-1zm3.442 11.96v-0.043l-0.481-0.558c-0.051 0.082-0.105 0.16-0.16 0.242-0.027 0.024-0.051 0.051-0.078 0.078 0.023 0.028 0.051 0.039 0.078 0.039l0.641 0.242zm-3.04 0.84c-0.054 0.078-0.093 0.16-0.121 0.239 0 0.027 0.016 0.039 0.043 0.039h0.039l0.598 0.082 0.523 0.32c0.161-0.375 0.293-0.762 0.399-1.16-0.348 0.16-0.84 0.32-1.481 0.48zm0.758 1.321v0.078l0.082-0.039c-0.054 0-0.078-0.016-0.082-0.039zm6.082 2.398c0.051 0.055 0.106 0.094 0.16 0.121-0.027-0.027-0.042-0.066-0.042-0.121l-0.278-0.121 0.16 0.121zm-1.082-1.879h0.403c0-0.265-0.039-0.496-0.121-0.68l-0.282-0.48-0.398-0.082v0.082l-0.039 0.039c0.133 0.188 0.254 0.426 0.359 0.719l0.039 0.281 0.039 0.121zm4.762-8.359c-0.48-0.133-0.934-0.188-1.359-0.16-0.746 0.078-1.309 0.093-1.68 0.039-0.402 0.082-0.723-0.012-0.961-0.282l-0.16-0.238c-0.16-0.105-0.453-0.348-0.879-0.719-0.348-0.32-0.652-0.546-0.922-0.683l-0.16-0.078-1.117-0.2c0.426 0.211 1.023 0.653 1.797 1.317 0.668 0.59 1.16 0.91 1.48 0.961h0.922c0.398-0.028 0.707 0.027 0.918 0.16 0.055 0 0.187 0.082 0.398 0.242h0.801c1.067 0 1.844 0.227 2.32 0.68l0.082 0.078-0.242-0.359c-0.48-0.372-0.879-0.614-1.199-0.719l-0.039-0.039zm-10.398-3.043c-0.137-0.024-0.547-0.36-1.243-1l0.039 0.121c0.028 0.402 0.055 0.641 0.082 0.719 0.082 0.242 0.227 0.429 0.442 0.562 0.344 0.211 1.156 0.32 2.437 0.32l0.719-0.16-0.598-0.203-0.64-0.039c-0.481 0-0.895-0.105-1.238-0.32zm6.039-7.16 0.082-0.637-0.043-0.043c-0.188-0.184-0.52-0.277-1-0.277-0.559 0.023-0.973 0.039-1.239 0.039l-0.64 0.359-0.321 0.199c0.508-0.051 0.813-0.011 0.918 0.121-0.183 0.078-0.32 0.121-0.398 0.121 0.348 0.157 0.453 0.426 0.32 0.797-1.281-0.132-2-0.199-2.16-0.199-0.586 0.481-1.027 0.719-1.32 0.719-0.078 0.215-0.094 0.441-0.039 0.683 0.027-0.027 0.293-0.121 0.801-0.281 0.558-0.215 0.945-0.336 1.16-0.359 0.371-0.082 0.824-0.07 1.359 0.039l0.359 0.078c1.282 0.297 1.852 0.043 1.719-0.758-0.613-0.187-1.011-0.375-1.199-0.558 0.375-0.055 0.922-0.071 1.641-0.043zm-17.52 8.48c0.238 0.242 0.426 0.481 0.559 0.719 0.054-0.078 0.093-0.172 0.121-0.277l0.039-0.243c-0.028-0.078-0.078-0.172-0.16-0.281l-0.559 0.082zm-4.32-0.359c0.344 0.054 0.597 0.066 0.758 0.039l0.203-0.039-0.602-0.239h-0.238l-0.121 0.239z" inkscape:connector-curvature="0"/>
      <path id="path28" style="fill-rule:evenodd;fill:#473e36" d="m41.48 20.918 0.2 0.281 0.32 0.558c0.238 0.266 0.559 0.36 0.961 0.282l0.437-0.082c1.016-0.106 1.883-0.039 2.602 0.199l0.039 0.043h0.121c0.586 0.293 1.078 0.586 1.481 0.879 0.425 0.265 0.679 0.496 0.757 0.679 0 0.161 0.016 0.282 0.043 0.36 0.133 0.375 0.25 0.64 0.36 0.801h0.64l-0.082-0.399c-0.105-0.426-0.265-0.762-0.48-1-0.051-0.055-0.332-0.308-0.84-0.762-0.984-0.8-2.453-1.199-4.398-1.199-0.719 0-1.442-0.215-2.161-0.64zm-1.082-0.801c-0.16-0.133-0.304-0.25-0.437-0.36l-0.402-0.199c-0.184-0.105-0.348-0.187-0.481-0.238-0.266-0.109-0.625-0.203-1.078-0.281-0.695-0.082-1.082-0.133-1.16-0.16l-0.52-0.2c-0.082-0.054-0.148-0.093-0.199-0.121-0.133-0.051-0.254-0.094-0.359-0.117v-0.203c0.023-0.426 0.16-0.945 0.398-1.559 0.133-0.347 0.348-0.851 0.641-1.519 0.265-0.668 0.465-1.067 0.597-1.199l-0.796 0.398c-0.481 0.32-0.801 0.586-0.961 0.801-0.215 0.293-0.309 0.691-0.282 1.199 0 0.375-0.039 0.613-0.121 0.719-0.105 0.136-0.343 0.254-0.718 0.363-0.372 0.105-0.625 0.238-0.758 0.398 0.133-0.027 0.316 0.051 0.558 0.239l0.039 0.043c0.696 0.636 1.11 0.972 1.243 1 0.187 0.078 0.371 0.011 0.558-0.203l0.199-0.161c0.188 0.321 0.563 0.563 1.121 0.723l2.918 0.637zm2.481 4.722 0.32 0.719c0.16-0.027 0.375-0.039 0.641-0.039h0.238c-0.371-0.48-0.598-0.945-0.68-1.402l-0.039-0.52-0.8 0.121v0.481l0.32 0.64zm-6.957-3.402c-0.348-0.16-0.59-0.078-0.723 0.242-0.027 0.078-0.011 0.278 0.039 0.598l0.121 0.641c0.028 0.109 0.067 0.214 0.121 0.32 0.079 0.215 0.2 0.441 0.36 0.68 0.133 0.242 0.254 0.453 0.359 0.64 0.215 0 0.481-0.012 0.801-0.039h0.039c0.027 0.027 0.055 0.039 0.082 0.039-0.082-0.32-0.254-0.719-0.519-1.199-0.293-0.563-0.481-0.961-0.563-1.199l-0.117-0.68v-0.043zm5.68 10.32c-0.055-0.132-0.122-0.277-0.204-0.437-0.023 0-0.039-0.016-0.039-0.043-0.132-0.16-0.281-0.32-0.437-0.481l-0.684-0.558-0.277 0.082c-0.055 0.027-0.109 0.105-0.16 0.238-0.055 0.106-0.121 0.188-0.199 0.238v0.043l-0.243 0.079c-0.16 0.027-0.398-0.039-0.718-0.2-0.348-0.214-0.547-0.32-0.602-0.32-0.348 0.055-0.598 0.082-0.758 0.082-0.375-0.082-0.695-0.148-0.961-0.203 0 0.027 0.016 0.043 0.039 0.043v0.078c0.293 0.719 0.653 1.039 1.082 0.961 0.051-0.188 0.039-0.348-0.039-0.48h0.16c0.211 0.027 0.465 0.121 0.758 0.281 0.242 0.133 0.442 0.238 0.602 0.32v-0.043c0.105 0.055 0.211 0.094 0.316 0.121 0.137-0.879 0.657-1.027 1.563-0.441h0.039l0.32 0.281c0.106 0.106 0.254 0.227 0.442 0.359zm0.039-1.238v1.277c0.027 0.055 0.066 0.094 0.121 0.122l0.679 0.48c-0.054-0.398-0.109-0.758-0.16-1.078-0.082-0.563-0.187-1.055-0.32-1.481-0.293-0.132-0.535-0.293-0.719-0.48l0.281 0.48c0.079 0.184 0.118 0.415 0.118 0.68zm-1-2.402c-0.082-0.024-0.176-0.067-0.282-0.117l0.442 0.757c-0.11-0.238-0.16-0.453-0.16-0.64zm-2.481-19.598c-0.719 0.426-1.082 0.852-1.082 1.281l0.043 0.157c0.184-0.024 0.57-0.239 1.156-0.637l1.364-0.922h-0.039l-0.563-0.281-0.879 0.402zm0.481 1.039 0.32-0.238c0.211-0.133 0.559-0.215 1.039-0.242 0.535-0.028 0.895 0.054 1.078 0.242l0.242-0.043-0.398-0.481-0.082-0.078c-0.188-0.105-0.399-0.187-0.641-0.238-0.078 0-0.144-0.016-0.199-0.043h-0.078l-0.684 0.481c-1.144 0.8-1.879 1.441-2.199 1.921l-0.117 0.161 0.918-0.641 0.801-0.801zm2.961 0.199c-0.028 0-0.043-0.011-0.043-0.039-0.371 0.188-0.637 0.332-0.797 0.442-0.321 0.211-0.563 0.414-0.723 0.597 0.883 0.082 1.441 0.094 1.684 0.043v-0.601c-0.028-0.106-0.055-0.215-0.082-0.32l-0.039-0.122z" inkscape:connector-curvature="0"/>
      <path id="path30" style="fill-rule:evenodd;fill:#867966" d="m40.398 20.117 1.082 0.801c-0.585-0.481-1.093-0.868-1.519-1.161 0.133 0.106 0.277 0.227 0.437 0.36l-2.918-0.637 0.598 0.199-0.719 0.16c-1.281 0-2.093-0.109-2.437-0.32-0.215-0.133-0.363-0.32-0.442-0.562-0.027-0.078-0.054-0.317-0.082-0.719l-0.039-0.121-0.039-0.039c-0.425-0.051-0.707-0.106-0.84-0.16v-0.321c-0.054 0.266-0.015 0.52 0.118 0.762 0.054 0.184 0.187 0.426 0.402 0.719 0.238 0.347 0.387 0.558 0.438 0.64 0.109 0.161 0.203 0.332 0.281 0.52 0.187-0.16 0.586-0.227 1.203-0.199 0.316 0 0.746 0.023 1.277 0.078 0.746-0.028 1.309 0.027 1.68 0.16 0.508 0.187 0.867 0.535 1.082 1.039 0.105 0.055 0.215 0.109 0.32 0.16 1.039 0.481 1.707 0.774 2 0.883-0.054 0.586 0 1.133 0.16 1.637l0.438 0.843-0.317-0.64v-0.481l0.797-0.121c0-0.293 0.028-0.652 0.082-1.078h0.84c-0.215-0.16-0.347-0.242-0.402-0.242-0.211-0.133-0.516-0.188-0.918-0.16h-0.918c-0.32-0.051-0.816-0.371-1.481-0.961-0.773-0.664-1.374-1.106-1.8-1.317l1.117 0.2 0.519 0.078zm-4.277-1.559c0.051 0.028 0.117 0.067 0.199 0.121l0.52 0.2c-0.293-0.133-0.531-0.239-0.719-0.321zm1.68-4.879 0.039-0.039c-0.028 0.024-0.055 0.039-0.078 0.039h0.039zm-3.563-3.082c0.215-0.105 0.524-0.254 0.922-0.441 0.399-0.184 0.719-0.371 0.961-0.559l0.117-0.078c-0.211 0.133-0.879 0.492-2 1.078zm-10.117 9.84 0.559-0.078c-0.106-0.188-0.282-0.348-0.52-0.48-0.906-0.481-1.48-0.895-1.719-1.243-0.296-0.398-0.242-0.652 0.161-0.757 0.16-0.028 0.586-0.04 1.277-0.04l1.562-0.043-0.882 0.043c1.121 0 2.242-0.082 3.363-0.242 0.398-0.054 1.012-0.105 1.84-0.16 0.398-0.051 0.972-0.148 1.718-0.281 0.508 0 1.172 0.148 2 0.441l0.797-0.441h0.043l0.078-0.36c0.082-0.238 0.309-0.546 0.68-0.917v-0.2l0.281-1.082c0.082-0.371 0.227-0.625 0.442-0.758-0.055-0.242-0.039-0.468 0.039-0.683h-0.199c-0.079-0.266 0.171-0.598 0.761-1 0.078-0.051 0.559-0.332 1.438-0.84l0.039-0.238c-0.156-0.055-0.504 0.027-1.039 0.238-0.481 0.16-0.746 0.215-0.801 0.16l0.082-0.117-0.359 0.48c-0.16 0.133-0.321 0.387-0.485 0.758-0.183 0.426-0.332 0.707-0.437 0.84l-0.082-0.758c-0.133 0.239-0.371 0.371-0.719 0.399 0.027 0.109 0.188 0.215 0.481 0.32 0.292 0.133 0.48 0.281 0.558 0.441 0.188 0.426 0.188 1.04 0 1.84-0.105-0.16-0.211-0.375-0.316-0.64-0.137-0.215-0.336-0.348-0.602-0.399-0.348-0.082-0.625-0.054-0.84 0.078-0.105 0.055-0.281 0.239-0.519 0.559 0.293-0.078 0.879-0.117 1.758-0.117l-1.321 0.558c-0.023 0-0.332 0.039-0.918 0.121v-0.082c-0.215 0.11-0.414 0.176-0.597 0.2l-1.645 0.523 1.922-0.121c0.133 0 0.492-0.027 1.078-0.082 0.43-0.051 0.777-0.051 1.043 0 0.078 0.293-0.398 0.535-1.441 0.723-0.719 0.105-1.387 0.156-2 0.156l-1.2-0.117c-0.585 0.187-1.039 0.32-1.359 0.398-0.586 0.16-1.066 0.188-1.441 0.082 0.054-0.133 0.132-0.226 0.242-0.281-0.777 0.133-1.695 0.199-2.762 0.199-0.906 0-1.398 0.016-1.48 0.043-0.321 0.078-0.653 0.316-1 0.719-0.348 0.48-0.602 0.812-0.758 1-0.402 0.508-0.656 0.574-0.762 0.199l0.238-0.359c-0.238 0.265-0.437 0.613-0.597 1.039l0.121-0.239h0.238l0.602 0.239c0.211-0.348 0.531-0.692 0.957-1.039 0.562 0.238 0.933 0.414 1.121 0.519 0.535 0.293 0.961 0.586 1.281 0.879zm14.641 6.68c-0.082-0.078-0.188-0.184-0.321-0.321l-0.043 0.043 0.364 0.278zm-3.403 1.801c0.028-0.079 0.067-0.161 0.121-0.239l-0.039 0.039c-0.054 0.078-0.093 0.149-0.121 0.2h0.039zm5.84 1.48 0.16 0.879c0 0.027 0.016 0.043 0.039 0.043l-0.16-0.801-0.039-0.121zm-0.437-1.121c0.023 0.027 0.05 0.055 0.078 0.082v-0.082h-0.078zm-0.121-1.16c-0.403-0.238-0.934-0.492-1.602-0.758l1.32 0.641c0.106 0.05 0.2 0.093 0.282 0.117zm1.039-6.918 0.16 0.32 0.16 0.238-0.32-0.558zm-5.84 2.719c-0.16-0.239-0.281-0.465-0.36-0.68 0.082 0.242 0.172 0.492 0.282 0.762l0.078-0.082zm0.082-2.481c-0.027-0.105-0.043-0.226-0.043-0.359l0.281-0.039h-0.121c-0.504 0.05-0.891-0.067-1.16-0.36 0.055 0.184 0.082 0.387 0.082 0.598 0.027 0.43 0.16 0.977 0.398 1.641l-0.117-0.641c-0.054-0.32-0.07-0.52-0.043-0.598 0.133-0.32 0.375-0.402 0.723-0.242zm2.879-10.039-0.762 0.441c-0.16 0.051-0.453 0.25-0.879 0.598 0.16 0 0.879 0.067 2.16 0.203 0.133-0.375 0.028-0.64-0.32-0.801 0.078 0 0.215-0.043 0.398-0.121-0.105-0.132-0.41-0.172-0.918-0.121l0.321-0.199zm-3.922 0.32c0.109-0.293 0.48-0.519 1.121-0.679 0-0.11-0.039-0.188-0.121-0.243-0.078-0.078-0.211-0.105-0.399-0.078-0.187 0.051-0.308 0.121-0.359 0.2-0.16 0.16-0.242 0.425-0.242 0.8zm4.723-3.32c-0.582-0.371-1.008-0.555-1.282-0.559 0.114 0.004 0.356 0.098 0.719 0.278l0.563 0.281zm1.957 1.32c-0.024-0.054-0.051-0.121-0.079-0.199-0.132-0.265-0.32-0.508-0.558-0.719l0.398 0.481 0.239 0.437zm-0.719-1c-0.16-0.105-0.332-0.187-0.52-0.238h-0.121c0.242 0.051 0.453 0.133 0.641 0.238z" inkscape:connector-curvature="0"/>
      <path id="path32" style="fill-rule:evenodd;fill:#93846f" d="m36.16 21.039c0.293-0.082 0.918-0.121 1.879-0.121l1 0.082 0.481 0.117c0.132 0.054 0.281 0.121 0.441 0.203-0.215-0.508-0.574-0.856-1.082-1.043-0.371-0.133-0.934-0.184-1.68-0.16-0.535-0.051-0.961-0.078-1.281-0.078-0.613-0.028-1.012 0.039-1.199 0.199l0.039 0.039 0.082 0.363 0.039 0.039c0.266 0.293 0.652 0.414 1.16 0.36h0.121zm1-8.602c0.426-0.348 0.719-0.547 0.879-0.598l0.762-0.441 0.64-0.359 0.2-0.121-0.2-0.122c-0.32-0.156-0.75-0.039-1.281 0.36l-0.32 0.16c-0.879 0.508-1.36 0.789-1.442 0.84-0.586 0.402-0.839 0.734-0.757 1h0.199c0.293 0.004 0.734-0.238 1.32-0.719zm-7.082 4.043c-0.851 0.106-1.519 0.211-2 0.316-0.691 0.243-1.078 0.387-1.156 0.442-0.11 0.055-0.188 0.148-0.242 0.281 0.375 0.106 0.851 0.078 1.441-0.082 0.32-0.078 0.774-0.211 1.359-0.398l1.2 0.117c0.613 0 1.281-0.051 2-0.156 1.043-0.188 1.519-0.43 1.441-0.723-0.266-0.051-0.613-0.051-1.043 0-0.586 0.055-0.945 0.082-1.078 0.082l-1.922 0.121zm2.242-0.723v0.082c0.586-0.082 0.891-0.121 0.918-0.121l1.321-0.558c-0.879 0-1.465 0.039-1.758 0.117-0.293 0.137-0.453 0.293-0.481 0.48zm3.801-4.398 0.156-0.199 0.161-0.242-0.278 0.082-0.16 0.039c-0.641 0.16-1.012 0.386-1.121 0.679l-0.039 0.039c-0.051 0.133-0.078 0.442-0.078 0.922l0.078 0.758c0.105-0.133 0.254-0.414 0.441-0.84 0.16-0.371 0.321-0.625 0.481-0.758l0.359-0.48z" inkscape:connector-curvature="0"/>
      <path id="path34" style="fill-rule:evenodd;fill:#4c4640" d="m37.84 13.64-0.039 0.039v0.078c0-0.027 0.011-0.066 0.039-0.117zm2.922-0.203c0 0.109 0.011 0.203 0.039 0.281 0.027 0.133 0.078 0.239 0.16 0.321 0.027 0.027 0.066 0.05 0.117 0.078 0.027-0.266 0.055-0.586 0.082-0.957l-0.199 0.199-0.16 0.078h-0.039zm-0.84-8.078-0.242 0.32-0.078 0.438v1c0 0.375-0.067 0.695-0.204 0.961-0.05-0.028-0.183-0.094-0.398-0.199-0.16-0.083-0.266-0.172-0.32-0.282-0.051-0.105-0.094-0.304-0.118-0.597-0.054-0.27-0.136-0.454-0.242-0.563-0.082 0.215-0.132 0.68-0.16 1.402h0.16c0.274 0.004 0.7 0.188 1.282 0.559h0.039l0.281 0.039h0.078c0.055 0.027 0.121 0.043 0.199 0.043h0.121c0.188 0.051 0.36 0.133 0.52 0.238l0.082 0.078c0.238 0.215 0.426 0.454 0.558 0.723v-1.32c-0.054-0.695-0.175-1.149-0.359-1.36-0.055-0.027-0.109-0.054-0.16-0.082-0.16-0.05-0.27-0.039-0.32 0.039-0.106 0.11-0.161 0.282-0.161 0.52-0.027 0.215-0.054 0.387-0.082 0.523-0.078 0.239-0.144 0.372-0.199 0.399-0.133-0.106-0.199-0.309-0.199-0.598 0-0.187 0.012-0.429 0.039-0.722-0.027-0.372-0.051-0.719-0.078-1.039-0.027-0.188-0.039-0.36-0.039-0.52z" inkscape:connector-curvature="0"/>
      <path id="path36" style="fill-rule:evenodd;fill:#b3aa9e" d="m41.762 8.679c-0.055 0.426-0.11 0.774-0.16 1.039v0.039l0.039 0.122c0.027 0.105 0.05 0.214 0.082 0.32v1.121l-0.082 0.637-0.039 0.16v0.082c-0.055 0.265-0.11 0.465-0.161 0.601v0.157c0.024 0.75-0.043 1.175-0.203 1.281v0.519l-0.16 3.762c0.027-0.426 0.203-1.015 0.524-1.762 0.16-0.398 0.265-0.984 0.32-1.757 0-0.055 0.078-0.403 0.238-1.043 0.078-0.399 0.117-0.746 0.117-1.039l0.043-1.079c0.028-0.453 0.012-0.816-0.043-1.082-0.078-0.586-0.117-1.464-0.117-2.64 0-1.438-0.094-2.531-0.281-3.278l-0.117 1v2.84zm-2.082-3 0.242-0.32 0.238-0.32c0-0.321 0.082-1.16 0.242-2.52 0.133-1.039 0.133-1.879 0-2.519-0.269 0.347-0.441 0.933-0.523 1.757-0.024 0.934-0.067 1.575-0.117 1.922-0.082 0.453-0.121 1.133-0.121 2.039l0.039-0.039zm-0.879-1.519c-0.082 0.586-0.121 1.679-0.121 3.281l0.242-0.281 0.437-0.52c-0.05-0.508 0-1.551 0.161-3.121 0.105-1.332 0.082-2.375-0.082-3.121-0.079 0.16-0.157 0.719-0.239 1.68l-0.359 1.922c0 0.05-0.012 0.105-0.039 0.16zm0.84 10.398c-0.028-0.347-0.055-0.531-0.082-0.558-0.079-0.188-0.227-0.227-0.438-0.121l-0.043 0.878 0.563 3.082v-3.281zm1.839-10.961c-0.16 0.188-0.226 0.547-0.199 1.082 0.051 0.586 0.078 0.973 0.078 1.16l0.403-0.8c0-0.16-0.016-0.414-0.039-0.762-0.032-0.293-0.11-0.52-0.243-0.68z" inkscape:connector-curvature="0"/>
      <path id="path38" style="fill-rule:evenodd;fill:#635b52" d="m38.48 13.558c0.055 0.082 0.094 0.172 0.122 0.281 0.16 0.399 0.238 0.719 0.238 0.961 0.027-0.347 0.082-0.761 0.16-1.242h-0.52zm2.282-0.121c-0.082 0.082-0.188 0.133-0.321 0.16-0.082 0.028-0.148 0.043-0.203 0.043l0.043 0.68c0.16-0.133 0.332-0.336 0.52-0.602-0.028-0.078-0.039-0.172-0.039-0.281zm0.679-0.641c-0.027 0.028-0.043 0.055-0.043 0.083-0.05 0.105-0.132 0.199-0.238 0.281-0.027 0.371-0.055 0.691-0.082 0.957-0.051-0.024-0.09-0.051-0.117-0.078v1.961c0.027-0.321 0.117-0.735 0.277-1.243v-0.519c0.16-0.106 0.227-0.531 0.203-1.281v-0.161zm0.039-3.277c0.028 0.078 0.055 0.145 0.082 0.199 0 0.028 0.012 0.039 0.04 0.039v-0.039c0.05-0.265 0.105-0.613 0.16-1.039l-0.039-0.039c-0.028-0.082-0.11-0.226-0.243-0.441v1.32zm-0.839-2.723c0.05-0.078 0.16-0.089 0.32-0.039 0.051 0.028 0.105 0.055 0.16 0.082-0.027-0.214-0.043-0.453-0.043-0.722 0-0.664-0.09-1.184-0.277-1.559 0.023 0.242-0.028 0.906-0.16 2v0.238zm-0.68-0.917c0.027 0.32 0.051 0.667 0.078 1.039-0.027 0.293-0.039 0.535-0.039 0.722 0 0.289 0.066 0.492 0.199 0.598 0.055-0.027 0.121-0.16 0.199-0.399-0.05 0.106-0.089 0.184-0.117 0.239 0.051-1.039 0.051-1.824 0-2.36-0.109 0.028-0.215 0.078-0.32 0.161zm-1.039 1.281-0.242 0.277c0-1.598 0.043-2.691 0.121-3.281-0.16 0.457-0.281 0.789-0.36 1-0.214 0.535-0.386 1.137-0.519 1.801-0.055 0.242-0.067 0.562-0.043 0.961 0.055-0.028 0.121-0.055 0.199-0.079h0.082c0.028-0.722 0.082-1.187 0.16-1.402 0.106 0.106 0.188 0.293 0.242 0.559 0.024 0.293 0.067 0.496 0.118 0.601 0.054 0.106 0.16 0.199 0.32 0.282 0.215 0.105 0.348 0.171 0.398 0.199 0.137-0.266 0.204-0.586 0.204-0.961v-0.719c-0.028 0.055-0.055 0.121-0.082 0.199-0.028 0.133-0.133 0.547-0.321 1.242-0.16-0.054-0.254-0.281-0.277-0.679z" inkscape:connector-curvature="0"/>
    </g>
  </g>
<metadata><rdf:RDF><cc:Work><dc:format>image/svg+xml</dc:format><dc:type rdf:resource="http://purl.org/dc/dcmitype/StillImage"/><cc:license rdf:resource="http://creativecommons.org/licenses/publicdomain/"/><dc:publisher><cc:Agent rdf:about="http://openclipart.org/"><dc:title>Openclipart</dc:title></cc:Agent></dc:publisher></cc:Work><cc:License rdf:about="http://creativecommons.org/licenses/publicdomain/"><cc:permits rdf:resource="http://creativecommons.org/ns#Reproduction"/><cc:permits rdf:resource="http://creativecommons.org/ns#Distribution"/><cc:permits rdf:resource="http://creativecommons.org/ns#DerivativeWorks"/></cc:License></rdf:RDF></metadata></svg>
