<?xml version="1.0" encoding="UTF-8" standalone="no"?>
<!-- Created with Inkscape (http://www.inkscape.org/) -->
<svg xmlns:inkscape="http://www.inkscape.org/namespaces/inkscape" xmlns:rdf="http://www.w3.org/1999/02/22-rdf-syntax-ns#" xmlns="http://www.w3.org/2000/svg" xmlns:xlink="http://www.w3.org/1999/xlink" xmlns:ns1="http://sozi.baierouge.fr" xmlns:cc="http://creativecommons.org/ns#" xmlns:sodipodi="http://sodipodi.sourceforge.net/DTD/sodipodi-0.dtd" xmlns:dc="http://purl.org/dc/elements/1.1/" id="svg2" xml:space="preserve" viewBox="0 0 51.15 28.145" version="1.1" inkscape:version="0.91 r13725">
  <g id="g10" transform="matrix(1.25 0 0 -1.25 0 28.145)">
    <g id="g12">
      <path id="path14" style="fill-rule:evenodd;fill:#4e512f" d="m34.52 13.356c0.054 0.16 0.054 0.332 0 0.519h0.16c0.293 0.028 0.574-0.012 0.84-0.121h0.121c0.031-0.004 0.054-0.016 0.078-0.039-0.028-0.027-0.051-0.055-0.078-0.078l-1-0.242-0.121-0.039zm1.441-1.481-0.082-0.121c-0.188 0.027-0.32 0.043-0.399 0.043 0.028 0.051 0.067 0.117 0.118 0.199 0.136-0.027 0.254-0.066 0.363-0.121zm1.039-0.558 0.121-0.082c0.184-0.211 0.266-0.372 0.238-0.481 0-0.105-0.148-0.266-0.437-0.476-0.215-0.161-0.535-0.27-0.961-0.321-0.426-0.082-0.723-0.176-0.883-0.281 0.133-0.348 0.176-0.641 0.121-0.883-0.054-0.211-0.187-0.332-0.398-0.355 0.32-0.055 0.476-0.297 0.476-0.723-0.023-0.531-0.265-0.785-0.718-0.758 0-0.082-0.012-0.242-0.039-0.48-0.426-0.082-0.879 0.011-1.36 0.277 0.266-0.531 0.293-0.891 0.078-1.078l-0.078-0.039c-0.32 0.238-0.625 0.332-0.922 0.277-0.023-0.16 0.094-0.265 0.364-0.32 0.21-0.051 0.398-0.039 0.558 0.043 0.481-0.32 0.586-0.652 0.32-1 0.293-0.109 0.559-0.309 0.797-0.602 0.297-0.347 0.387-0.652 0.282-0.918-0.079-0.187-0.25-0.293-0.52-0.32-0.133 0-0.359 0.027-0.68 0.082l-0.039 0.316c-0.054-0.132-0.215-0.238-0.48-0.316-0.242-0.082-0.426-0.094-0.563-0.043-0.211 0.055-0.343 0.16-0.398 0.32-0.027 0.082-0.039 0.266-0.039 0.559-0.133-0.238-0.309-0.344-0.52-0.32-0.32 0.054-0.453 0.375-0.398 0.961-0.082-0.293-0.442-0.465-1.082-0.52-0.559-0.055-1-0.027-1.32 0.078-0.184 0.055-0.415 0.242-0.68 0.563l0.32-0.039c0.668-0.055 1.051 0.105 1.16 0.476 0.078-0.211 0.348-0.277 0.801-0.199 0.426 0.027 0.652 0.16 0.68 0.402 0.105 0.371 0.211 0.625 0.32 0.758 0.106 0.106 0.305 0.199 0.598 0.281 0.242 0.051 0.386 0.227 0.441 0.52 0.028 0.293-0.015 0.652-0.121 1.078 0.426-0.133 0.816-0.133 1.16 0 0.375 0.16 0.426 0.484 0.16 0.961 0.106 0.082 0.375 0.133 0.801 0.16 0.348 0.028 0.559 0.16 0.641 0.403 0.105 0.21 0.105 0.437 0 0.679-0.082 0.266-0.242 0.426-0.481 0.481 0 0.16 0.106 0.332 0.321 0.519 0.238 0.211 0.371 0.414 0.398 0.598 0.027 0.265-0.039 0.469-0.199 0.601 0.082 0 0.172-0.015 0.281-0.039 0.106-0.613 0.57-0.855 1.399-0.722h0.039c0.132-0.024 0.281-0.051 0.441-0.078zm-21.52-2.961-1 1.238c-0.027 0.027-0.039 0.055-0.039 0.082 0.211-0.16 0.36-0.281 0.438-0.359 0.215-0.215 0.414-0.536 0.601-0.961zm0.2-0.602v-0.078l-0.2-0.039h0.239c0.027-0.199 0.039-0.367 0.043-0.5 0 0.18 0.011 0.348 0.039 0.5h0.238c-0.027 0.051-0.066 0.105-0.117 0.156l-0.121-0.078v0.121c0.027 0 0.054 0.012 0.078 0.039-0.024 0.028-0.051 0.051-0.078 0.078v0.16c0 0.293-0.016 0.547-0.039 0.762-0.028 0.133-0.055 0.238-0.082 0.32-0.055 0.239-0.094 0.454-0.121 0.641-0.024 0.102-0.051 0.168-0.079 0.199 0.028-0.027 0.055-0.07 0.079-0.121l0.043 0.121c0.023 0.215-0.082 0.508-0.321 0.879v0.039c-0.027 0.032-0.043 0.059-0.043 0.082-0.183 0.586-0.293 1.012-0.316 1.282 0.316-0.028 0.637 0.093 0.957 0.359 0.133-0.16 0.309-0.242 0.519-0.242 0.188 0 0.348 0.082 0.481 0.242l-0.359-0.762c-0.188-0.344-0.266-0.613-0.239-0.801h0.321c0.238 0 0.519 0.043 0.839 0.122-0.187-0.215-0.32-0.375-0.402-0.481-0.105-0.16-0.144-0.305-0.117-0.437v-0.122c0.051-0.105 0.117-0.187 0.199-0.242 0.051-0.023 0.106-0.039 0.16-0.039 0.16-0.051 0.266 0.028 0.321 0.242-0.055-0.48 0.05-0.75 0.32-0.8 0.051-0.028 0.117-0.028 0.199 0h0.039c0.106 0.027 0.199 0.121 0.281 0.281 0.028 0.078 0.094 0.211 0.2 0.398 0.027-0.16 0.039-0.359 0.039-0.597 0.054-0.215 0.175-0.364 0.359-0.442 0.027 0 0.055-0.015 0.082-0.043 0.133-0.05 0.293-0.05 0.481 0l-0.524-0.316c-0.504-0.32-0.73-0.602-0.68-0.844 0.243-0.023 0.614-0.039 1.122-0.039-0.133-0.316-0.188-0.519-0.161-0.598 0.243-0.054 0.453-0.066 0.641-0.043-0.055-0.183-0.121-0.41-0.199-0.679-0.106-0.399-0.387-0.614-0.84-0.641-0.106-0.316-0.066-0.547 0.117-0.68 0.43-0.293 1 0.082 1.723 1.122-0.028-0.161-0.016-0.348 0.039-0.559h-0.078c0-0.297-0.071-0.484-0.203-0.563-0.051-0.05-0.239-0.105-0.559-0.16v-0.48c0.027-0.238 0.012-0.399-0.039-0.481-0.055-0.132-0.199-0.371-0.441-0.718-0.079-0.161-0.094-0.305-0.04-0.438-0.082 0.024-0.148 0.067-0.199 0.117 0.133 0.266 0.199 0.52 0.199 0.762-0.242-0.082-0.468-0.121-0.679-0.121h-0.082l0.043 0.801c0.023 0.453-0.203 0.972-0.684 1.558-0.426 0.508-0.879 0.883-1.359 1.121 0.136-0.16 0.308-0.359 0.519-0.601 0.188-0.215 0.297-0.453 0.321-0.719 0.136-0.851-0.028-1.226-0.481-1.121l-0.039-0.918c0-0.078-0.012-0.145-0.039-0.199-0.078 0.078-0.145 0.172-0.199 0.281v-0.801c-0.375-0.082-0.68 0-0.922 0.242-0.024-0.187-0.024-0.429 0-0.722 0-0.188-0.133-0.305-0.399-0.36-0.292-0.027-0.519 0.067-0.679 0.282-0.133-0.082-0.215-0.309-0.242-0.68-0.028-0.27-0.305-0.402-0.84-0.402-0.453 0.027-0.707 0.132-0.758 0.32-0.133 0.426-0.227 0.668-0.281 0.719-0.133-0.133-0.36-0.211-0.68-0.239-0.348-0.027-0.574 0.028-0.68 0.161 0.055 0.187 0.172 0.332 0.36 0.437-0.266-0.078-0.692-0.09-1.282-0.039-0.05 0.242 0.055 0.48 0.321 0.723l0.043 0.039c0.023 0.027 0.066 0.039 0.117 0.039 0.187 0.133 0.387 0.226 0.601 0.281l-0.281-0.043h-0.359c-0.051 0.137-0.012 0.336 0.121 0.602 0.105 0.16 0.172 0.293 0.199 0.398-0.027 0.055-0.039 0.094-0.039 0.121-0.215-0.105-0.535-0.105-0.961 0l-0.039 0.563c0.211-0.11 0.426-0.149 0.641-0.121l-0.043 0.039c0.082 0.027 0.187 0.039 0.32 0.039 0.055 0.027 0.094 0.066 0.121 0.121v-0.121c0.078 0.027 0.172 0.043 0.281 0.043 0.266 0.078 0.293 0.277 0.079 0.597 0.292 0.028 0.679 0.055 1.16 0.082 0.375 0.106 0.547 0.414 0.519 0.918 0.16-0.293 0.453-0.371 0.879-0.238 0.453 0.133 0.656 0.371 0.602 0.719 0.215 0 0.441 0.039 0.679 0.121 0.106 0.051 0.215 0.094 0.321 0.117zm-10.321 3.082c0.028-0.105 0.055-0.226 0.082-0.359 0.051-0.16 0.094-0.348 0.118-0.563 0-0.105-0.012-0.265-0.039-0.476v-0.16l-0.04-0.204v-0.078h0.122c0.023-0.082 0.078-0.148 0.16-0.199l0.039-0.281c-0.028-0.028-0.055-0.055-0.082-0.078l-0.039-0.082c-0.16-0.215-0.227-0.399-0.2-0.559 0.028-0.242 0.172-0.375 0.442-0.402 0.156-0.024 0.41-0.039 0.758-0.039-0.348-0.293-0.602-0.532-0.758-0.719-0.32-0.32-0.297-0.602 0.078-0.84 0.16-0.082 0.441-0.109 0.84-0.082 0.293 0.027 0.508 0.082 0.64 0.16-0.16-0.16-0.242-0.371-0.242-0.64-0.023-0.079 0-0.36 0.082-0.84 0.16 0.109 0.254 0.226 0.282 0.359-0.028-0.348 0.05-0.586 0.238-0.719 0.48-0.187 0.812 0.2 1 1.16 0.293-0.667 0.508-0.785 0.64-0.359 0.106 0.32 0.145 0.746 0.122 1.281 0.023-0.293 0.183-0.523 0.476-0.679-0.023-0.75-0.144-1.243-0.359-1.485 0 0.055 0.015 0.121 0.043 0.203l-0.282-0.402c-0.187-0.105-0.375-0.144-0.558-0.117-0.242 0.023-0.375 0.133-0.402 0.316-0.079-0.558-0.614-0.918-1.598-1.078-0.027 0.106-0.027 0.227 0 0.36-0.055-0.106-0.121-0.215-0.203-0.321-0.051 0-0.094-0.011-0.117-0.039-0.403-0.027-0.747 0.028-1.043 0.16-0.293 0.16-0.454 0.387-0.481 0.68-0.023-0.187-0.172-0.309-0.437-0.359-0.243-0.055-0.453-0.039-0.641 0.039-0.398 0.215-0.348 0.629 0.16 1.242-0.215-0.242-0.668-0.293-1.359-0.16-0.055 0.265 0.011 0.547 0.199 0.84 0.133 0.078 0.266 0.16 0.398 0.238l0.282 0.16c0.132-0.133 0.293-0.293 0.48-0.48 0.371-0.426 0.813-0.614 1.32-0.559l-1 0.918c0.079 0.934-0.492 1.43-1.718 1.484-1.121 0.024-1.629-0.496-1.524-1.562 0-0.051-0.011-0.106-0.039-0.16 0-0.078-0.039-0.453-0.121-1.118-0.211-1.226-0.305-2.347-0.277-3.359-0.375 0.957-0.586 1.719-0.641 2.277-0.105 1.012-0.16 1.758-0.16 2.239 0 1.148 0.133 1.922 0.398 2.32l0.204 0.281c0.023 0 0.132 0.012 0.32 0.039 0.453 0.133 1.023 0.133 1.719 0 0.453-0.105 1.078-0.465 1.879-1.078 0.132-0.109 0.32-0.254 0.558-0.441 0.027 0.054 0.067 0.078 0.121 0.078 0.059 0.055 0.125 0.098 0.199 0.121l-0.078 0.082c-0.054 0.106-0.093 0.227-0.121 0.359-0.027 0.079-0.039 0.172-0.039 0.282-0.027 0.371-0.055 0.613-0.082 0.718l-0.277 0.641c-0.082 0.184-0.121 0.293-0.121 0.32-0.028 0.024-0.172 0.133-0.442 0.321-0.906 0.586-1.304 1.144-1.199 1.679 0.082 0.024 0.176 0.039 0.281 0.039h0.282c0.453 0 1.039-0.105 1.757-0.32zm19.2 10.199-0.68 0.2 1.16-0.239 0.039-0.242-0.519 0.281zm0.961-10.281c-0.055-0.211-0.106-0.449-0.161-0.719v-0.039c-0.105-0.426-0.304-0.812-0.597-1.16-0.055-0.055-0.11-0.105-0.16-0.16v-0.039c0-0.082 0.023-0.188 0.078-0.32v-0.161c0-0.078 0.015-0.16 0.043-0.238 0.023-0.242 0.05-0.48 0.078-0.723-0.188 0.293-0.426 0.586-0.719 0.883-0.48 0.371-0.922 0.547-1.32 0.52-0.508-0.055-0.934-0.414-1.282-1.082-0.32-0.586-0.453-1.16-0.398-1.719l-0.203-0.082c0.027 0.16 0.066 0.359 0.121 0.602 0.188 1.066 0.348 1.851 0.48 2.359 0.028 0.105 0.055 0.199 0.082 0.281 0.184 0.586 0.516 1.012 1 1.281 0.211 0.106 0.465 0.184 0.758 0.239 0.242 0.027 0.453-0.016 0.641-0.121l0.039 0.16c-0.055 0.027-0.094 0.054-0.121 0.078-0.184 0.082-0.332 0.16-0.438 0.242 0.348-0.027 0.586 0.067 0.719 0.281 0 0.239 0.028 0.465 0.078 0.68-0.078 0.133-0.211 0.25-0.398 0.359 0.238 0.079 0.414 0.239 0.519 0.481 0.082 0.238 0.094 0.48 0.039 0.719-0.023 0.265-0.132 0.425-0.32 0.48-0.344 0.133-0.558 0.238-0.637 0.32 0.161 0.079 0.332 0.122 0.52 0.122 0.613 0.078 0.934 0.132 0.961 0.16 0.156 0.105 0.066 0.371-0.281 0.797 0.504 0.027 0.797 0.121 0.879 0.281 0.054 0.078 0.082 0.387 0.082 0.922l0.117-0.641c0.242 0.32 0.293 0.719 0.16 1.199-0.106 0.453-0.359 0.664-0.758 0.641 0.371 0.078 0.625 0.277 0.758 0.598 0.187 0.402 0.082 0.734-0.32 1 0.214 0.054 0.32 0.226 0.32 0.519-0.051 0.215-0.117 0.363-0.199 0.441 0.078 0 0.164-0.027 0.261-0.078h0.059c0.188-0.054 0.348-0.121 0.48-0.203 0.028 0.43 0.04 0.696 0.04 0.801v1.801c0.375-0.641 0.601-1.492 0.679-2.559v-2.043c0.082 0.055 0.188 0.043 0.321-0.039 0.054-0.773-0.028-1.398-0.243-1.879l-0.156-0.32-0.402-0.559c0.109-0.16 0.176-0.336 0.203-0.523 0.211 0.082 0.426 0.094 0.637 0.043 0.293-0.027 0.546-0.188 0.761-0.481 0.239-0.32 0.414-0.679 0.52-1.082 0.027-0.105 0.051-0.226 0.082-0.359 0.023-0.16 0.039-0.437 0.039-0.84v-0.758c0-0.457-0.016-0.91-0.039-1.363-0.055-0.613-0.137-1.211-0.242-1.797-0.133 0.293-0.254 0.891-0.36 1.797-0.027 0.109-0.043 0.203-0.043 0.281-0.023 0.133-0.039 0.254-0.039 0.36 0.055-0.266 0.094-0.481 0.121-0.641 0.024-0.172 0.039-0.285 0.039-0.34v0.34c-0.027 0.828-0.093 1.551-0.199 2.16-0.105 0.403-0.226 0.762-0.359 1.082-0.106 0.239-0.199 0.375-0.281 0.399-0.051 0.027-0.215 0-0.481-0.078-0.453-0.028-0.801-0.094-1.039-0.2-0.055 0-0.094-0.015-0.121-0.043-0.078-0.027-0.145-0.066-0.199-0.117-0.082-0.109-0.16-0.308-0.242-0.601-0.024-0.133-0.051-0.239-0.079-0.321-0.027-0.187-0.054-0.293-0.078-0.32-0.054-0.16-0.121-0.398-0.203-0.719-0.051-0.105-0.094-0.226-0.117-0.359-0.137-0.453-0.293-0.789-0.48-1l-0.321-1.52c0.321 0.586 0.762 1.465 1.321 2.637zm-1.758-3.117c0.105-0.082 0.226-0.199 0.359-0.359 0.024-0.028 0.184-0.254 0.481-0.684 0.078-0.133 0.16-0.238 0.238-0.316 0.027-0.618 0-1.083-0.078-1.403-0.055 0.106-0.11 0.414-0.16 0.918-0.137 0.563-0.364 1.082-0.68 1.563-0.082-0.243-0.254-0.668-0.524-1.282-0.265-0.64-0.078-0.906 0.563-0.8-0.426-0.161-0.883-0.371-1.359-0.637-0.59-0.348-0.977-0.668-1.161-0.961 0.211-0.215 0.438-0.254 0.68-0.121l0.441 0.039c0.133-0.051 0.227-0.117 0.278-0.199 0.746-0.078 1.133 0.082 1.16 0.48 0-0.293 0.133-0.347 0.398-0.16 0.321 0.188 0.454 0.414 0.403 0.68 0.078-0.157 0.254-0.25 0.519-0.278 0.266-0.027 0.481 0 0.641 0.078 0.211 0.11 0.316 0.266 0.316 0.481 0 0.266-0.011 0.492-0.039 0.68 0.11-0.106 0.242-0.133 0.403-0.078 0.105 0.05 0.183 0.144 0.238 0.277 0.027-0.106 0.094-0.184 0.199-0.238 0.055-0.028 0.176-0.055 0.36-0.079 0-1.015-0.079-1.55-0.239-1.601-0.105-0.055-0.187-0.067-0.238-0.043l-0.082 0.043c-0.051 0.023-0.09 0.066-0.117 0.117-0.055 0.055-0.094 0.109-0.121 0.16 0.054-0.133 0.132-0.32 0.238-0.558 0.16-0.403 0.16-0.707 0-0.918-0.16-0.243-0.344-0.297-0.559-0.16-0.16 0.105-0.281 0.304-0.359 0.597-0.242-0.293-0.414-0.492-0.52-0.597-0.187-0.215-0.441-0.282-0.761-0.204-0.028 0.161-0.028 0.321 0 0.481-0.078-0.238-0.532-0.399-1.36-0.481-0.906-0.078-1.398 0.11-1.48 0.563-0.215-0.215-0.531-0.32-0.961-0.32-0.238 0-0.387 0.05-0.438 0.16 0.106 0 0.227 0.011 0.36 0.039 0.078 0 0.347 0.054 0.801 0.16-0.481 0-0.762 0.078-0.84 0.238-0.082 0.188 0.011 0.348 0.277 0.481-0.348 0-0.559 0.015-0.641 0.043 0.11 0.156 0.364 0.332 0.762 0.519 0.215 0.106 0.442 0.25 0.68 0.438l0.64 0.562c0.133 0.211 0.309 0.332 0.52 0.36-0.027 0.238-0.133 0.371-0.32 0.398-0.266 0.055-0.426 0.094-0.481 0.121l-0.039 0.039c0.133 0.16 0.16 0.375 0.078 0.641 0.11-0.293 0.297-0.414 0.563-0.36 0.187 0.028 0.304 0.094 0.359 0.2 0.028 0.187 0.039 0.347 0.039 0.48 0 0.027-0.011 0.348-0.039 0.957v0.082h0.117c0.028 0 0.055-0.012 0.082-0.039v-0.16l0.403-0.039zm-7.481 0.039v0.238l-0.242-0.078 0.039-0.199c0.055 0.027 0.121 0.039 0.203 0.039-0.027-0.266-0.148-0.453-0.359-0.559-0.027-0.027-0.067-0.043-0.121-0.043h-0.082c-0.16-0.023-0.492-0.066-1-0.117 0.082-0.054 0.226-0.215 0.441-0.48 0.133-0.16 0.305-0.254 0.52-0.282 0.375-0.054 0.601 0.055 0.679 0.321 0.028 0.051 0.039 0.105 0.039 0.16 0.082 0.293 0.161 0.465 0.243 0.519 0.453-0.16 0.8-0.187 1.039-0.082 0.215 0.11 0.332 0.293 0.359 0.563 0.027 0.133 0.027 0.277 0 0.437 0 0.11-0.012 0.2-0.039 0.282-0.188-0.188-0.398-0.332-0.641-0.442-0.187-0.078-0.371-0.144-0.558-0.199-0.106-0.027-0.215-0.051-0.321-0.078h-0.199zm3.719-0.559c0.105 0.266 0.188 0.426 0.238 0.477 0.137-0.238 0.071-0.399-0.199-0.477h-0.039zm-10.641 2.438v-0.598c-0.027 0.613-0.066 1.078-0.121 1.399l-0.359 1.082c-0.078 0.664-0.117 1.011-0.117 1.039-0.137 0.64-0.176 1.238-0.121 1.801 0.105 0.796 0.414 1.238 0.918 1.316 0.347 0.055 0.734-0.066 1.16-0.359 0.269-0.161 0.601-0.415 1-0.758 0.426-0.293 0.789-0.574 1.082-0.84 0.054-0.133 0.105-0.281 0.16-0.442 0.078-0.375 0.211-0.707 0.398-1 0.536-0.8 0.762-1.441 0.68-1.917-0.238 0.023-0.531 0.183-0.879 0.476-0.027 0-0.039 0.016-0.039 0.043-0.082 0.051-0.148 0.106-0.199 0.16-0.242 0.266-0.535 0.613-0.883 1.039-0.504 0.586-0.961 1.051-1.359 1.399-0.188 0.16-0.348 0.265-0.481 0.32-0.027 0.027-0.054 0.039-0.078 0.039 0.024 0.027 0.067 0.043 0.117 0.043 0.055 0.051 0.121 0.078 0.203 0.078 0.079 0.028 0.172 0.039 0.278 0.039 0.613 0.082 1.187-0.039 1.722-0.359-0.562 0.855-1.242 1.105-2.043 0.762-0.105-0.055-0.199-0.106-0.277-0.161-0.215-0.105-0.387-0.242-0.519-0.402-0.082-0.051-0.137-0.133-0.161-0.238-0.187-0.321-0.281-0.696-0.281-1.121l0.199-2.84zm4.563 3c-0.242 0.242-0.453 0.469-0.641 0.68 0.16-0.133 0.278-0.25 0.36-0.36 0.105-0.105 0.199-0.215 0.281-0.32zm0.918-7.117-0.039 0.597c-0.403 0.082-0.735 0.016-1-0.199-0.293-0.215-0.403-0.519-0.321-0.922-0.347 0.215-0.761 0.16-1.242-0.16-0.078-0.051-0.16-0.117-0.238-0.199-0.188-0.348-0.121-0.559 0.199-0.641l0.199-0.039c-0.16-0.293-0.265-0.586-0.32-0.879 0.453-0.16 0.91-0.109 1.363 0.16 0.481 0.266 0.664 0.637 0.559 1.118 0.16-0.079 0.387-0.133 0.68-0.161 0.347-0.023 0.586 0.016 0.718 0.122 0.188 0.105 0.297 0.281 0.321 0.519 0 0.266 0.015 0.469 0.043 0.602h0.316c-0.051 0.05-0.09 0.105-0.117 0.16-0.133 0.211-0.32 0.304-0.563 0.277-0.265 0.004-0.453-0.117-0.558-0.355zm-2.442-1.563c0.215 0.348 0.469 0.602 0.762 0.762 0.106-0.27 0.067-0.469-0.121-0.602-0.16-0.132-0.371-0.187-0.641-0.16z" inkscape:connector-curvature="0"/>
      <path id="path16" style="fill-rule:evenodd;fill:#414428" d="m27.602 5.117 0.238-0.64c0.265-0.321 0.492-0.508 0.68-0.563 0.32-0.105 0.761-0.133 1.32-0.078 0.64 0.051 1 0.227 1.082 0.52-0.055-0.586 0.078-0.907 0.398-0.961 0.215-0.028 0.387 0.082 0.52 0.32 0-0.293 0.015-0.48 0.039-0.559 0.055-0.16 0.187-0.269 0.402-0.32 0.133-0.055 0.321-0.043 0.559 0.039 0.265 0.082 0.426 0.188 0.48 0.32l0.039-0.32c0.321-0.051 0.547-0.082 0.68-0.082 0.27 0.027 0.441 0.137 0.523 0.32 0.106 0.27 0.012 0.575-0.281 0.922-0.242 0.293-0.508 0.493-0.801 0.602 0.266 0.344 0.161 0.68-0.32 1-0.16-0.082-0.348-0.094-0.558-0.043-0.266 0.055-0.387 0.16-0.36 0.32 0.293 0.055 0.598-0.039 0.918-0.281l0.082 0.043c0.211 0.184 0.184 0.547-0.082 1.078 0.481-0.266 0.934-0.359 1.36-0.281 0.027 0.242 0.042 0.402 0.042 0.48 0.45-0.027 0.692 0.227 0.719 0.762 0 0.426-0.16 0.664-0.48 0.719 0.211 0.027 0.347 0.148 0.398 0.359 0.055 0.242 0.016 0.535-0.121 0.883 0.16 0.105 0.457 0.199 0.883 0.277 0.426 0.055 0.746 0.16 0.961 0.321 0.293 0.214 0.437 0.375 0.437 0.48 0.028 0.106-0.05 0.266-0.238 0.481l-0.121 0.082c0.055 0 0.121-0.016 0.199-0.039 0.055 0 0.121-0.016 0.199-0.043h0.043c0.692-0.133 1.024-0.399 1-0.797 0.133 0.023 0.321 0.05 0.559 0.078 0.348 0.027 0.602 0 0.762-0.078 0.636-0.297 1.011-1.094 1.117-2.403 0.027-0.132 0.043-0.906 0.043-2.32-0.027 0.426-0.11 0.828-0.242 1.199-0.133 0.293-0.403 0.762-0.801 1.403-0.188 0.32-0.359 0.531-0.52 0.64-0.187 0.106-0.464 0.16-0.839 0.16-0.426 0-0.692-0.027-0.801-0.082-0.184-0.054-0.371-0.242-0.559-0.558-0.055-0.11-0.105-0.321-0.16-0.641 1.121-0.375 1.641-0.652 1.559-0.84-0.266 0-0.426-0.015-0.481-0.043-0.156-0.023-0.226-0.144-0.199-0.359-0.215-0.024-0.625 0.016-1.238 0.121-0.536 0.078-0.934 0.078-1.203 0l-0.516-0.437-0.844-0.282c0.082-0.082 0.32-0.199 0.723-0.359 0.32-0.16 0.359-0.359 0.121-0.602 0.133-0.078 0.543-0.172 1.238-0.281 0.613-0.16 0.918-0.344 0.918-0.559-0.078-0.105-0.183-0.187-0.316-0.238 0.023-0.054 0.343-0.121 0.957-0.203 0.558-0.078 0.801-0.277 0.719-0.598-0.051-0.293-0.317-0.453-0.797-0.48-0.536 0.027-0.883 0.039-1.043 0.039 0.16-0.211 0.254-0.371 0.281-0.48-0.238-0.239-0.613-0.293-1.117-0.161-0.563 0.133-0.95 0.149-1.16 0.043 0-0.242 0.023-0.535 0.078-0.882-0.028-0.211-0.188-0.332-0.481-0.36-0.211-0.027-0.414 0.028-0.597 0.16-0.137 0.106-0.215 0.227-0.243 0.36 0-0.266-0.066-0.508-0.199-0.719-0.16-0.238-0.426-0.332-0.801-0.281-0.32 0.027-0.558 0.215-0.718 0.558-0.106 0.43-0.2 0.75-0.282 0.961-0.187-0.371-0.531-0.453-1.039-0.238-0.48 0.238-0.718 0.547-0.718 0.918-0.028-0.316-0.243-0.41-0.641-0.277-0.453 0.132-0.684 0.386-0.684 0.757-0.156-0.183-0.382-0.304-0.679-0.359 0-0.187 0.015-0.508 0.043-0.961-0.055-0.371-0.215-0.625-0.481-0.758-0.426-0.187-0.816-0.199-1.16-0.039-0.055 0.024-0.109 0.051-0.16 0.078-0.082 0.055-0.149 0.11-0.199 0.16l-0.121 0.083c-0.082 0.105-0.133 0.226-0.161 0.359-0.027 0.051-0.039 0.105-0.039 0.156-0.054-0.371-0.226-0.703-0.519-1-0.11-0.105-0.199-0.183-0.281-0.238l-0.122-0.078c-0.21-0.082-0.425-0.11-0.636-0.082h-0.043c-0.426 0.082-0.559 0.574-0.399 1.48v0.078c-0.109-0.16-0.242-0.316-0.398-0.476-0.215-0.16-0.457-0.309-0.723-0.442-0.558-0.265-0.972-0.281-1.238-0.043 0.051 0.161 0.172 0.321 0.359 0.485 0.078 0.078 0.227 0.211 0.442 0.398-0.617-0.105-1.071-0.187-1.364-0.238-0.558-0.055-1.023-0.043-1.398 0.039-0.105 0.16-0.094 0.348 0.039 0.559 0.082 0.105 0.215 0.253 0.402 0.441-0.109 0.051-0.296 0.066-0.562 0.039s-0.465 0-0.598 0.078c-0.695-1.066-1.281-1.371-1.761-0.918-0.079-0.613-0.348-1.094-0.801-1.437-0.453-0.375-0.985-0.508-1.598-0.403-0.055 0.243-0.016 0.442 0.117 0.602-1.172-0.43-2.597-0.496-4.277-0.199 0.48 0.558 0.867 0.929 1.16 1.117h-0.043c-0.211-0.027-0.465-0.039-0.758-0.039h-0.242c-0.211 0-0.398 0.012-0.558 0.039-0.321 0.027-0.559 0.066-0.719 0.121-0.133 0.051-0.227 0.117-0.281 0.199l1.679 1.281c0.106 0.051 0.215 0.106 0.321 0.161 0.082 0.05 0.16 0.105 0.242 0.16l-0.043-0.043c-0.266-0.239-0.371-0.481-0.321-0.719 0.59-0.055 1.016-0.039 1.282 0.039-0.188-0.105-0.305-0.25-0.36-0.437 0.106-0.137 0.332-0.188 0.68-0.161 0.32 0.024 0.547 0.106 0.68 0.239 0.054-0.051 0.148-0.293 0.281-0.719 0.051-0.188 0.305-0.293 0.758-0.32 0.535 0 0.816 0.132 0.84 0.398 0.027 0.375 0.109 0.602 0.242 0.684 0.16-0.215 0.387-0.309 0.679-0.282 0.266 0.051 0.399 0.172 0.399 0.36-0.024 0.293-0.024 0.535 0 0.719 0.242-0.239 0.547-0.321 0.922-0.239v0.797c0.054-0.105 0.121-0.199 0.199-0.277 0.027 0.051 0.039 0.121 0.039 0.199l0.039 0.922c0.453-0.109 0.617 0.266 0.481 1.117-0.028 0.266-0.133 0.508-0.321 0.719-0.211 0.242-0.383 0.441-0.519 0.601 0.48-0.238 0.933-0.613 1.359-1.121 0.481-0.586 0.707-1.105 0.684-1.558l-0.043-0.801h0.082c0.211 0 0.437 0.043 0.679 0.121 0-0.242-0.066-0.492-0.199-0.762 0.051-0.05 0.117-0.093 0.199-0.117-0.054 0.133-0.039 0.277 0.04 0.438 0.242 0.347 0.386 0.586 0.441 0.718 0.051 0.082 0.066 0.243 0.039 0.485v0.476c0.32 0.055 0.508 0.11 0.559 0.16 0.132 0.082 0.203 0.27 0.203 0.563h0.078l0.039 0.039 0.199 0.082c-0.051 0.559 0.082 1.133 0.402 1.719 0.348 0.668 0.774 1.027 1.282 1.078 0.398 0.027 0.84-0.145 1.316-0.516 0.297-0.297 0.535-0.59 0.723-0.883 0.238-0.398 0.359-0.8 0.359-1.199-0.082 0.028-0.187 0.121-0.32 0.282-0.078 0.078-0.16 0.183-0.238 0.316-0.293 0.43-0.454 0.656-0.481 0.684-0.133 0.16-0.254 0.277-0.359 0.359-0.16 0.133-0.297 0.199-0.403 0.199-0.027 0.027-0.05 0.039-0.082 0.039h-0.117c-0.48 0.082-0.812-0.117-1-0.597-0.082-0.215-0.121-0.469-0.121-0.762-0.027-0.293 0.016-0.508 0.121-0.641l0.039-0.039c0.055-0.027 0.215-0.066 0.481-0.121 0.187-0.023 0.293-0.16 0.32-0.398-0.215-0.028-0.387-0.149-0.52-0.36l-0.64-0.562c-0.238-0.184-0.465-0.332-0.68-0.438-0.398-0.187-0.652-0.359-0.762-0.519 0.082-0.028 0.293-0.043 0.641-0.043-0.266-0.133-0.359-0.289-0.277-0.477 0.078-0.16 0.359-0.242 0.84-0.242-0.454-0.106-0.723-0.16-0.801-0.16-0.133-0.028-0.254-0.039-0.36-0.039 0.051-0.106 0.2-0.16 0.438-0.16 0.43 0 0.75 0.105 0.961 0.32 0.082-0.453 0.574-0.641 1.48-0.559 0.828 0.078 1.282 0.239 1.36 0.477-0.028-0.16-0.028-0.317 0-0.477 0.32-0.082 0.574-0.015 0.761 0.2 0.106 0.105 0.282 0.304 0.52 0.597 0.078-0.293 0.199-0.492 0.359-0.597 0.215-0.133 0.399-0.083 0.559 0.16 0.16 0.211 0.16 0.519 0 0.918-0.051 0.132-0.094 0.265-0.117 0.398 0.023-0.051 0.066-0.09 0.117-0.117l0.082-0.043c0.051-0.024 0.133-0.012 0.238 0.043 0.16 0.051 0.242 0.586 0.242 1.601l0.039 0.719 0.079-0.722 0.043-0.118zm8.359 6.758c-0.109 0.055-0.227 0.094-0.359 0.121-0.055-0.082-0.094-0.148-0.122-0.199 0.082 0 0.215-0.016 0.399-0.043h0.043c0.238 0.027 0.586 0.055 1.039 0.082 0.641 0.027 1.094-0.039 1.359-0.199-0.132-0.109-0.414-0.176-0.84-0.199-0.453-0.028-0.761-0.043-0.921-0.043h-0.039c-0.829-0.133-1.293 0.109-1.399 0.722-0.109 0.024-0.199 0.039-0.281 0.039l-0.121 0.039c-0.371 0-0.641 0.083-0.797 0.243l-0.082 0.039c-0.32 0.398-0.094 0.691 0.68 0.879l0.121 0.039 1 0.242c0.027 0.023 0.05 0.051 0.082 0.078h0.039c0.027 0.027 0.05 0.055 0.078 0.082 0.32 0.266 0.773 0.598 1.359 1-0.133-0.426-0.398-0.934-0.797-1.519-0.027-0.028-0.043-0.055-0.043-0.083 0.028-0.132 0.028-0.292 0-0.48-0.023-0.133-0.066-0.266-0.117-0.398-0.082-0.161-0.176-0.309-0.281-0.442zm-29-9.039c-0.027 0-0.039 0.012-0.039 0.039 0.984 0.16 1.519 0.52 1.598 1.082 0.027-0.187 0.16-0.293 0.402-0.32 0.183-0.027 0.371 0.012 0.558 0.117-0.054-0.133-0.105-0.25-0.16-0.359l-0.16-0.157v-0.043c-0.055-0.05-0.094-0.093-0.121-0.117-0.027-0.054-0.066-0.093-0.117-0.121-0.16-0.133-0.348-0.242-0.563-0.32-0.16-0.055-0.32-0.082-0.48-0.082-0.559-0.051-0.867 0.039-0.918 0.281zm-0.359 0.039c-0.43-0.347-1.043-0.574-1.84-0.68-0.801-0.082-1.387 0.012-1.762 0.282v0.039l0.039 0.281c0.027 0.266 0.133 0.492 0.32 0.68-0.371 0.133-0.613 0.254-0.718 0.359-0.055 0.082-0.106 0.16-0.161 0.242-0.16 0.399 0.012 0.813 0.52 1.239-0.188-0.293-0.254-0.575-0.199-0.84 0.691-0.133 1.144-0.082 1.359 0.16-0.508-0.613-0.558-1.027-0.16-1.242 0.188-0.078 0.398-0.09 0.641-0.039 0.265 0.054 0.414 0.172 0.437 0.359 0.027-0.293 0.188-0.52 0.481-0.68 0.296-0.132 0.64-0.187 1.043-0.16zm3.117 1.082c0.215 0.238 0.336 0.731 0.359 1.481l0.082 0.156-0.039-0.156 0.039-0.563c0.426-0.105 0.746-0.105 0.961 0 0-0.023 0.012-0.066 0.039-0.117-0.027-0.109-0.094-0.242-0.199-0.402-0.133-0.266-0.176-0.465-0.121-0.598-0.293-0.027-0.652-0.016-1.078 0.039-0.028 0.051-0.043 0.106-0.043 0.16zm-8.481 1.559c-0.105 1.066 0.403 1.586 1.524 1.558 1.226-0.05 1.797-0.546 1.718-1.48l1-0.918c-0.507-0.055-0.949 0.133-1.32 0.559-0.187 0.187-0.348 0.347-0.48 0.48-0.266 0.242-0.465 0.387-0.602 0.441-0.371 0.133-0.719 0.094-1.039-0.121-0.32-0.347-0.57-0.586-0.758-0.718 0 0.078-0.015 0.144-0.043 0.199zm34.043 2.84c0.211-0.051 0.426-0.118 0.641-0.2 0.023 0.051 0.051 0.094 0.078 0.122-0.215 0-0.453 0.023-0.719 0.078zm-9.242 3.039c-0.16-0.16-0.332-0.371-0.519-0.641-0.559-1.172-1-2.051-1.321-2.637l0.321 1.52c0.187 0.211 0.347 0.547 0.48 1 0.027 0.133 0.066 0.254 0.121 0.359 0.078 0.321 0.145 0.559 0.199 0.719 0.028 0.027 0.055 0.133 0.082 0.32 0.024 0.082 0.051 0.188 0.078 0.321 0.082 0.293 0.161 0.492 0.243 0.601 0.05 0.051 0.117 0.094 0.199 0.117 0.027 0.028 0.066 0.043 0.117 0.043 0.242 0.106 0.59 0.172 1.043 0.2 0.266 0.078 0.426 0.105 0.48 0.078 0.079-0.024 0.172-0.16 0.278-0.399 0.137-0.32 0.254-0.679 0.363-1.082 0.106-0.613 0.172-1.332 0.199-2.16v-0.34c-0.004 0.055-0.015 0.168-0.039 0.34-0.027 0.16-0.07 0.375-0.121 0.641-0.027 0.054-0.039 0.109-0.039 0.16v0.16c-0.082 0.215-0.148 0.414-0.203 0.602-0.051 0.054-0.117 0.105-0.199 0.16-0.106 0.105-0.254 0.183-0.438 0.238-0.32 0.133-0.574 0.16-0.761 0.082-0.188-0.055-0.375-0.187-0.563-0.402zm-9.758-3.719h0.199c0.106 0.027 0.215 0.051 0.321 0.078 0.187 0.055 0.371 0.121 0.558 0.203 0.243 0.106 0.453 0.25 0.641 0.438 0.027-0.078 0.039-0.172 0.039-0.278 0.027-0.16 0.027-0.308 0-0.441-0.027-0.266-0.144-0.453-0.359-0.559-0.239-0.109-0.586-0.082-1.039 0.078-0.082-0.05-0.161-0.226-0.243-0.519 0-0.051-0.011-0.106-0.039-0.16-0.078-0.266-0.304-0.371-0.679-0.321-0.215 0.028-0.387 0.122-0.52 0.282-0.215 0.265-0.359 0.426-0.441 0.48 0.508 0.055 0.84 0.094 1 0.121h0.082c0.054 0 0.094 0.012 0.121 0.039 0.211 0.106 0.332 0.293 0.359 0.559-0.082 0-0.148-0.016-0.203-0.039l-0.039 0.199 0.242 0.078v-0.238zm-5.359 8.559c0.133-0.211 0.211-0.332 0.238-0.36l-1.082 0.801c-0.133 0.051-0.266 0.266-0.398 0.641-0.16 0.343-0.227 0.597-0.2 0.757 0.215-0.32 0.575-0.73 1.079-1.238 0.136-0.215 0.242-0.398 0.32-0.558l0.043-0.043zm-1.563-6.68-0.199 2.84c0 0.425 0.094 0.8 0.281 1.121 0.028 0.105 0.079 0.187 0.161 0.238 0.132 0.16 0.304 0.297 0.519 0.402 0.078 0.055 0.172 0.106 0.277 0.161 0.801 0.343 1.481 0.093 2.043-0.762-0.535 0.32-1.109 0.441-1.722 0.359-0.106 0-0.199-0.011-0.278-0.039-0.082 0-0.148-0.027-0.203-0.078-0.05 0-0.093-0.016-0.117-0.043l-0.082-0.078c-0.266-0.188-0.414-0.574-0.437-1.16-0.028-0.16-0.043-0.36-0.043-0.602-0.028-0.265-0.039-0.586-0.039-0.957-0.028-0.668-0.04-1.519-0.04-2.562v-0.52l-0.121 1.68zm-3.8 0.359v0.281c0 0.536-0.039 0.961-0.118 1.282 0.106-0.188 0.239-0.399 0.399-0.641 0.348-0.508 0.558-0.879 0.64-1.121 0.051-0.16 0.094-0.387 0.122-0.68v-0.082c0-0.343-0.016-0.797-0.043-1.359l-0.598-0.117-0.16 1.039-0.039 0.281c-0.082 0.051-0.137 0.117-0.16 0.199-0.055 0.078-0.082 0.172-0.082 0.282v0.16c0.027 0.211 0.039 0.371 0.039 0.476zm7.722 3.321c0.184-0.211 0.399-0.438 0.641-0.68 0.023 0 0.039-0.012 0.039-0.039 0.184-0.188 0.359-0.375 0.519-0.559l0.122-0.121c0.078-0.105 0.183-0.242 0.32-0.398l0.039-0.043v-0.039c0.078-0.133 0.144-0.254 0.199-0.36 0.106-0.16 0.215-0.453 0.32-0.879v-0.082c0.028-0.031 0.055-0.097 0.079-0.199 0.027-0.187 0.066-0.398 0.121-0.641 0.027-0.082 0.054-0.187 0.082-0.32 0.023-0.215 0.039-0.465 0.039-0.758v-0.402l0.121 0.082c0.051-0.055 0.09-0.105 0.117-0.16h-0.238c-0.028-0.152-0.039-0.32-0.039-0.5-0.004 0.133-0.016 0.301-0.043 0.5h-0.239l0.2 0.039v0.082c-0.055 0.16-0.106 0.32-0.16 0.48-0.028 0.051-0.04 0.094-0.04 0.118-0.187 0.429-0.386 0.75-0.601 0.961-0.078 0.082-0.227 0.199-0.438 0.359-0.027 0-0.054 0.016-0.082 0.043-0.078 0.051-0.148 0.105-0.199 0.16-0.133 0.133-0.293 0.266-0.48 0.399l-0.481 0.398-0.277 0.242-1.043 0.879c0.215-0.078 0.562-0.359 1.043-0.84 0.051-0.051 0.117-0.105 0.199-0.16 0-0.027 0.012-0.039 0.039-0.039 0.348-0.293 0.641-0.453 0.879-0.48 0.082 0.48-0.144 1.121-0.68 1.917-0.187 0.297-0.32 0.629-0.398 1-0.055 0.161-0.106 0.309-0.16 0.442-0.082 0.215-0.133 0.387-0.16 0.519 0.132-0.265 0.347-0.574 0.64-0.921z" inkscape:connector-curvature="0"/>
      <path id="path18" style="fill-rule:evenodd;fill:#6d7247" d="m35.762 13.715h-0.043c-0.02 0.023-0.047 0.035-0.078 0.039 0.035-0.004 0.074-0.016 0.121-0.039zm0.199-1.84c0.105 0.133 0.199 0.281 0.277 0.442-0.078-0.243-0.183-0.426-0.316-0.563h-0.043l0.082 0.121zm-10.602-10.238c-0.078-0.242-0.226-0.481-0.437-0.723-0.137-0.16-0.27-0.277-0.402-0.359 0.082 0.055 0.171 0.133 0.281 0.242 0.293 0.293 0.465 0.625 0.519 1 0-0.055 0.012-0.109 0.039-0.16zm-2.039 0.238c-0.109-0.133-0.242-0.265-0.398-0.398 0.156 0.16 0.289 0.316 0.398 0.48v-0.082zm-13.359-1.437c0.293 0.371 0.613 0.703 0.961 1 0.051 0.023 0.105 0.066 0.156 0.117h0.043c-0.293-0.188-0.68-0.559-1.16-1.117zm-6.961 2.039c0.375-0.27 0.961-0.36 1.762-0.282 0.797 0.106 1.41 0.333 1.84 0.68 0.023 0.028 0.066 0.039 0.117 0.039-0.321-0.32-0.864-0.547-1.641-0.679-0.957-0.161-1.652-0.079-2.078 0.242zm3.961 0.359c0.051-0.242 0.359-0.332 0.918-0.281-0.371-0.051-0.625-0.039-0.758 0.039-0.109 0.055-0.16 0.137-0.16 0.242zm2.801 0.961c0.426-0.055 0.785-0.066 1.078-0.043h0.359c-0.426-0.051-0.906-0.039-1.437 0.043zm-0.282-0.043 0.282 0.402c-0.188-0.32-0.336-0.574-0.442-0.761 0.055 0.109 0.106 0.226 0.16 0.359zm-6.839 0.082c0.105-0.109 0.347-0.226 0.718-0.359-0.187-0.188-0.293-0.414-0.32-0.684 0 0.27 0.094 0.496 0.281 0.684-0.32 0.078-0.547 0.199-0.679 0.359zm2.558 2.758l0.082 0.082c0.024 0.027 0.067 0.039 0.117 0.039-0.074-0.023-0.14-0.066-0.199-0.121zm0.121 0.203c-0.054 0.078-0.093 0.184-0.121 0.32v0.039c0.028-0.132 0.067-0.253 0.121-0.359zm0.039 4.039c-0.718 0.215-1.304 0.32-1.757 0.32 0.453 0.028 0.984-0.054 1.597-0.242 0.055 0 0.106-0.011 0.16-0.039v-0.039zm1.243-1.879v0.078l0.597-0.039c0 0.481-0.066 0.946-0.199 1.399 0.215-0.051 0.332-0.078 0.359-0.078 0.028 0.718 0.082 1.199 0.161 1.437 0.132-0.449 0.308-0.934 0.519-1.437 0.242-0.586 0.602-1.375 1.082-2.36-0.215-0.187-0.426-0.347-0.641-0.48-0.613-0.403-1.132-0.426-1.558-0.082 0 0.16 0.051 0.398 0.156 0.718 0.082 0.325 0.121 0.575 0.121 0.762-0.32-0.027-0.519 0-0.597 0.082zm5.238 8.598-0.16 0.039c0.054-0.078 0.359-0.277 0.922-0.598-0.188-0.242-0.137-0.426 0.16-0.558-0.801 0.078-1.203-0.055-1.203-0.403 0-0.265 0.308-0.425 0.921-0.48l-0.64-0.438c-0.028 0.051-0.051 0.094-0.078 0.118-0.297 0.375-0.574 0.707-0.84 1 0 0.027 0.012 0.054 0.039 0.082 0.211 0.027 0.465 0.121 0.758 0.277l-0.117 0.641c-0.243 0.027-0.469 0.121-0.68 0.281 0.183 0.215 0.492 0.226 0.918 0.039zm3.441-6.598c-0.054 0.055-0.109 0.121-0.16 0.199-0.055 0.079-0.109 0.149-0.16 0.2v0.039l-0.039 0.043c-0.137 0.156-0.242 0.293-0.32 0.398l-0.122 0.121c0 0.293-0.027 0.625-0.082 1 0.59-0.508 0.883-0.453 0.883 0.16 0.024 0.211-0.043 0.746-0.203 1.598 0.082-0.027 0.203-0.027 0.363 0 0.051 0.535 0.039 0.922-0.043 1.16 0.59-0.371 0.883-0.055 0.883 0.961-0.508-0.027-0.883-0.016-1.121 0.039 0.106 0.133 0.348 0.336 0.719 0.602 0.293 0.293 0.426 0.57 0.402 0.84-0.054 0.503-0.562 0.558-1.519 0.16 0.265 0.824 0.304 1.304 0.117 1.437-0.184 0.137-0.426 0.067-0.719-0.199-0.238-0.238-0.387-0.48-0.441-0.719l0.402-0.801-0.68 0.2c-0.109-0.133-0.136-0.278-0.082-0.438-0.425 0.133-0.972 0.172-1.64 0.117v-0.078c-0.024 0.215-0.024 0.442 0 0.68 0.215 0.105 0.48 0.133 0.801 0.078 0.187-0.023 0.347-0.094 0.48-0.199-0.078 0.16-0.133 0.359-0.16 0.601-0.028 0.348 0 0.653 0.082 0.918 0.211 0.055 0.465 0.043 0.758-0.039 0.132-0.027 0.242-0.078 0.32-0.16-0.027 0.133-0.027 0.309 0 0.52 0.238 0.109 0.375 0.066 0.398-0.117-0.023 0.343-0.039 0.597-0.039 0.757 0.028 0.293 0.188 0.469 0.481 0.52 0.586 0.105 1.121-0.067 1.601-0.52 0.211-0.187 0.371-0.386 0.481-0.597v0.238c0 0.641 0.09 0.984 0.277 1.039 0.188 0.027 0.496-0.121 0.922-0.437 0.399-0.321 0.707-0.458 0.918-0.403 0 0.403 0.188 0.602 0.563 0.602 0.398 0 0.664-0.657 0.796-1.961l0.122 0.922c0.292 0.586 0.652 1 1.082 1.238 0.503 0.293 0.906 0.133 1.199-0.481 0.293 0.375 0.519 0.614 0.679 0.719 0.293 0.16 0.625 0.121 1-0.117 0.266-0.16 0.454-0.426 0.559-0.801l-1.16 0.239 0.68-0.2c-0.957-0.027-1.664-0.039-2.118-0.039-0.48 0-0.773-0.054-0.882-0.16 0.082-0.133 0.386-0.215 0.921-0.242 0.454-0.024 0.708-0.199 0.758-0.52 0.082-0.425-0.238-0.851-0.961-1.277 0.082-0.027 0.457-0.082 1.121-0.16 0.536-0.055 0.868-0.176 1-0.359 0.403-0.508-0.05-0.895-1.359-1.161 0.586 0 0.934-0.148 1.039-0.441 0.133-0.266 0-0.52-0.398-0.762 0 0.457-0.067 0.817-0.2 1.082l-1.082 0.199v0.04h-0.117c-0.48 0.773-1.121 1.187-1.922 1.242-0.05-0.082-0.078-0.348-0.078-0.801-0.054 0.215-0.203 0.348-0.441 0.398-0.238 0.055-0.371-0.039-0.399-0.277-0.429 0-0.761-0.027-1-0.082-0.453-0.105-0.507-0.305-0.16-0.598-0.375-0.242-0.535-0.496-0.48-0.761 0.054-0.266 0.32-0.305 0.801-0.121-0.161-0.079-0.321-0.239-0.481-0.481-0.215-0.293-0.254-0.504-0.121-0.637 0.105-0.136 0.254-0.187 0.441-0.16 0.161 0.028 0.293 0.106 0.399 0.238-0.32-0.718-0.332-1.187-0.039-1.398 0.371-0.242 0.691-0.094 0.961 0.438 0.023 0.082 0.05 0.16 0.078 0.242 0.16-0.188 0.469-0.242 0.922-0.16 0.16-0.106 0.343-0.161 0.558-0.161 0.668-0.027 1.028 0.504 1.078 1.598 0.055-0.184 0.215-0.344 0.481-0.476 0.269-0.137 0.48-0.149 0.641-0.043 0.105 0.082 0.16 0.269 0.16 0.562 0.32 0 0.535-0.082 0.64-0.242 0.106-0.16 0.133-0.438 0.082-0.84-0.214-0.027-0.347-0.027-0.402 0l-0.039-0.437c-0.188 0-0.359-0.043-0.52-0.122 0.082-0.082 0.293-0.187 0.641-0.32 0.078-0.242 0.094-0.398 0.039-0.48-0.055-0.133-0.242-0.215-0.559-0.239 0.051-0.375 0.012-0.695-0.121-0.961-0.105-0.265-0.281-0.32-0.519-0.16 0.082-0.133 0.082-0.375 0-0.718l-0.363-0.043c-0.024-0.211-0.024-0.547 0-1-0.481-0.266-0.813-0.692-1-1.282-0.239 0-0.532 0.028-0.879 0.082-0.586 0.133-1.028 0.321-1.321 0.559-0.078-0.238-0.16-0.453-0.238-0.641-0.027 0.028-0.055 0.043-0.082 0.043-0.184 0.078-0.305 0.227-0.359 0.442 0 0.238-0.012 0.437-0.039 0.597-0.106-0.187-0.172-0.32-0.2-0.398-0.082-0.16-0.175-0.254-0.281-0.281-0.027 0.05-0.039 0.105-0.039 0.16-0.082-0.055-0.148-0.11-0.199-0.16-0.27 0.05-0.375 0.32-0.32 0.8-0.055-0.214-0.161-0.293-0.321-0.242-0.054 0-0.109 0.016-0.16 0.039 0.051 0.188 0.117 0.387 0.199 0.602-0.132-0.133-0.265-0.215-0.398-0.238-0.027 0.132 0.012 0.277 0.117 0.437 0.082 0.106 0.215 0.266 0.402 0.481-0.32-0.079-0.601-0.122-0.839-0.122 0 0.321-0.028 0.59-0.082 0.801l0.359 0.762c-0.133-0.16-0.293-0.242-0.481-0.242-0.21 0-0.386 0.082-0.519 0.242-0.32-0.266-0.641-0.387-0.957-0.359 0.023-0.27 0.133-0.696 0.316-1.282 0-0.023 0.016-0.05 0.043-0.078zm10.399 9.238c-0.348 0.055-0.547-0.066-0.602-0.359 0.055 0.348 0.297 0.465 0.723 0.359 0.051-0.023 0.097-0.05 0.14-0.078-0.097 0.051-0.183 0.078-0.261 0.078zm3.281-8.32c0 0.403-0.016 0.68-0.039 0.84-0.027 0.133-0.055 0.254-0.082 0.359 0.082 0.055 0.148 0.121 0.199 0.204-0.051-0.481 0.172-0.59 0.68-0.321 0.535 0.266 0.84 0.559 0.922 0.879l0.16 1c0.023 0.027 0.039 0.055 0.039 0.078h0.082c0 0.055 0.012 0.11 0.039 0.16 0.027 0.082 0.012 0.176-0.039 0.282v0.082l-0.121 1.398c-0.375 0-0.813-0.066-1.321-0.199-0.718-0.16-1.054-0.387-1-0.68-0.535-0.054-0.839-0.375-0.918-0.961-0.027-0.133-0.027-0.254 0-0.359-0.214 0.051-0.429 0.039-0.64-0.043-0.027 0.187-0.094 0.363-0.199 0.523l0.398 0.559 0.16 0.32c0.211 0.481 0.293 1.106 0.239 1.879 0.082-0.055 0.148-0.121 0.203-0.199 0.129-0.188 0.117-0.84-0.043-1.961 0.082 0.293 0.265 0.629 0.558 1 0.485 0.563 0.883 0.668 1.203 0.32 0.051-0.05 0.094-0.144 0.118-0.281 0.293 0.535 0.933 0.602 1.921 0.203-0.054-0.082-0.054-0.16 0-0.242 0-0.055 0.04-0.238 0.118-0.559 0.027-0.105 0.043-0.628 0.043-1.562 0.371-0.051 0.531-0.238 0.48-0.559-0.027-0.347-0.226-0.531-0.601-0.558 0.16-0.215 0.148-0.387-0.04-0.52-0.16-0.109-0.359-0.137-0.601-0.082 0.187-0.105 0.613-0.254 1.281-0.437 0.531-0.215 0.762-0.535 0.68-0.961-0.028-0.266-0.215-0.43-0.559-0.481 0.239-0.105 0.414-0.308 0.52-0.601 0.133-0.317 0.105-0.571-0.082-0.758-0.16-0.188-0.531-0.199-1.117-0.043-0.59 0.137-0.934 0.363-1.043 0.684 0.027-0.563 0.043-0.907 0.043-1.04 0-0.136-0.016-0.242-0.043-0.32l-0.68-0.363c-0.16 0.027-0.281 0.16-0.359 0.402 0-0.242-0.012-0.453-0.04-0.64l-0.16-0.079c0.028-0.027 0.067-0.07 0.118-0.121-0.133-0.347-0.344-0.562-0.637-0.64-0.535-0.133-0.934 0.039-1.203 0.519-0.211 0.375-0.305 0.84-0.278 1.399-0.054-0.481-0.175-0.879-0.359-1.2-0.27-0.453-0.59-0.585-0.961-0.398-0.051 0.336-0.004 0.75 0.141 1.238-0.293-0.902-0.766-1.277-1.422-1.117-0.028 0.078-0.039 0.16-0.039 0.238v0.161c0 0.16 0.027 0.332 0.082 0.519 0.293 0.348 0.492 0.734 0.597 1.16v0.039c0.243 0.375 0.547 0.868 0.918 1.481-0.078-0.055-0.156-0.094-0.238-0.121 0.188 0.215 0.375 0.347 0.559 0.402 0.187 0.078 0.441 0.051 0.761-0.082 0.188-0.055 0.332-0.133 0.442-0.238-0.028-0.082-0.028-0.16 0-0.242h-0.082c-0.242 0.054-0.508 0.043-0.801-0.04-0.371-0.132-0.52-0.332-0.438-0.601 0.082-0.211 0.321-0.266 0.719-0.156 0.293 0.078 0.563 0.183 0.801 0.316-0.078-0.426-0.078-0.691 0-0.801 0.055-0.078 0.16-0.144 0.32-0.199 0.106-0.906 0.227-1.504 0.36-1.801 0.105 0.59 0.187 1.188 0.242 1.801 0.316 0.027 0.558 0.109 0.719 0.242 0.238 0.184 0.304 0.453 0.199 0.797 0.082-0.133 0.199-0.211 0.359-0.238 0.078-0.078 0.199-0.149 0.36-0.199 0.828-0.266 1.121 0.093 0.879 1.078h-0.477c-0.055 0.054-0.109 0.094-0.16 0.121-0.242 0.187-0.524 0.254-0.84 0.199l-0.641-0.199c-0.082 0.027-0.187 0.121-0.32 0.281l-0.039 0.039zm4.961 0.563h-0.16l0.078 0.039 0.082-0.039zm-7.043-9.082c-0.106 0.238-0.184 0.425-0.238 0.558 0.027-0.051 0.066-0.105 0.121-0.16 0.023-0.133 0.066-0.266 0.117-0.398zm0.723 1.761-0.043 0.118h0.043v-0.118zm-9.762 13c0.453-0.082 0.773-0.109 0.961-0.082 0.32 0.028 0.574 0.16 0.758 0.403 0.214 0.343 0.269 0.718 0.16 1.117-0.133 0.402-0.399 0.629-0.797 0.68l-0.801-1.079c-0.187-0.375-0.281-0.718-0.281-1.039zm2.32-2.8h-0.082c0.027 0.027 0.043 0.054 0.043 0.078l0.039-0.078zm-0.68-2.602c-0.32 0-0.613-0.066-0.878-0.199-0.375-0.188-0.481-0.442-0.321-0.762 0.184-0.316 0.52-0.332 1-0.039 0.453 0.32 0.653 0.656 0.598 1h-0.399zm1.321 0.281c-0.11-0.133-0.16-0.281-0.16-0.441 0-0.184 0.066-0.305 0.199-0.36 0.215-0.078 0.332 0.04 0.359 0.36v0.68l-0.398-0.239zm-10.602 0.719c-0.054 0-0.105-0.012-0.16-0.039 0.027 0.027 0.055 0.051 0.082 0.078 0.024 0 0.051-0.012 0.078-0.039zm-4.519-5.359 0.039 0.082h0.082l-0.121-0.082zm5.121 0.082c0.054 0.078 0.094 0.183 0.121 0.316l-0.801 0.52-0.402-0.559v0.039c-0.024 0.109-0.039 0.188-0.039 0.242l-0.16 1.961c0 0.371 0.015 0.692 0.039 0.957 0.109-0.023 0.269-0.039 0.48-0.039 0.293 0.028 0.574 0.094 0.84 0.199-0.426-0.558-0.492-0.957-0.199-1.199 0.16-0.105 0.332-0.133 0.519-0.078 0.242 0.078 0.375 0.211 0.403 0.398-0.082-1.039 0.16-1.519 0.718-1.441 0.348 0.027 0.547 0.281 0.602 0.762v0.398l0.277-0.238c0.613-0.883 1.16-1.586 1.641-2.121-0.051-0.106-0.121-0.184-0.199-0.238-0.293-0.188-0.563-0.028-0.801 0.48 0.027-0.453 0.015-0.762-0.039-0.922-0.106-0.293-0.348-0.347-0.723-0.16-0.023 0.109-0.039 0.215-0.039 0.32-0.078-0.238-0.238-0.453-0.48-0.64-0.321-0.211-0.614-0.266-0.879-0.157-0.239 0.133-0.36 0.356-0.36 0.68 0 0.477-0.027 0.774-0.082 0.879-0.16-0.133-0.304-0.254-0.437-0.359zm-0.961-0.321c0.133-0.027 0.281-0.027 0.441 0-0.136-0.054-0.269-0.093-0.402-0.121 0 0.055-0.012 0.094-0.039 0.121z" inkscape:connector-curvature="0"/>
      <path id="path20" style="fill-rule:evenodd;fill:#585d3b" d="m5.559 9.914c-0.028 0.215-0.067 0.403-0.118 0.563-0.027 0.133-0.054 0.25-0.082 0.359v0.039c-0.132 0.426-0.254 0.762-0.359 1-0.188 0.586-0.426 1-0.719 1.242-0.242 0.211-0.547 0.305-0.922 0.278-0.48-0.051-0.8-0.16-0.961-0.321v0.403c-0.023 0.371 0.028 0.625 0.161 0.758 0.187 0.187 0.586 0.242 1.203 0.16 0.558-0.051 0.945-0.16 1.16-0.321 0.426-0.32 0.785-0.757 1.078-1.32 0.16-0.316 0.387-0.84 0.68-1.559 0.132-0.265 0.242-0.535 0.32-0.8 0.133-0.453 0.199-0.918 0.199-1.399l-0.597 0.039c-0.028 0.293-0.067 0.52-0.122 0.68-0.082 0.242-0.292 0.613-0.64 1.121-0.16 0.238-0.293 0.453-0.399 0.641 0.079-0.321 0.118-0.75 0.118-1.282v-0.281zm3.8-0.359 0.121-1.68v0.52c0.106-0.133 0.227-0.227 0.36-0.282 0.027-0.023 0.039-0.066 0.039-0.117 0.133 0.028 0.266 0.067 0.402 0.117 0 0.028 0.012 0.043 0.039 0.043 0.188 0.051 0.348 0.145 0.481 0.282 0.133 0.105 0.277 0.222 0.437 0.355 0.055-0.105 0.082-0.398 0.082-0.879 0-0.32 0.121-0.547 0.36-0.679 0.265-0.106 0.558-0.055 0.879 0.16 0.242 0.187 0.402 0.398 0.48 0.64 0-0.109 0.016-0.215 0.039-0.32 0.375-0.187 0.617-0.133 0.723 0.16 0.054 0.16 0.066 0.465 0.039 0.918 0.238-0.504 0.508-0.664 0.801-0.48 0.078 0.054 0.148 0.136 0.199 0.242-0.481 0.531-1.028 1.238-1.641 2.121l0.481-0.402c0.187-0.133 0.347-0.266 0.48-0.399 0.051-0.055 0.121-0.109 0.199-0.16 0.028-0.027 0.055-0.039 0.082-0.039 0-0.027 0.012-0.055 0.039-0.082l1-1.242c0-0.024 0.012-0.067 0.04-0.117 0.054-0.161 0.105-0.321 0.16-0.481-0.106-0.027-0.215-0.066-0.321-0.121-0.238-0.078-0.464-0.117-0.679-0.117 0.054-0.348-0.149-0.59-0.602-0.723-0.426-0.133-0.719-0.051-0.879 0.242 0.028-0.507-0.144-0.812-0.519-0.922-0.481-0.023-0.868-0.05-1.16-0.078 0.214-0.32 0.187-0.519-0.079-0.601-0.109 0-0.203-0.012-0.281-0.039v0.121c-0.027-0.055-0.066-0.094-0.121-0.121-0.133 0-0.238-0.016-0.32-0.039l0.043-0.043c-0.215-0.024-0.43 0.015-0.641 0.121l0.039 0.16-0.082-0.16c-0.293 0.16-0.453 0.386-0.476 0.679 0.023-0.531-0.016-0.96-0.122-1.277-0.132-0.43-0.347-0.308-0.64 0.356-0.188-0.957-0.52-1.344-1-1.157-0.188 0.133-0.266 0.375-0.238 0.719-0.028-0.133-0.122-0.25-0.282-0.359-0.082 0.48-0.105 0.761-0.082 0.84 0 0.269 0.082 0.48 0.242 0.64-0.132-0.078-0.347-0.133-0.64-0.16-0.399-0.027-0.68 0-0.84 0.082-0.375 0.238-0.398 0.52-0.078 0.84 0.156 0.183 0.41 0.426 0.758 0.719-0.348 0-0.602 0.011-0.758 0.039-0.27 0.027-0.414 0.16-0.442 0.398-0.027 0.16 0.04 0.348 0.2 0.563l0.121 0.082h-0.082c0.027 0.023 0.054 0.05 0.082 0.078l0.16-1.039 0.598 0.117c0.027 0.562 0.043 1.016 0.043 1.363 0.078-0.082 0.277-0.109 0.597-0.082 0-0.187-0.039-0.437-0.121-0.758-0.105-0.32-0.156-0.562-0.156-0.722 0.426-0.344 0.945-0.321 1.558 0.082 0.215 0.133 0.426 0.293 0.641 0.48-0.48 0.985-0.84 1.774-1.082 2.36-0.211 0.503-0.387 0.984-0.519 1.437-0.293 0.934-0.442 1.774-0.442 2.524-0.023 0.503 0.094 1 0.363 1.476 0.106 0.188 0.399 0.617 0.879 1.281 0.266 0.348 0.465 0.559 0.602 0.641 0.156 0.078 0.359 0.051 0.598-0.082-0.028 0.082-0.051 0.148-0.079 0.203-0.082 0.371-0.214 0.625-0.402 0.758-0.32 0.242-0.934 0.293-1.84 0.16-0.293-0.055-0.547-0.199-0.758-0.437-0.187-0.243-0.296-0.524-0.32-0.84-0.055 0.773-0.043 1.343 0.039 1.718 0.106 0.426 0.332 0.68 0.68 0.758h1.121c0.453 0 0.785-0.051 1-0.16 0.211-0.105 0.465-0.332 0.758-0.68 0.187-0.211 0.453-0.586 0.801-1.117 0.132-0.16 0.265-0.308 0.402-0.441 0.211-0.16 0.437-0.254 0.68-0.281l0.117-0.641c-0.293-0.156-0.547-0.25-0.758-0.277h-0.082v-0.039c-0.078 0.16-0.184 0.343-0.32 0.558-0.504 0.508-0.864 0.918-1.079 1.238-0.027-0.16 0.04-0.414 0.2-0.757 0.132-0.375 0.265-0.586 0.398-0.641l1.082-0.801c-0.027 0.028-0.105 0.149-0.238 0.36 0.266-0.293 0.547-0.625 0.84-1 0.023-0.024 0.05-0.067 0.078-0.118 0.933-0.988 1.773-1.976 2.519-2.961 0.028-0.054 0.067-0.121 0.121-0.199-0.16 0.184-0.335 0.371-0.519 0.559 0 0.027-0.016 0.039-0.039 0.039-0.082 0.105-0.176 0.215-0.281 0.32-0.082 0.106-0.2 0.227-0.36 0.36-0.293 0.347-0.508 0.656-0.64 0.921 0.027-0.132 0.078-0.308 0.16-0.519-0.293 0.266-0.656 0.547-1.082 0.84-0.399 0.343-0.731 0.597-1 0.758-0.426 0.293-0.813 0.414-1.16 0.359-0.504-0.078-0.813-0.52-0.918-1.316-0.055-0.563-0.016-1.161 0.121-1.801 0-0.028 0.039-0.375 0.117-1.039l0.359-1.082c0.055-0.321 0.094-0.786 0.121-1.399v0.598zm14.321 6.242v0.117c0.398 0.242 0.535 0.496 0.398 0.762-0.105 0.293-0.449 0.441-1.039 0.441 1.309 0.266 1.762 0.653 1.359 1.161-0.132 0.183-0.464 0.304-1 0.359-0.664 0.078-1.039 0.133-1.117 0.16 0.719 0.426 1.039 0.852 0.957 1.277-0.05 0.321-0.304 0.496-0.758 0.52-0.535 0.027-0.839 0.109-0.918 0.242 0.106 0.106 0.399 0.16 0.879 0.16 0.454 0 1.161 0.012 2.121 0.039l0.516-0.281v-0.918c0.055 0.293 0.254 0.414 0.602 0.359 0.082-0.078 0.148-0.226 0.199-0.441 0-0.293-0.106-0.465-0.317-0.519 0.399-0.266 0.504-0.598 0.317-1-0.133-0.321-0.387-0.52-0.758-0.598 0.399 0.023 0.652-0.188 0.758-0.641 0.133-0.48 0.082-0.879-0.16-1.199l-0.117 0.641c0-0.535-0.028-0.844-0.082-0.922-0.079-0.16-0.372-0.254-0.879-0.281 0.347-0.426 0.437-0.692 0.281-0.797-0.027-0.028-0.348-0.082-0.961-0.16l0.039 0.437c0.055-0.027 0.188-0.027 0.398 0 0.055 0.402 0.028 0.68-0.078 0.84-0.105 0.16-0.32 0.242-0.64 0.242zm4.16-11.32-0.238 0.64v0.118h-0.043l-0.079 0.722-0.039-0.722c-0.187 0.027-0.308 0.054-0.363 0.082-0.105 0.05-0.172 0.132-0.199 0.238-0.051-0.133-0.133-0.227-0.238-0.277-0.161-0.055-0.293-0.028-0.403 0.078 0.028-0.188 0.043-0.414 0.043-0.68 0-0.215-0.109-0.375-0.32-0.481-0.16-0.082-0.375-0.105-0.641-0.082-0.265 0.028-0.441 0.122-0.519 0.282 0.054-0.266-0.078-0.492-0.399-0.68-0.269-0.187-0.402-0.133-0.402 0.16-0.027-0.398-0.414-0.558-1.16-0.48-0.051 0.082-0.145 0.148-0.278 0.199l-0.441-0.039c-0.242-0.133-0.469-0.094-0.68 0.121 0.184 0.293 0.571 0.613 1.161 0.957 0.476 0.27 0.933 0.48 1.359 0.641-0.641-0.106-0.828 0.16-0.563 0.8 0.27 0.614 0.442 1.039 0.524 1.282 0.316-0.481 0.543-1 0.68-1.563 0.05-0.504 0.105-0.812 0.16-0.918 0.078 0.32 0.105 0.785 0.078 1.399 0.133-0.161 0.238-0.25 0.32-0.282 0 0.403-0.121 0.801-0.359 1.203-0.028 0.239-0.055 0.481-0.082 0.719 0.656-0.156 1.129 0.215 1.422 1.121-0.145-0.492-0.192-0.906-0.141-1.242 0.371-0.187 0.691-0.051 0.961 0.399 0.184 0.32 0.305 0.722 0.359 1.203-0.027-0.559 0.067-1.028 0.278-1.403 0.269-0.48 0.668-0.652 1.203-0.519 0.293 0.082 0.504 0.293 0.637 0.64 0.535-0.558 0.96-0.679 1.281-0.359 0.293 0.266 0.453 0.774 0.48 1.52l-0.64-0.36c0.027 0.082 0.043 0.188 0.043 0.321 0 0.132-0.016 0.48-0.043 1.043 0.109-0.321 0.453-0.551 1.043-0.684 0.586-0.156 0.957-0.145 1.117 0.043 0.187 0.183 0.215 0.437 0.082 0.758-0.11 0.293-0.281 0.492-0.52 0.601 0.348 0.051 0.531 0.211 0.559 0.481 0.082 0.426-0.149 0.746-0.68 0.957-0.668 0.187-1.094 0.336-1.281 0.441 0.242-0.055 0.441-0.027 0.601 0.078 0.184 0.137 0.2 0.309 0.04 0.524 0.375 0.023 0.574 0.211 0.601 0.558 0.051 0.321-0.109 0.508-0.48 0.559 0 0.934-0.016 1.453-0.043 1.562-0.078 0.321-0.118 0.504-0.118 0.559-0.054 0.078-0.054 0.16 0 0.238v0.043l0.399-0.199c1.387-0.668 2-1.75 1.84-3.242 0.082 0.215 0.347 0.32 0.801 0.32 0.054-0.187 0.054-0.359 0-0.519-0.774-0.188-1-0.481-0.68-0.879l-0.082-0.039h0.16c0.16-0.16 0.426-0.243 0.801-0.243l0.121-0.039c0.16-0.132 0.226-0.336 0.199-0.601-0.027-0.184-0.16-0.387-0.402-0.598-0.211-0.187-0.317-0.363-0.317-0.519 0.239-0.055 0.399-0.215 0.481-0.485 0.105-0.238 0.105-0.465 0-0.679-0.082-0.239-0.293-0.371-0.641-0.399-0.426-0.027-0.695-0.082-0.801-0.16 0.266-0.48 0.215-0.801-0.16-0.961-0.347-0.133-0.734-0.133-1.16 0 0.109-0.426 0.149-0.785 0.121-1.078-0.055-0.293-0.199-0.469-0.441-0.52-0.293-0.082-0.492-0.175-0.598-0.281-0.109-0.133-0.215-0.387-0.32-0.762-0.028-0.238-0.254-0.371-0.68-0.398-0.453-0.078-0.723-0.012-0.801 0.199-0.109-0.371-0.492-0.531-1.16-0.48l-0.32 0.043zm-5.281 5.758c-0.024 0.453-0.024 0.789 0 1l0.363 0.043c0.078 0.343 0.078 0.585 0 0.718 0.238-0.16 0.41-0.105 0.516 0.16 0.136 0.266 0.175 0.586 0.121 0.961 0.32 0.024 0.507 0.106 0.562 0.239 0.051 0.082 0.039 0.238-0.043 0.48 0.188-0.055 0.293-0.215 0.32-0.48 0.055-0.239 0.04-0.481-0.039-0.719-0.109-0.242-0.281-0.402-0.519-0.481 0.183-0.105 0.32-0.226 0.398-0.359-0.05-0.215-0.078-0.441-0.078-0.68-0.137-0.214-0.375-0.308-0.722-0.281 0.109-0.082 0.253-0.16 0.441-0.242 0.027-0.024 0.066-0.051 0.121-0.078l-0.043-0.16c-0.184 0.105-0.398 0.148-0.637 0.121-0.293-0.055-0.547-0.133-0.761-0.242zm-1.68-4.52-0.039-0.039c-0.051 0.215-0.067 0.398-0.039 0.559-0.723-1.04-1.293-1.415-1.723-1.118-0.183 0.133-0.223 0.36-0.117 0.68 0.453 0.027 0.734 0.238 0.84 0.641 0.078 0.265 0.144 0.492 0.199 0.679-0.188-0.027-0.398-0.015-0.641 0.039-0.027 0.082 0.028 0.282 0.161 0.602-0.508 0-0.879 0.012-1.122 0.039-0.05 0.242 0.176 0.52 0.68 0.84l0.524 0.32c-0.188-0.054-0.348-0.054-0.481 0 0.078 0.188 0.16 0.399 0.238 0.641 0.293-0.242 0.735-0.426 1.321-0.559 0.347-0.054 0.64-0.082 0.879-0.082-0.024-0.082-0.051-0.176-0.079-0.281-0.132-0.508-0.292-1.293-0.48-2.359-0.055-0.243-0.094-0.442-0.121-0.602zm1.281 0.16c-0.105 0.133-0.148 0.348-0.121 0.641 0 0.293 0.039 0.547 0.121 0.762 0.188 0.476 0.52 0.679 1 0.597v-0.082c0.028-0.609 0.039-0.93 0.039-0.957 0-0.133-0.011-0.293-0.039-0.48-0.055-0.106-0.172-0.176-0.359-0.2-0.266-0.054-0.453 0.067-0.563 0.36 0.082-0.266 0.055-0.481-0.078-0.641zm1.199 1.961c0.106 0 0.243-0.066 0.403-0.199l-0.403 0.039v0.16zm-6.839 4.078c0.054-0.211 0.082-0.476 0.082-0.797h-0.321c-0.027 0.184 0.051 0.453 0.239 0.797zm1.402-2.558c0.051 0.054 0.117 0.105 0.199 0.16 0-0.055 0.012-0.106 0.039-0.16h-0.039c-0.082-0.028-0.148-0.028-0.199 0zm-0.801 0.601c-0.082 0.051-0.148 0.133-0.199 0.238v0.122c0.133 0.027 0.266 0.105 0.398 0.238-0.082-0.211-0.148-0.414-0.199-0.598zm2.879-2.84h0.039c0.27 0.078 0.336 0.239 0.199 0.477-0.05-0.051-0.133-0.211-0.238-0.477zm9.48 1.2c0.028 0.187 0.04 0.398 0.04 0.64 0.082-0.242 0.203-0.375 0.359-0.402l-0.399-0.238zm-4.718 0.519c-0.055-0.187-0.082-0.359-0.082-0.519-0.055 0.132-0.082 0.238-0.082 0.32v0.039c0.054 0.055 0.109 0.105 0.164 0.16zm0.597 1.199c0.055 0.266 0.106 0.508 0.161 0.719 0.187 0.266 0.359 0.481 0.519 0.641 0.082 0.027 0.16 0.066 0.238 0.121-0.371-0.613-0.675-1.106-0.918-1.481zm1.84-2.879-0.277 0.801c-0.402-0.375-0.508-0.75-0.32-1.121 0.183-0.055 0.32-0.039 0.398 0.039 0.055 0.055 0.121 0.149 0.199 0.281zm-21.679 2.122c0-0.11 0.027-0.204 0.082-0.282h-0.122v0.078l0.04 0.204zm9.441 2.078c0.051-0.051 0.105-0.121 0.16-0.2 0.051-0.078 0.106-0.144 0.16-0.199v-0.043c0.239-0.371 0.344-0.664 0.321-0.879l-0.043-0.121c-0.024 0.055-0.051 0.094-0.079 0.121v0.082c-0.105 0.426-0.214 0.719-0.32 0.879-0.055 0.106-0.121 0.227-0.199 0.36zm0.84-3.52v0.117c0.027-0.023 0.054-0.05 0.078-0.078-0.024-0.027-0.051-0.039-0.078-0.039zm-6.321 0.559c0 1.043 0.012 1.894 0.04 2.562l0.16-1.961c0-0.054 0.015-0.133 0.039-0.242v-0.039l-0.239-0.32zm5.36-2.957c0.105 0.238 0.293 0.355 0.558 0.355 0.243 0.027 0.43-0.066 0.563-0.277 0.027-0.055 0.066-0.11 0.117-0.16h-0.316c-0.028-0.133-0.043-0.332-0.043-0.602-0.024-0.238-0.133-0.414-0.321-0.519-0.132-0.106-0.371-0.145-0.718-0.118-0.293 0.024-0.52 0.078-0.68 0.161 0.105-0.485-0.078-0.856-0.559-1.122-0.453-0.265-0.906-0.32-1.363-0.16 0.055 0.293 0.16 0.586 0.32 0.879l-0.199 0.043c-0.32 0.078-0.387 0.293-0.199 0.637 0.078 0.082 0.16 0.148 0.238 0.203 0.481 0.32 0.895 0.371 1.242 0.16-0.082 0.399 0.028 0.707 0.321 0.918 0.265 0.215 0.597 0.281 1 0.199l0.039-0.597zm-2.442-1.563c0.27-0.027 0.481 0.028 0.641 0.16 0.188 0.133 0.227 0.332 0.121 0.602-0.293-0.16-0.547-0.414-0.762-0.762z" inkscape:connector-curvature="0"/>
      <path id="path22" style="fill-rule:evenodd;fill:#848958" d="m14.48 11.957c-0.054 0.078-0.093 0.145-0.121 0.199-0.746 0.985-1.586 1.973-2.519 2.961l0.64 0.438c-0.613 0.055-0.921 0.215-0.921 0.48 0 0.348 0.402 0.481 1.203 0.403-0.297 0.132-0.348 0.316-0.16 0.558-0.563 0.321-0.868 0.52-0.922 0.598l0.16-0.039c-0.051 0.105-0.078 0.226-0.078 0.359-0.028 0.028-0.043 0.055-0.043 0.082v0.078c0.668 0.055 1.215 0.016 1.64-0.117-0.054 0.16-0.027 0.305 0.082 0.438l0.68-0.2-0.402 0.801c0.054 0.239 0.203 0.481 0.441 0.719 0.293 0.266 0.535 0.336 0.719 0.199 0.187-0.133 0.148-0.613-0.117-1.437 0.957 0.398 1.465 0.343 1.519-0.16 0.024-0.266-0.109-0.547-0.402-0.84-0.371-0.266-0.613-0.469-0.719-0.602 0.238-0.055 0.613-0.066 1.121-0.039 0-1.016-0.293-1.332-0.883-0.961 0.082-0.238 0.094-0.625 0.043-1.16-0.16-0.027-0.281-0.027-0.363 0 0.16-0.852 0.227-1.387 0.203-1.598 0-0.613-0.293-0.668-0.883-0.16 0.055-0.375 0.082-0.707 0.082-1zm13.321-0.48c0.078-0.055 0.144-0.106 0.199-0.16 0.055-0.188 0.121-0.387 0.199-0.602v-0.16c0-0.051 0.016-0.106 0.039-0.16 0-0.106 0.016-0.227 0.043-0.36 0-0.078 0.012-0.172 0.039-0.281-0.16 0.055-0.265 0.121-0.32 0.203-0.078 0.106-0.078 0.371 0 0.797-0.238-0.133-0.508-0.238-0.801-0.316-0.398-0.11-0.637-0.055-0.719 0.16-0.078 0.265 0.067 0.465 0.442 0.597 0.293 0.083 0.558 0.094 0.801 0.043h0.078c-0.028 0.079-0.028 0.157 0 0.239zm1.121-1.723c0.023 0.453 0.039 0.906 0.039 1.363v0.758l0.039-0.039c0.133-0.16 0.238-0.254 0.32-0.281l0.641 0.199c0.316 0.055 0.598-0.012 0.84-0.199 0.051-0.027 0.105-0.067 0.16-0.117h-0.32c-0.403-0.188-0.586-0.403-0.563-0.641 0-0.082 0.043-0.16 0.121-0.242-0.16 0.027-0.277 0.105-0.359 0.242 0.105-0.348 0.039-0.613-0.199-0.801-0.161-0.133-0.403-0.215-0.719-0.242zm1.918 5.16c0-0.023-0.012-0.051-0.039-0.078l-0.16-1c-0.082-0.32-0.387-0.613-0.918-0.879-0.508-0.269-0.735-0.16-0.684 0.321-0.051-0.083-0.117-0.149-0.199-0.204-0.106 0.403-0.281 0.762-0.52 1.082-0.215 0.293-0.465 0.454-0.758 0.481-0.027 0.105-0.027 0.226 0 0.359 0.079 0.586 0.383 0.907 0.918 0.961-0.054 0.293 0.282 0.52 1 0.68 0.508 0.133 0.946 0.199 1.321 0.199l0.121-1.398-2.121 0.238c-0.11-0.508 0.133-0.785 0.719-0.84 0.214-0.027 0.652 0 1.32 0.078zm-8.559 2.321c-0.375 0.082-0.695 0.093-0.961 0.043h-1.082c-0.265-0.829 0.055-1.215 0.961-1.161 0.906 0.051 1.309 0.411 1.199 1.078l1.082-0.199c0.133-0.265 0.2-0.625 0.2-1.082v-0.117c0-0.293-0.051-0.48-0.16-0.562-0.161-0.106-0.372-0.094-0.641 0.043-0.266 0.132-0.426 0.292-0.481 0.476-0.05-1.094-0.41-1.625-1.078-1.598-0.215 0-0.398 0.055-0.558 0.161 0.078 0.027 0.16 0.054 0.238 0.078 0.027 0.133 0.039 0.562 0.039 1.281l-0.238-0.238c-0.266-0.028-0.481-0.067-0.641-0.121l-0.039 0.078c0-0.024-0.016-0.051-0.043-0.078-0.316-0.133-0.437-0.336-0.359-0.602 0.027-0.078 0.066-0.16 0.121-0.238-0.028-0.082-0.055-0.16-0.082-0.242-0.266-0.532-0.586-0.68-0.957-0.438-0.297 0.211-0.281 0.68 0.039 1.398-0.106-0.132-0.242-0.214-0.402-0.238-0.184-0.027-0.333 0.028-0.438 0.16-0.133 0.133-0.094 0.344 0.121 0.637 0.156 0.242 0.317 0.402 0.477 0.481-0.477-0.184-0.746-0.145-0.797 0.121-0.055 0.265 0.105 0.519 0.476 0.761-0.343 0.293-0.293 0.493 0.161 0.598 0.242 0.055 0.574 0.082 1 0.082 0.027 0.238 0.16 0.332 0.402 0.277 0.238-0.05 0.387-0.183 0.437-0.398 0 0.453 0.028 0.719 0.082 0.801 0.801-0.055 1.442-0.469 1.922-1.242zm-2.801-4.52h0.399c0.055-0.344-0.145-0.68-0.598-1-0.48-0.293-0.816-0.277-1 0.039-0.16 0.32-0.054 0.574 0.321 0.762 0.265 0.133 0.558 0.199 0.878 0.199zm1.321 0.281 0.398 0.239v-0.68c-0.027-0.32-0.144-0.438-0.359-0.36-0.133 0.055-0.199 0.176-0.199 0.36 0 0.16 0.05 0.308 0.16 0.441zm-11.242-1.082c0 0.242 0.015 0.442 0.043 0.602 0.023 0.586 0.171 0.972 0.437 1.16 0.055 0.027 0.106 0.039 0.16 0.039 0.133-0.055 0.293-0.16 0.481-0.32 0.398-0.348 0.851-0.813 1.359-1.399 0.348-0.426 0.641-0.773 0.883-1.039-0.481 0.481-0.828 0.758-1.043 0.84l1.043-0.883v-0.398c-0.055-0.481-0.254-0.735-0.602-0.762-0.558-0.078-0.8 0.402-0.718 1.441-0.028-0.187-0.161-0.32-0.403-0.398-0.187-0.055-0.359-0.027-0.519 0.078-0.293 0.242-0.227 0.641 0.199 1.199-0.266-0.105-0.547-0.171-0.84-0.199-0.211 0-0.371 0.016-0.48 0.039zm6.16 4.84h-1.598c-0.187-0.133-0.293-0.316-0.32-0.559 0.32-0.32 0.945-0.386 1.879-0.199 0.054 0.293 0.066 0.547 0.039 0.758z" inkscape:connector-curvature="0"/>
      <path id="path24" style="fill-rule:evenodd;fill:#939865" d="m30.559 8.914 0.64 0.364c-0.027-0.75-0.187-1.254-0.48-1.524-0.321-0.316-0.746-0.199-1.278 0.363-0.054 0.051-0.093 0.09-0.121 0.118l0.16 0.082 0.399 0.238 0.68 0.359zm-10.719 5.563c-0.051 0.078-0.094 0.16-0.121 0.238-0.078 0.266 0.043 0.469 0.359 0.602h0.082c0.16 0.054 0.375 0.093 0.641 0.121l0.238 0.238c0-0.719-0.012-1.148-0.039-1.281-0.078-0.024-0.16-0.051-0.238-0.078-0.453-0.082-0.762-0.028-0.922 0.16zm2.558 2.718c0.11-0.667-0.293-1.027-1.199-1.078-0.906-0.054-1.226 0.332-0.961 1.161h1.082c0.266 0.05 0.586 0.039 0.961-0.043h0.117v-0.04zm8.442-2.281c-0.668-0.078-1.106-0.105-1.32-0.078-0.586 0.055-0.825 0.332-0.719 0.84l2.121-0.238v-0.082c0.051-0.106 0.066-0.2 0.039-0.282-0.027-0.05-0.039-0.105-0.039-0.16h-0.082zm-13 3.203c0 0.321 0.094 0.664 0.281 1.039l0.801 1.079c0.398-0.051 0.664-0.278 0.797-0.68 0.109-0.399 0.054-0.774-0.16-1.117-0.184-0.243-0.438-0.375-0.758-0.403-0.188-0.027-0.508 0-0.961 0.082zm12.359-7.562c-0.078 0.082-0.121 0.16-0.121 0.242-0.023 0.238 0.16 0.453 0.563 0.641h0.8c0.239-0.989-0.054-1.348-0.882-1.082-0.161 0.054-0.278 0.121-0.36 0.199zm-3-3.399c-0.078-0.132-0.144-0.226-0.199-0.281-0.078-0.082-0.215-0.094-0.398-0.039-0.188 0.371-0.082 0.746 0.32 1.117l0.277-0.797zm-11.48 9.598c0.027-0.211 0.015-0.465-0.039-0.758-0.934-0.187-1.559-0.121-1.879 0.199 0.027 0.243 0.133 0.426 0.32 0.559h1.598zm-5.438-8.637c-0.16-0.027-0.308-0.027-0.441 0-0.133 0.051-0.254 0.145-0.36 0.278l0.239 0.32 0.402 0.563 0.801-0.524c-0.027-0.133-0.067-0.238-0.121-0.316-0.133-0.133-0.293-0.227-0.481-0.282-0.027 0-0.039-0.015-0.039-0.039z" inkscape:connector-curvature="0"/>
    </g>
  </g>
<metadata><rdf:RDF><cc:Work><dc:format>image/svg+xml</dc:format><dc:type rdf:resource="http://purl.org/dc/dcmitype/StillImage"/><cc:license rdf:resource="http://creativecommons.org/licenses/publicdomain/"/><dc:publisher><cc:Agent rdf:about="http://openclipart.org/"><dc:title>Openclipart</dc:title></cc:Agent></dc:publisher></cc:Work><cc:License rdf:about="http://creativecommons.org/licenses/publicdomain/"><cc:permits rdf:resource="http://creativecommons.org/ns#Reproduction"/><cc:permits rdf:resource="http://creativecommons.org/ns#Distribution"/><cc:permits rdf:resource="http://creativecommons.org/ns#DerivativeWorks"/></cc:License></rdf:RDF></metadata></svg>
