<?xml version="1.0" encoding="UTF-8" standalone="no"?>
<!-- Created with Inkscape (http://www.inkscape.org/) -->
<svg xmlns:inkscape="http://www.inkscape.org/namespaces/inkscape" xmlns:rdf="http://www.w3.org/1999/02/22-rdf-syntax-ns#" xmlns="http://www.w3.org/2000/svg" xmlns:xlink="http://www.w3.org/1999/xlink" xmlns:ns1="http://sozi.baierouge.fr" xmlns:cc="http://creativecommons.org/ns#" xmlns:sodipodi="http://sodipodi.sourceforge.net/DTD/sodipodi-0.dtd" xmlns:dc="http://purl.org/dc/elements/1.1/" id="svg2" xml:space="preserve" viewBox="0 0 99.276 48.451" version="1.1" inkscape:version="0.91 r13725">
  <g id="g10" transform="matrix(1.25 0 0 -1.25 0 48.451)">
    <g id="g12">
      <path id="path14" style="fill-rule:evenodd;fill:#514b44" d="m76.621 18.202c-1.176 0-2.453-0.027-3.84-0.082-0.933-0.027-1.785-0.066-2.558-0.121v-0.238l-0.282 0.238c-1.546-0.051-2.785-0.09-3.718-0.117h-0.043v0.281l-0.36-0.32-1.8-0.203c-0.266-0.051-0.532-0.106-0.797-0.157-0.243-0.054-0.469-0.109-0.684-0.16l-1.48-0.32c-0.266-0.027-0.504-0.066-0.719-0.121 0.348 0.242 0.562 0.519 0.64 0.84 0.028 0.16 0.028 0.519 0 1.082-4.933 0.558-8.05 0.226-9.359-1-0.508-0.481-0.719-1.039-0.641-1.68 0-0.055 0.028-0.133 0.082-0.242 0.692-0.184 1.145-0.559 1.36-1.117 0.133-0.321 0.172-0.707 0.117-1.16-0.078-0.75-0.371-1.856-0.879-3.325 0.055 1.414 0.067 2.321 0.043 2.719-0.055 0.32-0.176 0.695-0.363 1.121-0.051 0.078-0.094 0.16-0.117 0.238-0.215-0.05-0.414-0.089-0.602-0.117 0.055-0.293 0.082-0.613 0.082-0.961-0.027-0.132-0.043-0.265-0.043-0.398-0.051-0.535-0.156-1.215-0.316-2.043-0.11-0.481-0.227-1.012-0.364-1.598-0.078-0.746-0.332-2.293-0.757-4.64-0.321-1.895-0.493-3.426-0.52-4.602v4.801c0 0.64-0.066 1.492-0.199 2.558-0.133 1.227-0.215 2.094-0.242 2.602-0.028 0.32-0.028 0.813 0 1.48 0.054 0.641 0.054 1.133 0 1.481 0 0.133-0.028 0.266-0.078 0.398-0.11 0.243-0.254 0.496-0.442 0.762-0.105 0.133-0.187 0.266-0.238 0.399-0.32 0.054-0.684 0.132-1.082 0.242-0.828 0.211-1.574 0.316-2.242 0.316-0.477 0-1.039 0.055-1.68 0.16-0.797 0.137-1.32 0.215-1.559 0.242-0.558 0.028-1.375-0.015-2.441-0.121-0.105 0-0.227-0.011-0.359-0.039 0.027 0.028 0.066 0.039 0.121 0.039 0.906 0.161 2.144 0.336 3.718 0.52 0.215 0.055 0.801 0.176 1.762 0.359 0.746 0.242 0.891 0.575 0.438 1-0.239 0.242-0.68 0.364-1.317 0.364-0.722-0.028-1.215-0.043-1.48-0.043-1.414 0-3.281-0.067-5.602-0.2-2.824-0.187-4.691-0.293-5.601-0.32 0.402 0.055 0.961 0.227 1.683 0.52 0.774 0.293 1.332 0.468 1.68 0.519 0.664 0.11 1.758 0.242 3.277 0.402 1.336 0.184 2.348 0.481 3.043 0.879-0.883 0.133-2.027 0.172-3.441 0.121-1.547-0.054-2.695-0.082-3.442-0.082-1.679 0.11-2.945 0.149-3.8 0.122-1.492 0-2.637-0.305-3.438-0.918-1.359-1.043-2.719-1.707-4.082-2 0.723-0.321 1.68-0.641 2.883-0.961 0.934-0.266 1.547-0.414 1.84-0.442 0.293-0.051 0.679-0.094 1.16-0.121 0.371-0.051 0.586-0.144 0.637-0.277l-1.68-0.281c-0.133 0-0.266-0.012-0.398-0.04l-0.239-0.042h-0.203c-0.105 0-0.199-0.012-0.277-0.04-1.176-0.027-2.242 0.067-3.203 0.282-0.371 0.082-0.934 0.133-1.68 0.16-0.773 0.027-1.332 0.066-1.68 0.121h-0.078c-0.242-0.215-0.453-0.441-0.64-0.684-0.774-0.879-1.161-1.839-1.161-2.879 0.028-0.878-0.148-2.132-0.519-3.761-0.32-1.516-0.492-2.719-0.52-3.598v7.758c-0.027 0.48-0.039 0.855-0.039 1.121 0.024 0.508 0.094 0.934 0.199 1.281 0.028 0.078 0.239 0.426 0.641 1.039 0.16 0.239 0.254 0.442 0.277 0.602-0.023 0.023-0.05 0.051-0.078 0.078h0.039l0.082 0.043c0 0.105-0.027 0.184-0.082 0.238l0.602 0.039 0.32 0.16c-0.695-0.05-1.203-0.132-1.523-0.238-0.797 0.266-1.891 0.414-3.278 0.438-1.921 0.054-3.039 0.093-3.359 0.121-2.082 0.242-4.816 0.386-8.203 0.441 1.574 0.028 3.176 0.184 4.801 0.481 0.64 0.132 1.281 0.281 1.922 0.437 0.027 0.668 0.238 1.563 0.64 2.684 0.371 1.066 0.586 1.918 0.637 2.558 0.027-0.535 0.121-1.175 0.281-1.922 0.106-0.585 0.281-1.425 0.52-2.519 0-0.051 0.015-0.106 0.039-0.16 0.242 0.082 0.519 0.187 0.84 0.32 0.082 0.027 0.175 0.055 0.281 0.082 0.133 0.078 0.293 0.16 0.48 0.238 0.747 0.297 1.426 0.469 2.039 0.52 0.426 0.027 1.2 0.148 2.321 0.363 1.066 0.16 1.84 0.184 2.32 0.078l2 1.039c2.055-0.027 3.293-0.039 3.719-0.039 1.308 0.028 2.496 0.16 3.562 0.403 0.774 0.156 1.973 0.41 3.598 0.757 1.016 0.215 1.922 0.36 2.723 0.442 0.023 0.348 0.105 0.719 0.238 1.117 0.375 0.774 0.574 1.32 0.601 1.641-0.109 0.695-0.054 1.187 0.161 1.48 0.371-0.371 0.531-1.16 0.476-2.359-0.023-0.481-0.066-1.067-0.117-1.762 5.066 0.348 9.598 0.43 13.598 0.242 0.027 0.692 0.121 1.465 0.281 2.321 0.32 2 0.492 3.332 0.519 4 0.028 0.64 0.094 1.503 0.2 2.597 0.132 1.227 0.215 2.094 0.242 2.602 0 0.426 0.066 1.105 0.199 2.039v0.039c0.106 0.828 0.172 1.469 0.199 1.922v-1.961c0.028-1.094 0.082-2.36 0.16-3.801 0.161-2.957 0.254-4.934 0.282-5.918l0.199-3.762v-0.199c0.133-0.027 0.266-0.039 0.398-0.039 0.27-0.453 0.762-0.613 1.481-0.48 0.027 0.105 0.043 0.214 0.043 0.32 0.371-0.027 0.746-0.066 1.117-0.121 1.387-0.16 3.27-0.57 5.641-1.238 0.586-0.133 1.32-0.282 2.199-0.442 0.027 0.641 0.066 1.149 0.121 1.52 0.16 1.121 0.281 1.976 0.359 2.562 0.16 1.039 0.348 1.879 0.559 2.52 0-0.563 0.109-1.36 0.32-2.403 0.215-1.066 0.321-1.851 0.321-2.359 0.027-0.824 0.082-1.52 0.16-2.078h0.16c0.215-0.027 0.426-0.109 0.64-0.242 0.051 0.347 0.079 0.734 0.079 1.16-0.106 1.199-0.157 2.015-0.157 2.441-0.027 1.305-0.027 2.293 0 2.961 0 1.145 0.078 2.133 0.239 2.957 0.238-0.558 0.425-1.304 0.558-2.238 0.028-0.188 0.094-0.961 0.203-2.32 0.024-0.266 0.039-1.481 0.039-3.641v-1.961c0.426-0.293 0.731-0.476 0.918-0.559 0.641-0.238 1.403-0.414 2.282-0.519-0.082 1.441 0.039 2.387 0.359 2.84 0.32-1.145 0.535-2.106 0.641-2.879 0.425 0 0.988-0.016 1.679-0.043 2.055-0.051 4.586-0.277 7.602-0.68-0.856 0.028-1.789 0.043-2.801 0.043z" inkscape:connector-curvature="0"/>
      <path id="path16" style="fill-rule:evenodd;fill:#b3aa9e" d="m53.379 22.921c0-0.106-0.012-0.215-0.039-0.32-0.719-0.133-1.211 0.027-1.481 0.48-0.105 0.133-0.171 0.305-0.199 0.52l-0.32 12.48c0.082-0.988 0.226-2.082 0.441-3.281 0.16-0.906 0.531-2.613 1.121-5.117 0.453-1.844 0.614-3.43 0.477-4.762zm-47.078-5.32c-1.625-0.293-3.227-0.453-4.801-0.481 3.387-0.051 6.121-0.199 8.199-0.437 0.321-0.028 1.442-0.071 3.363-0.121 1.383-0.028 2.477-0.176 3.278-0.442 0.16-0.051 0.359-0.133 0.601-0.238h-0.039c0.024-0.027 0.051-0.055 0.078-0.082-0.027-0.16-0.121-0.36-0.281-0.602-0.398-0.613-0.613-0.957-0.637-1.039-0.109-0.347-0.175-0.773-0.203-1.277 0-0.27 0.016-0.645 0.043-1.121l-0.203-0.922c-0.023-0.078-0.094-0.758-0.199-2.039-0.105-0.828-0.266-1.481-0.48-1.961v2.922c0.082 0.906 0.136 1.613 0.16 2.121 0.054 0.957-0.012 1.652-0.2 2.078-0.16 0.426-0.492 0.734-1 0.922-0.48 0.183-0.972 0.223-1.48 0.117-0.453-0.238-0.812-0.387-1.078-0.441-0.11-0.024-0.215 0-0.32 0.082-0.133 0.082-0.227 0.121-0.282 0.121-0.773-0.078-1.226-0.625-1.359-1.641-0.055-0.586-0.039-1.414 0.039-2.48 0-1.735-0.066-4.332-0.199-7.801 0 0.723-0.106 1.801-0.321 3.242-0.214 1.442-0.32 2.531-0.32 3.281 0 2.161-0.055 3.547-0.16 4.161-0.051 0.664-0.094 1.199-0.121 1.597-0.051 0.426-0.133 0.746-0.238 0.961-1.786 0.133-4.106 0.227-6.961 0.281 0.746 0 1.508 0.039 2.281 0.118-1.016 0.054-1.828 0.082-2.441 0.082-0.934 0.027-1.227 0.16-0.879 0.398 0.347 0.242 0.839 0.375 1.48 0.402 2 0.133 3.199 0.2 3.602 0.2l1.078 0.039zm4.879 1.398h-0.2c-0.292 0.082-0.507 0.281-0.64 0.602-0.051 0.082-0.067 0.238-0.039 0.48 0.027 0.238 0.039 0.399 0.039 0.481l-0.199 8c0.718-2.934 1.214-5.508 1.48-7.723 0-0.078 0.027-0.316 0.078-0.719 0.028-0.398 0.016-0.652-0.039-0.758-0.078-0.109-0.148-0.203-0.199-0.281-0.106-0.027-0.199-0.055-0.281-0.082zm6.922-4.758c0.187 0.242 0.398 0.465 0.64 0.68h0.078c0.348-0.051 0.907-0.094 1.68-0.121 0.746-0.024 1.309-0.078 1.68-0.16 0.961-0.211 2.027-0.305 3.199-0.278 0.082 0.028 0.176 0.039 0.281 0.039h0.199l0.243 0.039c0.132 0.028 0.265 0.043 0.398 0.043l1.68 0.278c0.293 0.054 0.613 0.121 0.961 0.203 0.214 0.051 0.625 0.211 1.238 0.476 0.535 0.215 0.961 0.336 1.281 0.364 0.481 0.051 1.133-0.016 1.961-0.203 1.121-0.239 1.734-0.36 1.84-0.36 0.641-0.078 1.48-0.066 2.519 0.043h0.161c0.132 0.024 0.254 0.039 0.359 0.039 1.066 0.106 1.879 0.149 2.441 0.117 0.239-0.023 0.758-0.105 1.559-0.238 0.641-0.105 1.199-0.16 1.68-0.16 0.668 0 1.414-0.105 2.242-0.32 0.398-0.106 0.758-0.184 1.078-0.239 0.055-0.132 0.133-0.265 0.242-0.398 0.188-0.27 0.332-0.523 0.438-0.762-0.399 0.106-0.985 0.266-1.758 0.481-0.266 0.082-0.508 0.133-0.719 0.16-0.43-0.402-0.746-0.949-0.961-1.641-0.238-0.773-0.347-1.613-0.32-2.519-0.16 0.32-0.254 0.785-0.281 1.398-0.024 0.801-0.051 1.281-0.079 1.442-0.132 0.691-0.226 1.093-0.281 1.199-0.078 0.133-0.199 0.254-0.359 0.359-0.293 0.028-0.613 0.067-0.961 0.121-0.133 0.028-0.266 0.051-0.399 0.078-0.16 0.028-0.292 0.055-0.402 0.082-0.371 0.055-0.613 0.094-0.719 0.122-0.558 0.023-1.464-0.028-2.718-0.161-0.028 0-0.055-0.015-0.082-0.043-0.028-0.05-0.051-0.105-0.079-0.16-0.027-0.133-0.027-0.476 0-1.039 0-1.25-0.093-2.746-0.281-4.48-0.051-0.399-0.265-1.282-0.64-2.637-0.399-1.551-0.664-2.508-0.797-2.883-0.055-0.16-0.149-0.387-0.282-0.679-0.082-0.133-0.132-0.266-0.16-0.399 0.028 0.371 0.094 0.852 0.2 1.438 0.16 0.773 0.242 1.347 0.242 1.722v4c-0.188 1.199-0.348 2.172-0.481 2.918-0.133 0.906-0.133 1.613 0 2.121-0.16 0-0.293 0.012-0.402 0.039-0.133 0.028-0.746 0.161-1.84 0.399-0.824 0.187-1.48 0.254-1.957 0.199-0.32-0.023-0.75-0.16-1.281-0.398-0.613-0.293-1.039-0.465-1.281-0.52-2.747-0.691-5.067-0.828-6.961-0.402-0.371 0.109-0.934 0.16-1.68 0.16-0.773 0.027-1.32 0.082-1.637 0.16-0.219 0.055-0.457 0.148-0.722 0.281zm19.32 9.559c-0.11-0.344-0.281-0.547-0.52-0.598-0.16-0.054-0.48-0.054-0.961 0l0.2 6.16c0-0.48 0.281-1.402 0.839-2.761 0.508-1.2 0.653-2.133 0.442-2.801zm39.199-5.598v-0.16c0.879-0.109 1.801-0.227 2.758-0.359-0.852 0.023-1.785 0.039-2.797 0.039-0.055-0.321-0.187-0.707-0.402-1.16-0.211-0.454-0.52-1.055-0.918-1.801-0.348-0.879-0.52-2.078-0.52-3.602 0.028-0.851 0.078-2.09 0.16-3.719-0.293 0.829-0.386 2.333-0.281 4.52 0.106 2-0.082 3.453-0.559 4.359-0.187 0.348-0.574 0.614-1.16 0.801-0.535 0.16-1.015 0.188-1.441 0.082-0.238-0.082-0.492-0.269-0.758-0.562-0.297-0.344-0.523-0.559-0.683-0.641-0.051 0.613-0.118 1-0.2 1.16-0.05 0.11-0.148 0.203-0.281 0.281-1.383-0.05-2.504-0.093-3.359-0.117 0.027-0.8 0.066-1.816 0.121-3.043 0.027-1.574-0.039-2.851-0.199-3.84-0.215 0.266-0.336 0.786-0.36 1.559 0.024 0.828 0.012 1.387-0.043 1.684-0.027 0.211-0.144 0.785-0.359 1.718-0.184 0.719-0.266 1.305-0.238 1.758l0.117 0.082c-0.664-0.054-1.36-0.172-2.078-0.359-0.746-0.188-1.403-0.348-1.961-0.481-0.051-0.082-0.094-0.175-0.121-0.281-0.157-0.453-0.36-1.094-0.598-1.918l-0.281 1.957c-0.078-0.023-0.16-0.051-0.239-0.078-0.187-0.133-0.363-0.359-0.519-0.68-0.215-0.453-0.442-0.718-0.684-0.8l-0.199 0.32c-0.051-0.453-0.25-1.094-0.598-1.922-0.054-0.266-0.136-0.68-0.242-1.238-0.078 0.265-0.105 0.625-0.078 1.078 0.024 0.613 0.039 0.976 0.039 1.082-0.133 0.852-0.215 1.547-0.242 2.078h-0.277c-0.11-0.105-0.215-0.172-0.321-0.199 0 0.082 0.012 0.148 0.039 0.199h-0.199c-0.32-0.023-0.668-0.078-1.039-0.16-0.508-0.531-0.91-0.957-1.203-1.277-0.773-0.856-1.305-1.653-1.598-2.403-0.187-0.504-0.492-1.265-0.922-2.277-0.371-0.883-0.609-1.656-0.718-2.32-0.106-0.696-0.278-1.762-0.52-3.2v-1.16c0-0.48-0.066-0.867-0.199-1.16-0.133 0.613-0.188 1.426-0.16 2.441 0.054 1.118 0.082 1.93 0.082 2.438-0.028 1.066-0.043 1.867-0.043 2.402-0.024 0.559-0.024 1.067 0 1.516 0.16 0.828 0.269 1.508 0.32 2.043 0 0.133 0.016 0.266 0.043 0.398 0 0.348-0.027 0.668-0.082 0.961 0.188 0.028 0.387 0.067 0.602 0.121 0.023-0.082 0.066-0.16 0.117-0.242 0.187-0.426 0.308-0.801 0.359-1.121 0.028-0.398 0.016-1.305-0.039-2.719 0.508 1.469 0.801 2.575 0.879 3.321 0.055 0.453 0.016 0.839-0.117 1.16 0.691 0.375 1.105 0.84 1.238 1.398 0.375 0.055 0.867 0.16 1.481 0.321 0.562 0.132 1.066 0.203 1.519 0.203h1.762c0.691 0 1.281 0.05 1.758 0.156 0.242 0.055 0.535 0.109 0.882 0.16l1.481 0.32c0.211 0.055 0.437 0.106 0.68 0.161 0.265 0.054 0.531 0.105 0.8 0.16l1.797 0.199 0.36 0.32v-0.281h0.043c0.933 0.027 2.172 0.066 3.718 0.121l0.282-0.242v0.242c0.773 0.051 1.625 0.094 2.558 0.121 1.387 0.055 2.664 0.082 3.84 0.082z" inkscape:connector-curvature="0"/>
      <path id="path18" style="fill-rule:evenodd;fill:#635b52" d="m16.941 15.882c-0.242 0.105-0.441 0.183-0.601 0.238 0.32 0.106 0.828 0.188 1.519 0.242l-0.32-0.16-0.598-0.043c0.051-0.051 0.079-0.133 0.079-0.238l-0.079-0.039zm21.2-0.602h-0.161c-1.039-0.105-1.878-0.121-2.519-0.039-0.106 0-0.719 0.117-1.84 0.36-0.828 0.187-1.48 0.254-1.961 0.199-0.32-0.027-0.746-0.149-1.281-0.36-0.613-0.265-1.024-0.425-1.238-0.48-0.348-0.078-0.668-0.148-0.961-0.199-0.051 0.133-0.266 0.226-0.641 0.277-0.477 0.027-0.863 0.07-1.16 0.121-0.293 0.028-0.906 0.176-1.84 0.442-1.199 0.32-2.16 0.64-2.879 0.961 1.36 0.293 2.719 0.957 4.082 2 0.797 0.613 1.946 0.918 3.438 0.918 0.855 0.027 2.121-0.012 3.8-0.122 0.747 0 1.895 0.028 3.442 0.082 1.414 0.051 2.558 0.012 3.437-0.121-0.691-0.398-1.703-0.691-3.039-0.879-1.519-0.16-2.613-0.292-3.281-0.402-0.344-0.051-0.906-0.226-1.68-0.519-0.718-0.293-1.277-0.465-1.679-0.52 0.906 0.027 2.773 0.133 5.601 0.32 2.321 0.133 4.188 0.2 5.598 0.2 0.269 0 0.762 0.015 1.48 0.043 0.641 0 1.082-0.122 1.321-0.364 0.453-0.425 0.308-0.758-0.438-1-0.961-0.183-1.547-0.304-1.762-0.359-1.574-0.184-2.812-0.359-3.718-0.52-0.055 0-0.094-0.011-0.121-0.039zm22.921 1.719c-0.347-0.051-0.64-0.105-0.882-0.16-0.481-0.106-1.067-0.156-1.758-0.156h-1.762c-0.453 0-0.957-0.067-1.519-0.2-0.614-0.16-1.106-0.269-1.481-0.32-0.133-0.562-0.547-1.027-1.238-1.402-0.215 0.562-0.668 0.933-1.36 1.121-0.054 0.105-0.082 0.187-0.082 0.238-0.078 0.641 0.133 1.203 0.641 1.68 1.309 1.23 4.426 1.562 9.359 1 0.028-0.559 0.028-0.918 0-1.078-0.078-0.321-0.292-0.602-0.64-0.84 0.215 0.051 0.453 0.094 0.722 0.117z" inkscape:connector-curvature="0"/>
    </g>
  </g>
<metadata><rdf:RDF><cc:Work><dc:format>image/svg+xml</dc:format><dc:type rdf:resource="http://purl.org/dc/dcmitype/StillImage"/><cc:license rdf:resource="http://creativecommons.org/licenses/publicdomain/"/><dc:publisher><cc:Agent rdf:about="http://openclipart.org/"><dc:title>Openclipart</dc:title></cc:Agent></dc:publisher></cc:Work><cc:License rdf:about="http://creativecommons.org/licenses/publicdomain/"><cc:permits rdf:resource="http://creativecommons.org/ns#Reproduction"/><cc:permits rdf:resource="http://creativecommons.org/ns#Distribution"/><cc:permits rdf:resource="http://creativecommons.org/ns#DerivativeWorks"/></cc:License></rdf:RDF></metadata></svg>
